<svg xmlns="http://www.w3.org/2000/svg" viewBox="0 0 204 215"><path d="M66 214.4c0-.3 1.8-2.6 4-5.1a101 101 0 0 0 23.5-57l.7-8.2-8.8 8.7C66 171.8 43.9 177 24 167c-15-7.6-23-21.7-23-40.4 0-28 16.6-45.7 44.5-47.3 7.2-.4 10.2 0 15.2 1.5l6.1 2-3.6-5.7a51 51 0 0 1-3.2-51Q72.7 1 102.6 1c29.2 0 47.7 20.4 46.1 50.5a47 47 0 0 1-8.3 25.6l-3.4 5.4c0 .2 2-.5 4.4-1.6 14.9-6.5 37.8-1.1 49.6 11.8 8.7 9.5 12 18.5 12 32.8.1 20-8.2 33.5-25.8 41.8-6.4 3-7.3 3.2-18.8 3.2h-12l-9.7-4.8a65 65 0 0 1-18.2-12.8l-8.5-8.1.6 4.8c3.1 27.8 11.1 47.3 24.8 60.3 2 1.9 3.3 3.8 3 4.2-.5 1-72.4 1.2-72.4.3" style="fill:#a9b3cd"/><path d="M73.5 205.5C85 190.2 92.5 171 93.7 152l.5-8.5-6.1 6.7a75 75 0 0 1-25 17.7c-17.7 7-38 3.3-49.8-9.2-8.4-8.9-12.3-19-12.3-32.2Q1 104.7 14.7 92A50 50 0 0 1 62 81.5a13 13 0 0 0 4.6 1.1c.2-.2-1.2-2.8-3.2-5.7a51 51 0 0 1 5.2-62.6 49 49 0 0 1 65.4-1.6 51 51 0 0 1 6 64.6 39 39 0 0 0-3.7 5.7l3.8-1.5a47 47 0 0 1 38.5 2.5c16.7 8.2 25.3 24.2 24 45a41 41 0 0 1-16.4 32.6c-8.2 6.7-14.8 8.8-27.8 8.8-9 0-12-.4-16.7-2.3-8-3.2-17.2-9.4-25-17.3l-6.8-6.7v3.3c0 5 2.8 20 5.2 28.1a94 94 0 0 0 20.1 35.3l3 3.2H67Z" style="fill:#7984a0"/><path d="M70.7 209.3c14.4-17.5 21.1-34.7 23.7-61 .3-3 .2-5.3-.2-5.3s-2.3 2.1-4.2 4.6A67 67 0 0 1 55.9 170c-3.3.7-9.4 1-14.7.8-7.9-.4-10-.9-16.5-4C8.5 158.6 0 142.6 1.4 123c1.5-20.9 11.8-34.7 30.1-40.6a52 52 0 0 1 36.5 1s-1.7-2.8-3.9-6A53 53 0 0 1 56 38.7c2.7-13 12.1-26.2 22.8-32 10-5.4 24.5-7.1 35.6-4.2 21.9 5.7 34.1 22.3 34 46 0 12.6-2.6 20.4-10 30.9q-3.8 5.2-1.7 4a45 45 0 0 1 20-4.4c25.6 0 44 17 46.1 42.7 1.5 19-7 35.5-22.4 43.6-20.6 10.7-42.9 5.7-62.9-14.1l-7.4-7.4v4c0 6 2.7 20 5.6 29.4a83 83 0 0 0 19.3 33l3.5 3.8H66.8Z" style="fill:#646f8d"/><path d="M72 208a96 96 0 0 0 20.3-43.5c1.6-8.3 3-21.5 2.4-21.5-.2 0-4.6 4.2-9.8 9.3C71.2 165.8 60 171 44.5 171c-12.5 0-22.3-4-30.6-12.2A49 49 0 0 1 14 93a50 50 0 0 1 48-11c3.4 1 6.1 1.8 6.1 1.6s-1.6-2.7-3.5-5.7A51 51 0 0 1 63 22c18.3-28.6 64.7-27 79.7 2.7a48 48 0 0 1 5 27 44 44 0 0 1-8.9 26.8 30 30 0 0 0-3.6 5.6c.3 0 2.6-1 5.2-2.1 6-2.6 18-3.6 25.8-2a45 45 0 0 1 35.8 38.2 44 44 0 0 1-36.9 52c-16.1 2.4-31-3.3-46.4-18l-9.1-8.6.6 8.5a96 96 0 0 0 23.5 57.2l4.5 4.8H66.9Z" style="fill:#21346d"/><path d="m69.1 212 5.6-7.2c2.3-3 6-8.7 8.3-12.8s3.9-6.6 3.5-5.5c-1.2 3.6-7.4 14.2-12 20.2l-4.3 5.8 31.1.5 31.2.5-32.4.3c-31.8.2-32.3.2-31-1.7m64.6 1.4q1.1-.7-3.2-6c-2.4-3-5-6.4-5.6-7.6q-1.2-2-1.6-1.1c-.2.6 1 3.1 2.8 5.6 3.5 5 3.3 6.5-.9 6.6-22 .5-36.5.4-37-.3-.2-.4-1.7-.6-3.2-.3-1.5.4-4 .3-5.4-.1l-2.7-.7 2-2.2c1.2-1.2 2.1-2.7 2.1-3.3q.1-.9 1.1-1 1-.2.6-2c-.7-2.6 1.4-7.1 3-6.6q1.1.5.7-1c-.3-.7.6-3.7 2-6.7a45 45 0 0 0 3.1-7.8c.6-3.2 3.4-10.7 3.5-9.4q0 .8 1-.5.9-1.5-.3-3-1.5-1.5 0-.6 1.4.9 1.3-3l.4-11.7c.4-7.7-1-11-1.7-4l-.4 3.8-.1-4.3-.2-4.2-9.2 9.3a63 63 0 0 1-16.4 13c-8 4.2-11.3 5-4.4 1.1 4.6-2.6 4.3-2.5-4.5.6-8 2.9-18.3 3.2-27.2 1-9-2.3-8.6-2.3-7.8-1 1.8 3-7.7-3.5-12.1-8.2Q5 148.9 3.6 141q-.6-3.6 1.5 2.3c1.1 3.1 2.5 5.7 3 5.7q.8.1.9 1.4c0 2 8.7 11.4 12.2 13.2 4 2 4.8 1 1.1-1.2l-3.1-2q-.4-.3-.6-2-.4-1.8-2-1.6-1.6.3-1-1.2.4-1.3-.7-2.2-1.3-.8-.4.7.6 1.1-1.4-.5c-4-3.5-7.3-11.5-6.7-16q.7-4.8-.4-1.6-1.3 3.6-.6-.7c.1-1.8 0-3.3-.4-3.3-2.1 0 .6-24 3-26.4a4 4 0 0 0 1-2.6c0-.8-1.2.5-2.6 3q-2.2 4-1.8 2c1.9-7.5 11.6-18.5 19.9-22.5 14.2-7 28-7.2 44-1 2 .8 2 .7-.1-1.6a61 61 0 0 1-13-30.7A52 52 0 0 1 61 26 50 50 0 0 1 78.8 7c6-3 6.5-2.5.7.8a71 71 0 0 0-8.4 5.8l-3.4 3 3.3 3.1c1.8 1.7 3.7 2.9 4.3 2.5q1.2-.7-.1-1-1.1-.6-.6-1.5t-.4-.4c-.6.3-1.8-.1-2.7-1-1.5-1.6-1.5-1.9 1.2-4 2.5-2 3-2.1 4-.7q1.1 1.5.6 2.6-.4.9.5.3 1.3-.7.2-2.6c-.8-1.5-.5-2.2 2-4a11 11 0 0 1 4.2-2c.8 0 1.8-.3 2.2-.7q.8-.8 1.7-1 .8 0 1.2-.3c1.2-1 16-2.3 15.4-1.3-.3.4 2.2.9 5.5 1 7.6.2 10.4 1.2 6.8 2.4q-3 1 1.3.3c2-.3 3.7-.1 3.7.3s1 1 2.2 1q2.1.3 2.6 1.3t1.6 1c2 0 7 5 10 9.9a47 47 0 0 1 7 26.3c0 5.3.3 9.4.6 9.2s.8-4.4 1.1-9.2l.7-8.7-.3 10.5c-.1 5.8-.8 11.6-1.4 13q-1.5 3.8-.7-.7c.6-3.8-.9-4.5-1.8-.8l-.7 3-1.4 4c-1.9 4.4-1.9 5 0 3.5 2.8-2.3 1.5.5-3 6.5l-4.5 6.1h2.4q2.1-.1 2-.7c-.7-1.2 7.9-4 14.2-4.6A49 49 0 0 1 190.4 93a46 46 0 0 1 10 18.5q.6 3-1.1-1.5c-2.8-7-6.6-13.6-7-12.2-.3.7 0 2 .7 2.7s.9 1.9.6 2.4q-.6 1 1 1.9c2.5 1.4 5.1 11 5.3 19.5s-2.7 21-5.8 24.5a19 19 0 0 0-4 7c0 .4 1.3-.9 3-2.8q2.7-3 2-1.5a37 37 0 0 1-5.8 6.5c-2.6 2.5-3.5 3-1.9 1.3 3.8-4.3 2-4.2-3 0a33 33 0 0 1-11.9 6.4c-.5 0-2.3.6-4 1-5.1 1.6-20.5.8-25.5-1.2a71 71 0 0 1-23.4-16 63 63 0 0 0-7.6-6.8c0 1.7 7 8.8 13.5 13.8a75 75 0 0 1 7.5 6.2c0 1.5-7.7-4.5-14.9-11.4a177 177 0 0 0-8.7-8.3c-.2 0-.1 3 .1 6.8l.4 6.7-1.3-7c-1.2-6.3-1.3-6.6-1.5-2.8 0 2.3-.6 4.5-1.1 4.8q-1.2.6 0 2c.5.6.7 1.5.3 1.8s0 2.2 1 4c1.4 3 3 8.6 4.2 14.7.3 1.4 1 3.8 1.7 5.4 1 2.4 1.3 2.6 1.8 1.1.5-1.3 1-.5 2.4 3.1a85 85 0 0 0 13.7 23c5.2 6.5 5.7 7.4 3.7 7.3q-2-.1-1-.5M86.5 202q-.5-.9 1-1 1.3 0 1.5-1-.2-.9-1.5-1t-1.5.4l-.6 2q-.4 1.5.6 1.6 1 0 .5-1m32.8-11.8c-2-4-3.9-7-4.1-6.7a61 61 0 0 0 6.1 13.3c2.4 3 1.4 0-2-6.6m-15-4.4q-.5-.6-1.7.5-1.2 1-1 2 .6.4 1.8-.6t1-2m-3.7-4q.6-1-.4-.4-1.1.6-1.2-.4t-1-.5-1 1.6c0 1.3 2.7 1.1 3.6-.3m-19.4-27c2.9-2.6 5-5 4.7-5.2s-2.4 1.2-4.6 3.3c-2.3 2-5.8 4.9-7.7 6.2s-3.6 2.8-3.6 3.2c0 1.4 5.7-2.5 11.2-7.5m7.8-8.3q1-1.4.2-1.5-.9.1-1.6 1.5-.5 1.4-.2 1.5.5-.1 1.6-1.5m14-2q-.1-.7-1 .5-1.1 2-1-.3-.1-1.6-1-1.2-1 .6.1 2.7c.9 1.7 1.3 1.8 2 .7.5-.8.9-1.9.9-2.4m-90.6-46c1.3-2 2.3-2.4 4-2q2.4.8.6-.4c-1.3-.9-1.2-1.3.6-2.8 3-2.8 8.5-6.5 9.7-6.7l7.2-2.1c3.9-1.2 9.1-2 14.7-2 4.8 0 8-.3 7-.7a52 52 0 0 0-37.8 8.7c-3.7 2.9-10 10.5-8.6 10.5.5 0 1.7-1.1 2.6-2.5M188.3 92a42 42 0 0 0-17.8-9.2c-1.6-.2-3.3-.6-3.6-1-1-1.4-13.1-2-17.4-1-3.4.8-2.6 1 5.7 1 5.4 0 10.3.4 11 .9s1.8.8 2.3.8c1.8.2 6.8 1.8 9 3a53 53 0 0 1 12.4 8.7q1.2 1.6 2 1.3c.3-.4-1.3-2.4-3.6-4.5M67.6 78.5Q66.1 76.9 66 76c0-.5-.9-2.4-2-4.2-1-1.8-2-2.6-2-1.7 0 2 6 11.3 6.7 10.6q.3-.7-1-2.2m70.7-1.5c1-1.7 1.3-3 .8-3q-1 .2-1.1 1.5 0 1.3-.9 1.5t-1.5 1.5c-1 2.6 1 1.6 2.7-1.5m-78-14.2a40 40 0 0 1-1-24.5c1-2.4 1.3-4.3 1-4.3q-.6 0 .5-1.2c.7-.7 1.2-2 1.2-3q.1-1.7 1-1.8t1-1.5 1.4-1.5q1.4 0 .9-2-.4-1.8.6-2t1.1-1.6c0-4.7-7.7 8-9.8 16.1-2.6 10-2 21 1.3 29.1 2 5 2.5 4.1.8-1.8M70 26.5q1-1.4.2-1.5-.9.1-1.6 1.5-.5 1.4-.2 1.5c.2 0 1-.7 1.6-1.5m10.2-3c-.6-3.1-3.2-3.3-3.1-.2q-.1 3 .8.3c.7-1.9.8-1.9 1.3.2.8 3 1.6 2.8 1-.3M70.5 22q.4-1-.4-1-1 0-1.1 1 0 1 .4 1t1.1-1M83 18q-.1-.9-1.6-1-1.3.1-.9 1 .6 1 1.6 1 .8 0 .9-1m18-9.4q-.1-.6-1-1.1-.9-.4-1 .4.1 1 1 1.1 1 0 1-.4m11.7 163.7c-1-3.2-1.9-7.8-2.1-10.3-.6-4.8-.5-4.6 2.5 7.4 2.2 9.2 2 11.4-.4 2.9m-22 1.2 2-8.5 1.3-5.5-.5 5.1c-.2 2.8-1 6.6-2 8.5-1.5 3.3-1.5 3.3-.9.4M35.4 170a66 66 0 0 1 14.4.6c.8.7-11.4.2-14.4-.6m19.5-1c3.4-1.1 6-1.1 3.5 0-1.1.5-2.9.8-4 .8q-2.5 0 .5-.8m96.3.3c1.5-.2 4-.2 5.4 0 1.6.2.3.4-2.7.4s-4.3-.2-2.7-.4m15.2-.7 9-2q1.5-.5-1.5 1c-1.9.9-6 1.8-9 2-5.5.4-5.5.4 1.5-1M28 168c-1.8-1.2-.2-1.2 2.5 0q2 .9.5 1c-.8 0-2.2-.5-3-1m114.5-.5c-3.9-1.7-2-1.8 2.5 0q3.1 1.2 2 1.4c-.8 0-2.8-.6-4.5-1.4m-7-3q-3-2.2.5-.4 4.3 2 2.4 1.9c-.6 0-1.9-.7-3-1.6m42.5 1.1q.1-.4 1.6-1 1.3-.5.9.4c-.6 1-2.5 1.4-2.5.6M94.3 155c0-2.5.2-3.5.4-2.2s.2 3.2 0 4.4-.4.3-.4-2.2m102.3-7.3q.6-1.6 1.2-1.2.4.5-.7 1.8-1.4 1.5-.5-.6m1.4-3.2a6 6 0 0 1 1-2.5q.9-1.2 1-.5a6 6 0 0 1-1 2.5q-.9 1.2-1 .5m2.2-6c0-1.1.4-3.3.8-5q1-4 .8-.5c0 1.4-.4 3.6-.8 5q-.9 2.9-.8.5M2.2 134q0-3.1.5-1.7c.2 1 .2 2.5 0 3.4q-.5 1.3-.5-1.7m0-15q0-3.1.5-1.7c.2 1 .2 2.5 0 3.5s-.5.1-.5-1.8m199-.5q.1-3.5.5-1.7c.2 1.2.2 3 0 4s-.5-.1-.4-2.3M3.3 113q0-2.3.5-1.2c.2.6.2 1.8 0 2.5q-.5.8-.5-1.3m143-76q0-2.2.5-1.2c.2.6.2 1.8 0 2.5q-.5.8-.5-1.3m-4-11.4a45 45 0 0 0-16.1-17 46 46 0 0 0-26.5-5.3c-5.5.3-11.2.8-12.6 1q-2 .5 2-.9c3.3-1 7.5-1.4 15.5-1.2 10.3.3 11.5.6 18.7 4a41 41 0 0 1 19.4 18c1.4 2.8 2.4 5.2 2.1 5.4s-1.3-1.6-2.6-4" style="fill:#1e3270"/><path d="m69.1 212 5.6-7.2c2.3-3 6-8.7 8.3-12.8s3.9-6.6 3.5-5.5c-1.2 3.6-7.4 14.2-12 20.2l-4.3 5.8 31.1.5 31.2.5-32.4.3c-31.8.2-32.3.2-31-1.7m64.6 1.4q1.1-.7-3.2-6c-2.4-3-4.9-6.3-5.5-7.4q-1-1.7-2.5-1.4-1.3.5-1.5-.6 0-1 1-.5 2 1.2 0-2.6-1.2-2.2-2.4-1c-1.6 1.4-3.8-.8-4.1-4.2l-.4-2.8q-.2-.7-2.2-1.2-2.2-.4-1.8-3.4v-4.8q0-2.5-1.1-.5-1.2 1.7-.4-1.2.6-2.7-.4-2.8c-.6 0-.8-1-.4-2.2q.4-2.1-.6-1.4-1.1.7-.7-3.5c.5-4.8 1.5-6.5 1.5-2.5 0 1.4.6 4.2 1.4 6 .8 2 1.2 3.7.9 4-.4.3.2 2.4 1.2 4.7 1.5 3.2 2 3.7 2.5 2.4q.6-2.1 2.4 3.1a85 85 0 0 0 13.7 23c5.2 6.5 5.7 7.4 3.7 7.3q-2-.1-1-.5m-13.7-21c0-.9-4.2-9.4-4.7-9.4q-.3.2.3 2.3c.4 1.2.8 2.9.9 3.7.1 2 1.4 4 2.6 4q.8 0 .9-.5M94.5 198q-.6-1-.2-1.5.4-.3 1 1c.7 1.8.1 2.1-.8.5M84 195.6q.1-1.5 1-1.6 1 0 1 1t-1 1.5q-.9.5-1-1m2-4c0-.7.6-1.9 1.4-2.5 2-1.6 3.2.5 1.6 2.4s-3 2-3 .1m3-1.6q0-.9-.4-1-.5.1-1.1 1-.4 1 .4 1 1 0 1.1-1m19.8 1c-.7-1.1-2.4-2-3.8-2q-2.8 0-1-1 1.3-.8 3.1 0 1.8 1 2.2-.3.6-1.4.6.1.2 1.1.9.8.8-.3 2 .3t-.8 2.4c-1.9 1.6-2 1.6-3.2-.3m-5.8-6q-1.2-.8-1-1.4.6-.3 2 .4 1.3.8 1 1.4-.6.3-2-.4m3-.6q.2-1.7.7-.6t-.1 2q-.5.4-.5-1.4m-1-4.4q-2-1.1.3-1 1.6 0 1.7 1c0 1.2-.1 1.2-2 0m7.7-7.7c-1-3.2-1.9-7.8-2.1-10.3-.6-4.8-.5-4.6 2.5 7.4 2.2 9.2 2 11.4-.4 2.9M101 176q-2-1.1.3-1 1.6 0 1.7 1c0 1.2-.1 1.2-2 0m-10.4-2.5 2-8.5 1.4-5.5-.5 5.1c-.2 2.8-1 6.6-2 8.5-1.5 3.3-1.5 3.3-.9.4m3.2-2.1q.5-2.1 1.7-1.8c1.5.6 1.5-1.2 0-3.5q-.7-1.5.3-.7 1 .5 1.4-2.6c.3-1.8.5-.5.5 3 .1 4.5-.2 6-1 5.5q-1-.6.2 1c1.2 1.5 1 1.7-1.1 1.5-2-.2-2.4-.7-2-2.4m5.2.6q.2-.9 1.5-1 1.3.1 1.5 1-.2 1-1.5 1t-1.5-1m-63.5-2a66 66 0 0 1 14.4.6c.8.7-11.4.2-14.4-.6m19.5-1c3.4-1.1 6-1.1 3.5 0-1.1.5-2.9.8-4 .8q-2.5 0 .5-.8m96.3.3c1.5-.2 4-.2 5.4 0 1.6.2.3.4-2.7.4s-4.3-.2-2.7-.4m15.2-.7 9-2q1.5-.5-1.5 1c-1.9.9-6 1.8-9 2-5.5.4-5.5.4 1.5-1M28 168c-1.8-1.2-.2-1.2 2.5 0q2 .9.5 1c-.8 0-2.2-.5-3-1m5.4-1.1c-8.3-2.2-8.7-2.2-7.9-.8 1.8 2.9-7.7-3.6-12.1-8.3Q5 148.9 3.6 141q-.6-3.6 1.5 2.3c1.1 3.1 2.5 5.7 3 5.7q.8.1.9 1.4c0 2 8.7 11.4 12 13.1q5.6 3 2.9-.2-1.8-2 .2-1 1.7.4 2.8-.6 1.2-1.3 1.1.9 0 2.1 1.4-1 1.2-3.2 2-1.7a2 2 0 0 1-.3 2.4c-.6.6-1 1.6-1 2.1q0 .9 1-.7t2.1-1q1 .4.4-.5-.8-1.2 2.8-1.2 3.8.1 3.6-1.6 0-1.3-.9-1c-.5.3-2 0-3.4-.7-2.3-1.2-2.4-1.8-2.3-8.2a32 32 0 0 0-.6-8.7q-1-1.7 1.3-3.6 2.2-2.1.8-2.7-1.2-.9-.4.5t-.4.6c-1.3-.9-1-3.7.4-4.8q.8-.7-.7-.8-1.6.1-1.9 1.2 0 1-.9-.7-.8-2 .9-3.4 2.2-1.7 0-.8-1.6.4-1.6-.6l-.2-3.2c-.3-1.7-.4-1.7-1.1.5s-.8 2-1-1.5q0-4.5-1.1-2.5-1.3 1.8-.6-.7.4-2.1-.4-2.3c-1.6 0 .3-3 2.3-3.6 1.1-.3 1.7-1 1.1-1.3s-.9-1.5-.8-2.5c0-2 1.8-2.1 12.5-1.4q5.9.4 7-2.4c.4-1.3.4-3 0-3.9q-.8-1.6.1-2.6 1.1-1.2 0-1.7c-1.5-1-1.4-3.7.1-3.3q1.3.1 1-2.6-.2-3.2 1.4-2.3l2 .6q.4.1.4 1-.2 1-1.2.4-1.3-.8 0 1c2 2.2 3.1 2 2.5-.4q-.4-1.9.6-2 1.1.1.7.8t.9.9q1.3 0 .9-.9-.3-.7 1.5-.8 2 .1 2.1 1t2 1q2.7 0 2.1 3.3 0 .7.9.8c3.4.4 4.5.2 4.2-1q-.6-1.8 1.5 0 1.6 1.1 1 .5c-1-1.2 1.2-4.8 2.4-4q1 .6-.2 2-1.6 1.7.6.8 1.9-.8 1.1.4-.6 1.1.2 1.2c.7 0 1-6.1.3-7.8 0-.1-1.4.4-3 1.3-2.8 1.4-3 1.4-4-.3q-1-1.5-1-.9-.2.7-1.7-.8c-1.3-1.2-2-1.3-3-.4q-1.7 1.5-.7-.7 1-2.4-1-.5-2.2 2-1-.5c.5-1.6.1-1.5-2.2.6q-2.5 2.2-2.2 1.4c1-1.7-2-2.6-4.4-1.4q-1.7.9-1.9.3c0-.5-1.4-.9-3.1-1q-3 0-1.8.8c1.7 1 1.2 1.4-2.6 2.3-2.7.6-2.8.5-1.3-.7 1.9-1.5 1.4-2.7-1-2.7q-1.1 0-.7 1t-1 .4c-2.4-1-1.7-2.4 1.2-2.5l7.3-.4c2.5-.2 6 .3 7.7 1 1.8.8 3.5 1 3.8.5.9-1.4-5.5-3-11.9-3-12.7 0-26.8 6-34 14.2-4.8 5.5-5.5 8-1 3.4 2-2 3-2.4 4-1.5q1.4 1.2 1.4.1-.2-1-1.2-1.5c-1-.4-1-.7 0-1.8 1-1 1.4-1 2.4.3.7.9 2 1.8 2.8 2.1q1.5.6-.7.6-2.1.2-2.3 1.1.1 1 2.4.4c2-.5 2.3-.3 1.9 2-.3 1.4-.9 2.4-1.3 2-.5-.2-1.6.3-2.4 1.2-1.4 1.3-2 1.4-3.3.3q-2-2-1 1.1.6 2.3.1 1.2c-.7-1.6-4.2-1.6-5.8 0s-3 8.8-1.8 8.8q.8.1.9 1.4t-1.2 1q-1-.3-1.2 1.4 0 1.6 1.8 2c4.3.4 4.8.6 5.4 2q.8 1.5-1.8.6a6 6 0 0 1-2.9-1.8q-.7-.9-1.4-.3c-1.3 1.3-1.3 4.1 0 5q1.2.7-.1.7c-.7 0-1.3 1.1-1.3 2.5q-.1 2.3-.8 2.5c-2.3 0 .3-23.9 2.8-26.4a4 4 0 0 0 1-2.5c0-.9-1.2.4-2.6 2.9q-2.2 4-1.8 2c1.9-7.5 11.6-18.5 19.9-22.5 14.2-7 28-7.2 44-1 2 .8 2 .7-.1-1.6a61 61 0 0 1-13-30.7A52 52 0 0 1 61 26 50 50 0 0 1 78.8 7c6-3 6.5-2.5.7.8a71 71 0 0 0-8.5 5.9c-3.3 2.8-3.3 3-1.7 4.7 1.7 1.6 1.7 1.8 0 3-1 .7-2.2 1-2.7.7q-.9-.5.2-1t1.2-2c0-2.6-3 .7-6.2 7.2a48 48 0 0 0-3.3 35.3c1.8 6.3 3.7 8 2.3 2a49 49 0 0 1-1.2-6.2c0-1.1-.4-2.5-.8-3a29 29 0 0 1-.5-11.5l.6-3.3q.2-.7 1.1-.2 1 .7.5 1.6-.5.8.5.9c1 0 .9-1.5-.8-6q-.3-1.1 2.1 1.4c2.2 2.4 2.5 3.2 1.5 4.5q-1.6 2 .2.4c1.9-1.7 3.5-1.7 2.1 0q-.9 1.3-.3 2.1.5.6-.8.4c-1.1-.2-1.5.7-1.6 4-.2 4.2.4 4.8 4.4 4.3 2-.3 1.4 1.6-.8 2.2q-1.9.4-1.4-.5t-1.2-.6a3 3 0 0 0-2.2 2.2q-.4 1.7.7 1.2 1-.5 1.1.8 0 1.5-1.5 1t-1.5 1q.2 1.7 1.5 2.2c.8.4 1.5 1.5 1.5 2.5s.4 1.9 1 1.9q.8.2.5 2-.3 2 1.1 2 1.4.1 1.2 1.6-.3 2.5 5.4 2.5 1.6.2 1.8 1.7c0 1 .5 2.4 1.1 3.2q1.4 2 .5-.2-.3-1.7.4-2.3 1-.4 1 2c0 1.3.5 2.5 1 2.5q1-.1.5-1t.4-1q1 .2 1.1 2c0 2-1.9 2.3-3.3.5q-.7-.9-2 .8c-.8 1-2 1.7-2.6 1.7q-1 .1-1.1 1 .2 1 2 1c1 0 2.2-.4 2.5-1 .8-1.3 4.5-1.3 4.5 0q0 1-1 .5t-1 1.7q0 2.5.9 1 .8-1.4 1.2-.3t1.9 0c1.3-.8 1.3-1 0-1.8q-1.4-1-.3-2.3c.6-.7 1.3-2.4 1.6-3.8q.5-3.4.6.6 0 3.3 2.2 3.7 2 .6 1.6-.7-.6-1.3 1.9-.8t2.4-1c0-2.4 2.8-3 4-.9q.7 1.7.3 2.5c-.3.3 1.4.6 3.8.6q4.4 0 3-.9-1.6-.9.4-1.5 1.6-.4 2.7 0 .9.4.7-.7c-.3-2.9.3-4.3 1-2 1 4 3 3.7 2.5-.3-.2-2 0-3.6.6-3.6s1 1.7 1 3.8c0 3.6 0 3.6 1.3 1.3.6-1.3 2-2.5 3-2.7q1.6-.2 1.3.3c-1.1 1.2 1.5 3 3.4 2.6 2.7-.7 2.6-4.3 0-4.3q-2.2 0-1.8-1.7t2.2-1.8c1 0 2.2-.7 2.4-1.5q.9-2-1.1-.1c-1.5 1.2-1.7 1.1-1.7-.3q0-1.5-1.2-1-1 .7-.4-.5.8-1 2-.4c1.6 1 5.7.3 8-1.4q2.4-1.6.4-1-1.7.7-1.1-.9c.7-1.9 4-1.3 3.4.7l-.4 2.6q0 1-.6.8c-.4-.2-1.7.2-3 1-2 1-2.1 1.3-.6 1.9q1.7.4 2.6 0 1-.3 2.3.5 1.4 1.5.9-1.6-.8-3.6 1-1 1.3 1.8 2.5.5c1-1 .7-1.5-1-2.5q-2-1.1-1.2-1.3c.6 0 1-1.2.8-2.7q-.5-3.7.6.4c.6 1.8 1.6 3.2 2.3 3q1.1-.1 1 2.2-.6 2.9 1.2 1.1c2.8-2.3 1.5.4-2.9 6.3-2.4 3.2-4.8 5.7-5.2 5.5q-.8-.3-.7-1c.4-1.1-1.5-1-2.1 0-1.1 1.8 2.1 3.4 4.4 2.2 1.1-.6 2.6-.8 3.2-.4q1 .6.5-.3c-1-1.6 6.7-4.3 13.9-5A49 49 0 0 1 190.4 93a46 46 0 0 1 10 18.5q.6 3-1.1-1.5c-2.6-6.4-6.3-13.3-7-12.6q-.4.6.3 2.3a13 13 0 0 1 1.3 5.1q.1 1.1 1.1.7t1 .4q-.2 1-1.5 1.1t-1.5 1-1 .5q-1-.6-1-1.6t1-.4q.9.5 1-1-.1-1.4-1.1-1.5t-.6-1.4c.6-1.5-1.9-5.6-3.4-5.6q-.9 0-.3 1.2.8 1-.6.3c-2.3-1.4-6-1.2-7 .5q-1.1 2-1 0 .1-2.2-5-1-.3.1 1 1 2 1.1-.3 1c-1.6 0-4.7-2.1-4.7-3.3 0-.2 2.1-.5 4.8-.5 9.3 0 14.7-.4 13.4-.9q-1.4-.5-.2-1.8c.9-1 .1-2-3.2-4.2a64 64 0 0 0-7.8-4.5c-4.2-1.9-10.2-3.3-8.1-2q1.4 1 .2 1.6-1 .5-1.1-.3c0-1.3-2.2-1-3.3.4q-.8.9-.4-.5c.2-.8 1-1.4 1.6-1.2q1 0 1.1-.7c0-1.5-10.8-2.4-16.3-1.4l-5.2 1h6.7c3.7 0 7 .2 7.4.6q.5.7-1.9.7c-1.4 0-3 .5-3.3 1.2q-.8 1.3 1.1.4c1.8-.7 1.8-.6 0 1.4q-1.9 2-.5 2t.3 1c-.6.7-3 1.2-5.4 1.4-2.4 0-5 .5-5.6 1q-1.2.7-.7-.8c.8-2 .4-2-3.2-.1q-2.6 1.4-1.7 1.5 1.1.1.6 1.6-.5 1.9-1.4.2-.9-1.5-.9 1 0 2.1 1.7 2.3 1.9 0-.7 1c-1.4.6-3.3.8-4.2.5-2.7-.6-2.2.3.7 1.4q2.3 1 2.5 2c0 1.3-1.3 1.3-2.7 0q-1.1-1.3-1.8 0t.3.6q1.1-.5 1.2.3 0 2.8-1.4 2.3-.7-.2.2 1c.9 1.1.8 2-.4 3.6-1.4 2-1.4 2.4 0 4.4 1.6 2.3 1.6 2.3 1.3-.8-.2-1.6.4-4.5 1.5-6.4q1.8-3.4 1.8-1.6-.1 2 1.3.8t1.3.7q0 1.8-2.1 1.3-2.1-.3-2.2 1t3.4 1c1.8-.2 3-.8 2.7-1.3q-.4-.8.6-.7 1.2.2 1.5-1.5c.2-1 .7-2.2 1-2.5q.7-.5.2 1c-1 2.8 5.1 5.5 8 3.5 1.9-1.3 5.3-1.7 5-.5q0 1 2.5 1.3 3.2.3 1.7-1.1-1.3-1.4 1-1.1 2 .1 2.1 1.2 0 1 .8-.1.7-1.2 2.6.8c2 1.8 2 1.8-1.5 1.7h-11.8q-8.5 0-9.3-1.1-.8-1.5-.8 0 0 1.1-4.3 1.2-4.4 0-2.7 1c1.6 1 1.5 1-1.5 3q-2.2 1.2-.3.6 1.8-.5 1.8 1c0 1.4.2 1.4 1.6 0 1.9-2 3-2.1 1.5-.3q-.9 1.4-.3 2.1.5.7-.3.6c-2.2-.5-3.6 0-3 1.1q.5 1-.6 2-1.5.8-.2 2c.8.8.8 2-.2 5-1.3 3.7-1.3 3.9.7 3.9q2 0 1.4 1.6c-.3.8.1 2.9 1 4.6q1.8 3.3.2 2.6-1.2-.6-1.4-1.6l-.3-2.2c-.1-1.1-3.1-.1-3.1 1q.1.8 1.5.4 1.5-.8 1 1c-.6 1.4-1 1.4-3 0-2.1-1.4-2.4-1.4-3.4.3s-1 1.7-1 0q0-2-2.1-1.4-1.8.4-1.4-.4.6-.8 2-.9c.8 0 1.4-1 1.4-2.2q-.1-2.7 1-.8.8 1.4.3 2.3-.3.8 1.3 0c1-.6 2.5-.8 3.1-.6q1.3.4 1.3-1.4 0-1.6-.8-.8c-1.3 1.9-5.8.3-4.7-1.6q.5-.7-1-.3c-.8.3-1.6 1.6-1.6 2.8q-.2 1.5-1.2-2.1c-1.2-5.3-3-5.7-2.2-.6.3 2 .3 3.4 0 3a12 12 0 0 1-1.2-4.1c-.4-3-.2-3.6 1.4-3.6q2.2.1.3-1-3-1.8-3 2.8 0 2.5-.8 1.5c-.9-1.4-2.6-.5-3.5 1.9-.8 2.1.3 3 2 1.6q1.2-1 2-.4.4.5-.5.6-1.1.2-1.2 2.3-.1 2.7 1 .7 1.1-1.9 1 1 0 3.3 1 .5 1-2.5 1-.3c0 1 .9 2.3 2 3q3.4 2.2.9 7-1 1.8-.2 1.5 1-.5 2.3.4 1.5.9.2.9-1 .1-1.2 1 0 1 .7.9 3-.5 1.2 1.9-1.5 2 0 .5 1.4-1.2 3.2-.3 1.8 1 2.5-.2.6-1-.4-.4-1 .4-1.8-.5-.6-1.2.4-.5 1.2.7 1.2-2c0-2.3-.1-2.4-1.6-1q-1.6 1.6-2.2 1.2c-.3-.3.7-1.5 2.2-2.7 1.4-1.1 2.3-2.5 2-3.1q-.6-1 .4-.4 1 .4 1.5-1.1.5-2.2.6.3c0 1.2-.5 2.4-1.2 2.7-1.5.6-1.1 6.7.5 6.7q.7.2-1.2 2.2c-2.8 3-1.8 3.4 1.5.4 2-1.9 3.6-2.4 6.6-2.2 2.1.1 4.2.6 4.6 1q.7.7-.2.5c-.5-.1-2.3.1-3.8.6q-3 .8-1.5 1.6 1.5 1-.4.9c-2 0-2.4-2.6-.5-3.3q1-.5-.5-.6-1.8 0-1.8 1.9-.1 1.8-1.5 2c-2 0-2 1.6 0 2.4q1.4.4 1.2-.7 0-1 2.4-.9 2.7.2 3.2-1.2.7-1.5 2-1.6 1.2 0-.3 1-2 1.2 0 1 1.7 0 .2.8-1.2.9-.6 2.7.8 1.8-.3 1.2-1-.6-1.5.5-.7 2.3-12.8-4.8a91 91 0 0 1-20-18c0-.5.6-1.7 1.4-2.6 1-1.3 1.5-1.5 2.4-.6q1.3 1.5 1.2-.6c0-2.5-2.8-1.6-4.7 1.5-1.6 2.6-1.5 2.8 1.5 6.7 1.8 2.2 6.6 6.6 10.7 9.7a75 75 0 0 1 7.5 6.2c0 1.5-7.7-4.5-14.9-11.4a177 177 0 0 0-8.7-8.3c-.2 0-.1 3 .1 6.8l.4 6.7-1.3-7c-1.3-7-1.3-7-1.6-2.5l-.3 6.3q0 1.6-.9 1.7-.8-.2-.7-1.2.5-4-1.6-3.2-1.4.6-1.1 4c.1 1.9-.1 3.4-.6 3.4s-.8-1.2-.8-2.7q0-3-1-1.3-.8 1.4-.4 2 .2.8-1.1 2c-1.3 1-1.4.2-1-6.9.3-8-1-11.5-1.8-4.3l-.4 3.7-.1-4.3-.2-4.2-9.2 9.3a63 63 0 0 1-16.4 13c-8 4.2-11.3 5-4.4 1.1 4.6-2.6 4.3-2.5-4.5.6-7.5 2.7-19 3-27.1.9m8.4-2.4q-.6-.4-1.2 1.2-1 2 .5.6 1.1-1.2.7-1.8m13.9-2.7q-.5-1.1-.6.6t.5 1.3q.5-.6 0-1.9m88.8 1.2c-.3-.5-1.2-1-1.8-1q-1 0 .3 1 2.9 1.8 1.5 0M45 162q0-.9-1-1a1 1 0 0 0-1 1q.1 1 1 1t1-1m36.2-7.2c2.9-2.6 5-5 4.7-5.2s-2.4 1.2-4.6 3.3c-2.3 2-5.8 4.9-7.7 6.2s-3.6 2.8-3.6 3.2c0 1.4 5.7-2.5 11.2-7.5M63 159.4q0-3-2 .6c-.9 1.6-.8 1.8.5 1.4q1.4-.7 1.5-2m-11.6-2q.9-2-.9-.4-2.5 2-.6 2 .9-.1 1.5-1.6m7.6.6q0-.9-1-1a1 1 0 0 0-1 1q.1 1 1 1t1-1m-19-3.7q-.2-2.5-.7-1.5c-.4 1-.8 1-2 .1q-1.4-1.1-.3-2.4 1.2-1.4 0-2c-1.8-1.1-3.3 1-2.2 3.1.5 1 .7 2.4.5 3q-.4 1.2 1.6.7t2.1.6q0 1 .5 1.1c.3 0 .5-1.2.4-2.7m3.7-2.6q-.5-.8-.5 1.3 0 2.2.5 1.3c.2-.7.2-1.9 0-2.6m9.5 2.4q1.1 1.7.5-.1c-.4-1.5-4.7-2.4-4.7-1 0 1.2 2.4 1.8 2.9.7q.4-.7 1.3.4m6.4-.8c1.2-1.7 1.3-1.7 1.4-.1 0 1.3.9 1.7 4 1.5q3.9-.1 4-1.4-.1-1.2-1-1.3t-.7-1.2q0-1.2-1.8-1-2.8.3.3-1c1.8-.9 2.6-.8 4.1.6 1.1 1 2.6 1.6 3.3 1.3q1.3-.6-.4-.6-1.7-.1-2.3-1t1.7-.2c1.3.5 2.3 1.6 2.3 2.4q.1 1.6 1.4 3 1.5 1.3.7 0-.6-1.2.4-1.3 1 0 .6-.9t1.4-1.4c2-.5 2.8-3.7 1-3.7q-1-.1-.5-1t-.2-1c-2.6.5-3.5-.2-1.4-1.1 2-.7 2.7-.6 3.3.5q1 1.3 2.3 1c2.2-.9 1.8-2.4-.6-2.4q-2.2 0-1.5-1.5.5-1.4-.3-1.5-.9.1-2.1 1.5t-2.1 1.5q-.8-.1-.9-1.5c0-1.7.2-1.6-6.2-2-3.6-.2-4.8.1-4.8 1.1q-.1 1.3-1.9 1.4-2-.2-1.3 2.5c.4 2.6-1.2 3.5-2.2 1.3q-.5-1.3-.4.2c.3 2.8-1.3 6.2-2.8 5.6q-1.7-.8-.1 1.4c1.5 2.4 1.6 2.4 3.3.3m2.7-.3c.4-1.8 3.7-2.7 3.7-1q-.1 1-1.1.4c-.6-.3-1.6 0-2 .7q-1.3 1.7-.6-.1m16.2-4c-.3-.5-1.3-.6-2.2-.3q-1.5.6-1.1-.7c.7-2.2 2.2-2.2 3.6 0q1 1.8.8 2-.5 0-1-1M68 145.5q0-1.3 1.5-.9 1.3.7 1.5 1.5-.2.8-1.5.9-1.3-.1-1.5-1.5m-5-.6q.1-.8 1-.4 1 .6 1 1-.1.5-1 .5-.9-.1-1-1m-21.3 6a7 7 0 0 0-1.5-3.1c-1.7-1.7-1.6 1.8 0 3.7s1.8 1.8 1.5-.5m47.2-4.3q1-1.4.3-2-1-.4-1.5 1.4-1 3.5 1.2.6m14-2.1q0-.7-.9.5-1.1 2-1-.3-.1-1.6-1-1.2-1 .6.1 2.7c.9 1.7 1.3 1.8 2 .7.5-.8.9-1.9.9-2.4m-62.4-1c0-2-2.5-2.8-4.6-1.4q-1.6 1 .8.9 2 0 2.8 1c.3.5-.7.7-2.2.4q-3-.5-1.4.5c2.1 1.4 4.6.6 4.6-1.4m12.5.8c-.8-.4-2-1.3-2.5-2-.9-1.2-1-1-1.2.4q-.3 2 2.5 2 2.3 0 1.2-.4m69-2.8c0-1.7-.2-1.8-2.5-.9q-2 .6-.3 1.5 2.9 1.9 2.8-.6m-43.5-.4q.4-.9-.5-1.6-.9-.5-1 1 0 2.6 1.5.6m24.8-1.7c-.7-2-2.9-2.3-2.9-.5q.2 1.6 1.7 1.7 1.6-.1 1.2-1.2m-52.5-2q0-2.1-.6-2-.6.4-2-.7-1.8-1.5-.8 0c.6 1-.5 1.2-5 .7q-6.1-.7-4.9.4c1.3 1.4 8.6 1.9 10.5.7q1.5-1 .7.9-.6 1.6.3 1 1-.3 1 .5 0 1 .4 1.1.4-.2.4-2.5m5 .8q1.8 1.5.8 0-.5-1.1.4-1.2t.5-1q-.6-1-1.6-.5-.8.5-.9-1.3c0-1.6.6-1.9 3.2-1.6q2.8.2 2.5-.3c-.4-.4-2.3-.7-4.2-.8-3.2-.2-3.4 0-2.9 2.1q.6 2.3-.5 2.4-1 .1-.4 1.7.6 1.7 1 .5.4-1.5 2 0m16.7-2q.4-1.2-2.4-1.2c-1.6 0-3.1.5-3.3 1.2q-.5 1-1.9.2c-1.7-1-5.9-1.3-5.9-.3 0 1.8 12.8 2 13.5.2m20 0q-.5-.4-1.8.7-1.5 1.4.6.5 1.6-.6 1.2-1.2m3.9-1c-.7-2.9-2.3-4.4-3.6-3.6q-.7.4-.8-.3c0-.5 2.4-.9 5.2-.8 4.5 0 5.3.3 5.6 2q.5 2.3-.7.5t-1-.1q0 1.2-2.1.8-1.8-.4-2 .5c0 .5 1.7.8 3.8.6q3.7-.2 5.2 1.2 1.3 1.3.6.3c-.6-1 .2-1.3 3.5-1.4 6.9-.2 7-.2 8.3-3.4 1-2.3 1-3.3.2-4-1.7-1.4-3.6-1.7-3.6-.5q.1 1 1.4 1c1.2 0 1.4 1.7.6 4l-.1 1.3c.3 1.7-2 .5-2.9-1.6-.9-2.2-.9-2.2-1 0 0 1.7-.6 2-3.5 2-2 0-3.5-.4-3.5-.8 0-.6 2.7-2.1 4.2-2.3 1.6-.2 1.7-1.4.3-2.6q-1.7-1.6-1.5.3c0 .8-1.2 2.3-2.7 3.2q-2.6 1.6-2 1c.4-.5 0-1.7-1-2.7-1.4-1.6-1.5-2.2-.4-4 .7-1 .8-1.7.2-1.3q-1 .4-1.1-.9 0-1.4-1.8-1.1c-1 .2-2.5 0-3.3-.5-1.1-.8-1-1.2.6-2.4 2.2-1.7 4.1-1.5 3.7.3q-.1 1.1.8.6t.5-1.5c-1.1-1.8 1.9-2.2 3.2-.5 1.4 2 1.4 2 1.3-2.3 0-1.2-3.4-.8-4.5.6-.8 1-1.4 1-3-.3q-2-1.7-.8-2.1c2-.9-1.4-3.7-3.7-3.1q-1.8.4-2-.4 0-.8 1.2-.9 1 0 .5-.6c-.3-.4-1.3-.4-2.2 0q-1.7.4-.6 2.5c.8 1.3 1.8 1.7 3.8 1.3 2.6-.5 2.7-.4 1.3 1.3-1.7 2-1.7 2.4.2 3.7q1.5 1-.5.4c-1-.3-2.3-.6-2.8-.6q-.9-.2-1-1.7 0-2-.6-.4c-.3.8.3 2 1.3 2.8 3 2.1.3 3.6-7 3.7-3.5 0-6.3-.1-6.1-.4s-1.7-.5-4.1-.5-4.4.3-4.4.8q.2.7 1.5.7 1.3.1 1.5.8.2 1 2.5 2.2 2.5 1.5 2 3.1c-.5 1.5-.1 1.7 2.2 1.3 3.5-.7 4.3-1.4 1.5-1.4-1.2 0-2.2-.6-2.2-1.3q0-1.5 3.3-1l3.2.3-2.8-1a8 8 0 0 0-4.3-.3q-1.3.4-1.4-.6c0-1 1.4-1.5 3.4-1.2l6.2.2c3 0 5.1.5 4.8 1q-.4.8.5.9c1.7 0 1.3 1.7-.5 2.4q-1.2.5-1-.3.5-1-.5-1.7-1.1-.6-.6.2.5 1-.4 2.4-.9 1.5-.9.3c0-1.8-2.7-1.6-3.4.2q-.4 1.4.4 1.5 1-.1 1-1 .2-1 1.5.4c1.8 1.8 2 3 .3 2q-1-.4.5 1.2c1.5 1.6 1.9 1.7 2.7.4q1.1-1.9 1 1.3 0 2.6 1.5 2.7 1.7.2.9-2.7m.6-7.2q-1.2-.9-.7-1t-.7-1.6c-.9-.8-1.6-2-1.5-2.7q0-1.3.6 0c.2.7 1.5 1.3 2.8 1.3s2.7.5 3.1 1.2q.8 1-.6.3-1.5-1-.8 1.3 1.2 3.5-2.2 1.2m17 8.4q-.2-.4-2-.4t-2 1q.2.7 2 .3 1.8-.5 2-1m-35.6-.3c.7-1.1-1.4-2-3.2-1.3q-1.6.4 0 1.3 2.4 1.7 3.2 0m-29.6-3.7q2.7.8 1.3-.3-1.1-.9-.7-2 .5-.9-.4-1.6-.9-.4-1 1 .2 2-1.5.5t-1.5 0c0 .7-.8 2-1.7 2.7q-2.5 1.9.5.3c1.3-.7 3.6-.9 5-.6m21.9.2q-.4-1.4 1-2 1.2-.4.8.4c-1 1.5.1 1.2 1.5-.5 1-1.3.6-1.5-3.9-1.5s-5 .2-5 2.3 0 2.1.9.2q.9-2 1-.5-.1 1.9 1 .1.8-1.7 1.5.8c.3 1.1.9 2.1 1.2 2.1q.4-.1 0-1.4m-29.7 0q-.1-.4-1.6-1-1.3-.5-.9.4c.6 1 2.5 1.4 2.5.6m40-.6q-.2-.8-1.5-.4-1.3.7-1.5 1 .2.3 1.5.4 1.3 0 1.5-1m-3-2.6c0-2-1.7-1.7-2.3.5q-.5 2 1 1.4 1.2-.6 1.3-2m27.5-1c-2-1.4-3.1-1.2-2.1.4.3.5 1.3.9 2.2.9 1.5 0 1.5-.2-.1-1.4m27.8.3q1 .5.5-.2c-.4-.4-.3-1.4.3-2q1.2-1.5-.8-1-1.7.2-2 2.6-.2 2 .3 1.1.6-1 1.7-.5m-64.6-2.9q-.5-1.1-.6.6c0 1 .2 1.7.5 1.3s.4-1.2 0-1.9m-13.7-2q0-.9-1.5.2-1.3 1.2-1.5 1.6.2.2 1.5-.2 1.3-.7 1.5-1.6m3.3.5q-1-2.2 1-.5c1.7 1.5 3 .3 1.8-1.7-.7-1-1.2-1-3 0-2.4 1.6-2.8 3.9-.6 3.9q1.5 0 .8-1.7m50.7 1.1-.6-1.8q-.6-1.8-1.9-.3-1.1 1.2-1 1.8c.4.5 3.5.8 3.5.3m-38-2.3q0-1-1-1.6-.9-.4-1 .2-.2.9-2 1t-2-.8q0-.9-1-.4c-2.2 1.3-.8 2.5 3 2.5 2.2 0 4-.4 4-1m63.3-1.6q-.6-1.5-1-1.1-.4.6.2 1.5 1.7 2.3.8-.4M74.5 119q-1.7-1.7-2.8-1.3-1 .6-.3-1.2.9-2.2-.9-.5c-1.6 1.3-1 3.3.8 2.7.7-.2 1.8.2 2.5 1 2.1 2 2.7 1.5.7-.7m8.5.7c0-.7-1.1-1.3-2.4-1.3q-2.2.1-2 .8.6.7 1.5.3.8-.5.9.4t1 1.1q1-.1 1-1.3m-22-.1q0-.6-1-1.1-.9-.4-1 .4.1 1 1 1.1 1 0 1-.4m49.3-2.6q-.6-2-1-1.6c-.6.6.4 3.6 1 3.6.3 0 .3-1 0-2m-6.8-3.8q-.5-.4-1.8.7-1.5 1.4.6.5 1.6-.6 1.2-1.2m14.8-.9c-.7-.2-1.9-.2-2.5 0q-1 .5 1.2.5t1.3-.5m-28.4-2q1.3-2.1-1.2-2-2.5-.3-.7.7c1.3.9 1.3 1.1 0 2q-1.4 1-.3 1 1.3-.1 2.2-1.8m12.5-.4q-.6-.8-1.4-.4-.9.4-1.7-.9c-.7-1.2-1-1.2-2 0-1.2 1.2-1 1.4.6 1.4 1 0 2.3.5 2.6 1q.7 1 1.6.4.8-.6.3-1.5m8.3.5q-.2-1-1.9-.6c-2.7.7-3 1.7-.4 1.7q2.1-.1 2.3-1.1m-78.2-.4q.4-.9-.4-1-1 .1-1.1 1 0 1 .4 1 .6 0 1.1-1m82-.8q-.5-.4-1.8.7-1.5 1.4.6.5 1.6-.6 1.2-1.2m41.5-.2q-.1-.8-1.5-.4-1.4.7-1.5 1 .1.4 1.5.4t1.5-1m-98.5-1q.4-.9-.4-1-1 .1-1.1 1 0 1 .4 1t1.1-1m36.7-1.8q.4-2-1.3-3c-1.6-1-1.9-1-1.9.9q.1 1.7 1 1.4 1-.5 1 1c0 2 .7 2 1.2-.3m36.8 1.4q0-.6-1-1.1-.9-.4-1 .4.1 1 1 1.1 1 0 1-.4m-60.2-1.8c-.5-1.3-3.8-2-3.8-.8q.1.8 1.8 1.3l2 .6q.3 0 0-1m3-1.3q-.6-.4-1.2 1.2-1 2 .5.6 1.1-1.2.7-1.8m13.8 1.3q-.6 1.1.8 1.2c1.2 0 1.5-1.1 1.4-4.5 0-2.5-.4-4.5-1-4.5q-.7.1-.8 1.6.1 1.9-1.3.5-2.8-2.2-2 2.6.5 2.8-1.2 2-1.4-.5-1.5.3c0 1.4 3.3 1.8 5 .6q1.5-1.2.6.2m-1.9-3.7q-.8-2.4 1.3-.8 1.6 1.1 1.4 1.9c-.9 1.4-2.2.9-2.7-1.1m-6.3 3c-.8-.9-4.4-1.1-4.4-.3q.2.7 2.5.8 2.1 0 2-.5m32.7-4.4-2.4-2.2 2 2.7c1 1.4 2 2.4 2.2 2.2.3-.3-.6-1.5-1.8-2.7m-35.8 1a10 10 0 0 1-1.5-2.7q-.5-1.4-1.1-.3c-.4.6 0 1.9.9 2.7 1.8 1.9 3 2.1 1.7.3m19.1-1.5a5 5 0 0 1-1.7-2.2q-.6-1.5-.6.8t1.7 2.2q1.6 0 .6-.8m-2-4.2q1-.1 1.2-1.9c0-2.1-2.3-2.2-3.8 0q-1.2 1.6-.4-.3.4-1.7-.8-1.8-1.4 0-.9 2 .6 1.8 1.4 2 .9.1 1 1.8 0 2.4.6 0 .5-1.6 1.7-1.8m27.3 2.4c-.3-.3-1.2-.4-1.9 0q-1.1.4.6.5c1 0 1.7-.2 1.3-.5m71.3-2.3q-.1-.9-1.5-2.1-2.3-2.2-.9 1.4c.6 1.7 2.4 2.2 2.4.7m-75.7-2.8c-.7-.2-1.9-.2-2.5 0q-1 .5 1.2.5t1.3-.5M133 93q0-.9-1-1a1 1 0 0 0-1 1q.1 1 1 1t1-1m-50-.4q-.1-.5-1-1.1-.9-.4-1 .4.1 1 1 1.1 1 0 1-.4m9-2-1.9-2c-1.4-1.3-2-1.4-2.7-.5q-.6 1.1.3.6 1-.5 1.7.8c.4 1.3 2.6 2.2 2.6 1.2m2.4-1.2q.5-1.3-.4-.9t-1-.4q.2-1 1.5-1.1 1.5 0 1.5-3.2c0-3-.2-3.2-1.5-1.4-.8 1-1.2 2.3-1 2.7q.5.7-.8.3c-1.7-.6-1.9 2.5-.3 4.3 1.4 1.6 1.3 1.6 2-.3m44.2-.4q1.2 0 .8-1.5-.7-1.5-3.1-1c-3.6.6-4 1.3-1.7 3q1.7 1.2 2.2.4.4-.8 1.8-.9m-8.1-1q.4-.8-.3-1.4-.8-.4-.9 1 0 2.4 1.2.5m19 0q.5-.9-.4-1c-.5 0-1.3.5-1.6 1q-.5 1 .4 1c.5 0 1.3-.4 1.6-1m-4.5-1.6q-.1-.4-1.5-.4t-1.5 1q.1.8 1.5.4 1.4-.7 1.5-1m-32.2-2q-.6-.2-1.2 1.3-1 2 .5.6 1.1-1.2.7-1.8M152 84q0-.9-1-.4t-1 1.6q.1.9 1 .4t1-1.6M74.3 79c-.3-1.1-1.4-2-2.4-2q-1.7-.1-1.9-1t-1.1-.4q-1.2.7.1 1.4 1 .7.4 1.3c-.8.4-4.2-2.4-3.7-3a12 12 0 0 0-1.7-3.5q-1.8-2.9-2-1.7c0 .8 1.4 3.7 3.1 6.4 2.8 4.4 3.3 4.7 4.4 3.2q1.2-1.6 2-1.7.7 0 .2.7c-.9.8 1.3 3.4 2.3 2.8.5-.3.6-1.4.3-2.5m57.9-.2c-1-1-1.5-.9-2.4.1q-1.6 1.6.4.8 1.7-.6 1.8.5 0 1 .7.5.5-.8-.5-2m6.1-1.8c1-1.7 1.3-3 .8-3q-1 .1-1.1 1.6 0 1.3-.9 1t-1.4 1.4c-.8 3 .6 2.4 2.6-1M60.8 45.1q-2.4-.7-1.1 2.4c.6 1.8.7 1.8 1.3 0 .4-1.1.3-2.2-.2-2.4m81.7 122.4c-3.9-1.7-2-1.8 2.5 0q3.1 1.2 2 1.4c-.8 0-2.8-.6-4.5-1.4m6.5-.5q-3.1-.7-1.7-.9 1.6-.1 1.7-1.3 0-1.5 1.2 0c1.4 1.4 5.2-.4 4.5-2.1-.3-1 2-1.3 8.5-1.3 7.7 0 8.8.1 8.3 1.5q-.7 1.8.9-.2 1.4-1.7 1.8-.6.3 1 4-1c3-1.7 3.8-1.8 3.8-.6 0 1.4-5.2 4.2-9.3 5-1 .2-2.2.7-2.7 1-1.5 1-17 1.3-21 .5m10-2.9q-.1-2 1-.1 1 1.4 1 .3c0-2-1.7-2.4-3-.8-.7.8-2 1.5-2.9 1.5q-2-.1-.2 1c1.9 1.1 4.1.2 4.1-1.9m7.9.6q1.9.7.2-.5c-1.6-1.2-5.3-.4-4.5 1q.6.9 1.6 0c.6-.6 1.8-.8 2.7-.5m-31.5-.3q-2.9-2 .6-.3 4.3 2 2.4 1.9c-.6 0-1.9-.7-3-1.6m42.6 1.2q.1-.4 1.6-1 1.3-.5.9.4c-.6 1-2.5 1.4-2.5.6m-27.3-2.3c-1.3-1.2-.7-2.3 1-2.2q1.7 0 .5.6-1 .5-.6 1.4c.6 1 0 1.2-1 .2m-131.1-2.9c-1-.9-1.5-1.9-1.2-2.1s1.3.2 2.2 1.1 1.4 2 1.1 2.2-1.2-.3-2.1-1.2m168-1.3q3-3.4 1.2-2.8-1.9.8-1.8-1.3.2-1.7 1.8-2.3 2-.5-.6-.6c-1.8 0-2.2.4-2.3 3.2q0 2.7-.6 1.4-.4-1.6-1.9-1.7-1.3-.1-1.4-1.5t1.6-.8q1.7.7 1.2-.8c-.5-1.6-5.8-2.5-5.8-1q.1 1 1 1.6c1.5 1 1.2 2.5-.5 2.5q-1.4.1-1.5 1.3 0 1.2-1-.3-.8-1.4-.4-2 .2-.8-1.8-1.3c-2.3-.6-4.1 1-3.1 2.6q.6.7 1.4-.4.8-1.4.5 1.4-.7 5.5-2.1 1.6-.8-2.2-1.4-1-.8 1-2-1.4-1-2.4-.1-2c.5.3 1.8-.3 3-1.5l2-2h-3.2c-4.1 0-3.2-.8 1.8-1.5l5.9-.9c1.1-.2 2.4 0 3 .4 1.3 1 6.5.8 5.8-.3q-.2-.7 1.1-1.3 1.5-.6 1.6-2 0-1.3 1-1.4t1-1-1.6-1q-1.3.1-1 .8c.2.4 0 1.4-.5 2.2q-.9 1.8-.9-1.6c0-1.7.5-3.1 1.2-3.2.7 0 2.5-.3 4-.6 1.6-.2 2.6 0 2.2.5q-.6.8-1.5.4c-1.9-1.2-.8 1.7 1.2 3.4s2 2 .8 4.2L193 150c-.9.9-3 5-3 5.7 0 .5 1.4-.8 3-2.7q2.8-3 2.1-1.5a37 37 0 0 1-5.8 6.5q-4.8 4.5-1.8 1.1m-10.6-7.5q0-.6-1-1.1-.9-.4-1 .4.1 1 1 1.1 1 0 1-.4m12.3-1.3c-.7-.2-1.9-.2-2.6 0q-.8.5 1.3.5 2.2 0 1.3-.5m3.7-3.3q-.1-.9-1-1-1 .1-.5 1t1 1 .5-1m2-2.6c0-.8-2-1.3-2.4-.6q-.4.8 1 .9 1.2 0 1.4-.3m-93.2 16q1.2-.5 2 0 .3.6-1.4.5t-.6-.6M34.5 159q-.4-.9.4-1 1 0 1.1 1 0 1-.4 1t-1.1-1m121.5-.8c-3.1-1.5-3.2-1.6-1-2.4 1.2-.4 2.6-.6 3-.2q1 .4 1-.9.1-1.2 1.5-1.4 1.4.1 1.5 1.4t1.6 1.3q1.3 0 1-1c-.4-.4-.1-1.2.5-1.6q1.2-.6.5.4-.5 1.1.3 1.2 1 .1 1.1 1c0 .6-1.2 1-2.6 1q-2.3 0-2 .9c1 1.7-3.2 1.9-6.4.3m4.6-.4q.6-1-.4-.4t-1.7-.4c-.8-1.3-2.5-1.3-2.5 0q.2.7 1.8 1.3l1.9.6q.2 0 .9-1M176 159q-1.4-1-.3-1c.6 0 1.5.4 1.8 1q1.3 1.8-1.5 0m-81.7-4c0-2.5.2-3.5.4-2.2s.2 3.2 0 4.4-.4.3-.4-2.2m-78.8 1q.6-.9 1-1t.5 1-1 1-.5-1m-4-4q-4.4-5.2-.8-5 1.4 0 1 .7c-.4.3.3 2.1 1.4 4q3.8 6.3-1.5.2m143.5 0q.1-.9 1.6-1 1.4 0 .8-1.2-.6-1 .4-.4c1.6 1 1.5 1.4-.8 2.6q-2 1-2 0m8.4.2q.5-1.1-.7-1.2c-.8 0-2-.7-2.7-1.5q-1.2-1.5-.2-1.5 1 .1 1.5 1.3.6 1.5.6 0c.1-2 1.8-1.5 2.4.7.3 1.1 0 2.3-.5 2.7q-1 .4-.4-.5M142 151q-1.4-1-.3-1c.6 0 1.5.4 1.8 1q1.3 1.8-1.5 0m-129-3q.1-.9 1-1 1 .1.5 1t-1 1-.5-1m128.2-.2c-.5-.7-.6-2.2-.2-3.2q.6-2 1.4-.8t1.7.7.9 1q0 1.3-1.5.9-1.5-.8-.9 1 .9 3-1.4.3m55.4 0q.6-1.6 1.2-1.3.4.5-.7 1.8-1.4 1.5-.5-.6m-39-1q.6-1.6 1.2-1.3.4.5-.7 1.8-1.4 1.5-.5-.6m-27.3-1.6c0-1 .7-2.4 1.4-3 1.9-1.8 1.8 1.5-.1 3.4q-1.8 1.9-1.3-.4m23.4.1q.5-1.2.8-1.3.3.1.8 1.3.4 1.3-.8 1.4-1-.1-.8-1.4m18 .6q1.2-1.1 1.8-.7.4.6-1.2 1.2-2 1-.6-.5m11.3-.9q.1-.9 1.6-1 1.3.1.9 1-.6 1-1.6 1-.8 0-.9-1M6.7 143.6a43 43 0 0 1-1.2-5.8c-.5-3.6-.4-4.6.9-5.1q2-.9.4 1.2c-.9 1.4-.8 2.8.5 6 1 2.3 1.7 4.4 1.7 4.6 0 1.1-1.8.4-2.3-.9m191.3.9a6 6 0 0 1 1-2.5q.9-1.2 1-.5a6 6 0 0 1-1 2.5q-.9 1.2-1 .5m-3-3.4q.2-.8 1.4-1.4 1.5-.6 1 .9c-.7 1.5-2.4 2-2.4.5m-53.6-1.3q-.6-1 .4-.4c.5.3 1.3 0 1.5-.6q.5-1.1.6.4c.1 2-1.4 2.4-2.5.6m58.8-1.3c0-1.1.4-3.3.8-5q1-4 .8-.5c0 1.4-.4 3.6-.8 5q-.9 2.9-.8.5M2.2 134q0-3.1.5-1.7c.2 1 .2 2.5 0 3.4q-.5 1.3-.5-1.7m138.8.5q-1.1-1.4-.4-1.5t-.6-1q-2-1.1.4-1 1.8 0 1.3 1.4t.6 1.9.6 1q-.7.6-1.9-.8m35.5.5q-.7-.9-1.7-.4t-.4-.5q.7-1.5 2.2 0 2.2 1.8 1 1.9-.6-.1-1.1-1m-9-1c.7-1.2 3.5-1.3 3.5-.2 0 .4-1 .8-2 1q-1.8 0-1.5-.9m-30-5c.3-.5 1.4-1 2.3-1q2.2-.1.2 1c-2 1.3-3.3 1.3-2.5 0m-112-5q-.4-.9.4-1 1 .1 1.1 1 0 1-.4 1-.6 0-1.1-1m-10.2-1.5q0-1.3.9-1.5.7 0 .8 1a2 2 0 0 1-.8 1.4q-.8.4-.9-1m-13-3.5q0-3.1.4-1.7c.2 1 .2 2.5 0 3.5s-.5.1-.5-1.8m174.8 1.3q.1-1.6.5-.6.6 1.1 2.1.6 1.6-.6 1 .5c-1.2 1.8-3.7 1.4-3.6-.5m24.2-1.8q0-3.5.4-1.7c.2 1.2.2 3 0 4s-.5-.1-.4-2.3m-54.2 1.8c0-.6-.4-2-.8-3q-.5-1.6.2-1 .8.5 2-1c1-1.3 1.2-1.3 2.4.1q1.4 1.5.2 1.6-1-.1-1.2-1.3-.2-.7-1.4 2.3-1.2 3.2-1.4 2.3m9.5-.5q.6-.7 1.5-.3 2 1.3-.6 1.2-1.3 0-.9-.9m36.4.1q.1-.8 1-.4 1 .6 1 1t-1 .5-1-1m3 .6q.2-.5 1.8-1.4 2-1.2 1.9.5c0 .7-.9 1.4-1.9 1.4q-1.6 0-1.8-.5m-40.4-3.3q-.4-.8.9-.9t.9.9q-.5.7-.9.8-.4-.1-.9-.8m22.9-.2q-2.4-1-.3-1 1.7.1 2.3 1c.7 1.1.7 1.1-2 0m-10.7-.7q1.2-.4 2 .1.4.5-1.4.5t-.6-.6m-25.6-1.8q-2.4-2.7.3-2.5 1.4.2 1.5 2c0 2.3-.1 2.4-1.7.5M3.3 113q0-2.3.5-1.2c.2.6.2 1.8 0 2.5q-.5.8-.5-1.3m148.4 1.1q-.5-.8 1-1.5 1.2-.4 1.4.4c0 1.3-1.8 2.2-2.4 1.1m5 0c-1-1.5 2.9-1.9 4.2-.4q1.7 1.4-1.2 1.3c-1.4 0-2.7-.4-3-.9m21.3-.4q1-1.1 2-.1t-1 1.1q-2.5.4-1-1m19.7-.4q-1-2 .5-.6 1.1 1.2.7 1.8-.6.4-1.2-1.2M163 113c0-.5.5-1.3 1-1.6q1-.5 1 .4c0 .5-.4 1.3-1 1.6q-.9.5-1-.4m32.4-3.2q.1-1.7 1-1.6c1.6.5 1.8 2.4.4 3q-1.4.3-1.4-1.4m-170-.4c.3-2.1 1.6-3.1 1.6-1.2q0 1.5-1 2.1-.7.5-.6-.9m145.6.3q.2-.7 2-.8 1.8.1 2 .8-.2.7-2 .8-1.8-.1-2-.8m5.6.4c-.3-.5.9-1 2.6-1q3.4 0 1.8.8c-1.9 1.2-3.7 1.3-4.4.2m6.9-.2q.6-.8 2-.3 3.2 1.2-.6 1.3c-1 0-1.8-.4-1.4-1m0-2.2c-1.8-1-1.8-1.1 0-2.5q1.8-1.4 1-2c-2-1.5-1.4-3 1-3q2.3.3 1.4 1.3c-1 1.1 1.3 3.9 2.3 2.9q.4-.3.5 1c0 1.3-.2 1.3-1.7 0s-1.9-1.4-3.1.2q-1.8 2 .2 1 1.5-.4 1.6.9c0 1.7-.6 1.7-3.1.2m-7.8-1q1.2-1 1.8-.6.4.6-1.2 1.2-2 1-.6-.5m-10.5-1.5c-1.8-.7-3-1.8-2.7-2.3q.6-1 1.1-1 .4.1-.1 1t2.2.5q3-.8 1.3.4-1.2 1-.5 1c.6 0 1.6-.4 2.1-1s2.8-1 5-1.3l4.9-.6q3.4-.7 3.5 1.7.1 2.1-1 .4c-.7-1.2-1.1-1.2-2.4-.2q-1.5 1.2-1.6.7c0-.4-1-.2-2.1.5q-2.4 1.3-1.4-.2 1-1.3-1-.6l-2.1.7q-.5.1 0 .8c.8 1.3-1.5 1-5.2-.5m-139.6-.2q-.6-1.2-.2-1.8c.9-1 1.9.4 1.4 1.8q-.4 1.5-1.2 0m6.3-5.9q.6-5 .9-.8c.2 1.6 0 3.2-.5 3.7q-.8.6-.4-2.9m106.2 2.2q0-1.7.6-.6.4 1.2-.1 2-.6.3-.5-1.4m28.8-.1q-1.2-1.6-.5-1 1 .5 2.3-.4c1.4-1.3 1.7-.1.4 1.9-.6 1-1 .9-2.2-.5M44.3 99.5q0-1.3.9-.9.7.6.8 1.5-.1.8-.8.9-.8-.2-.9-1.5M161.5 98c-1-1.4-.2-2 1.4-1q1.3.8.3 1.5-1 .4-1.7-.5m4.5-2.3q1-1 2.1.1 1.5 1.4-1 1-2-.1-1-1.1m-144.9-2c-.7-.8-1-2-.6-2.5.9-1.5 6.8-.7 7.3 1q.3 1.3-.5.4c-1.3-1.6-3.8-1.1-4.3.9-.5 1.7-.7 1.7-1.9.3m161.6.7c-.3-.5 0-1.7.4-2.8q1-2.6.8-.2 0 1.9 1.3 1 1.4-.6 0 1c-1.6 2-1.9 2-2.5 1M30 93q.1-.8 1.5-.4 1.3.7 1.5 1-.2.4-1.5.4T30 93m37.6-.8q-.4-.8.9-.9t.9.9q-.5.7-.9.8-.4-.1-.9-.8M159 90q-1.8-1.1.8-1 2 0 1.7 1c-.7 1.2-.6 1.2-2.5 0m19-1.7q-2.2-1.2-1-1.3c1.7 0 4.7 1.7 4 2.3-.3.2-1.6-.2-3-1M25 88q.1-.8 1-1.1c1.6-.2 2.3-.4 6.3-1.8 2.1-.7 4.1-1 4.5-.6 1 1-2 2.5-5 2.5-1.5 0-3 .5-3.3 1s-1.3 1-2 1q-1.4-.1-1.5-1m28-1q.1-.9 1-1 1 .1 1 1t-1 1a1 1 0 0 1-1-1m107.8-.3c.7-.8.8-1.8.4-2.2q-.5-.7.5-.1c1.8 1 1.6 2.3-.3 3q-1.9.8-.6-.7m5-.4q1.2-.4 2 .1.3.5-1.4.5t-.6-.6m6-1q1.2-.4 2 .1.3.5-1.4.5t-.6-.6M86 81q0-1.8 1-2 .7.2.3 2-.5 1.8-1 2-.2-.2-.3-2m30-5.3q-.1-1.6-1-1.2t-1-.6q.1-1 2-.6t2-.4 1-.9q.7.2.3 2c-.3 1-.9 1.8-1.3 1.5q-.8-.4-1.3.7t-.6-.5M68.4 68c0-1 .5-1.8.9-1.5q.7.5.1 2-1.2 3-1-.5m54.5-1.4q2.3-1 3.3 0t-2.3 1c-3 0-3-.1-1-1M122 64q-1.2-.9-.5-1a6 6 0 0 1 2.5 1q1.2.9.5 1a6 6 0 0 1-2.5-1m23.6-3c.3-2.5 1-8.3 1.4-13l.8-8.5-.3 10.5c-.1 5.8-.8 11.6-1.4 13-.9 2.1-1 1.8-.5-2m-25.9.9q1.2-1.1 1.8-.7.4.6-1.2 1.2-2 1-.6-.5m21.3-1.4c0-1.4.5-2.5 1-2.5q1 0 .4-1.2-.7-1 .6-.3 1.5 1 .7-1l-.7-2.1q0-.4-1.2.2-1 .6-.4-.4c2.5-4 4.5 2.2 2.2 6.7q-2.8 5.6-2.6.6m-8-.4q.1-1 1-1.6 1-.4 1 .5 0 1.1 2.1 0 2.3-1.5 1.7 0c-.5 1.6-5.8 2.5-5.8 1m-68-1.5c0-1.6 1.9-2.5 3.8-1.9q1.5.5-.5 1.9-3.4 2.5-3.3 0m11-.6q-3.4-.9-.3-.9c1.2 0 2.5.4 2.8.9q.5 1 .3.9zm4 0q.2-1 2-1t2 .4q-.2.4-2 .9t-2-.4m51-.6q.2-1.7.7-.6t-.1 2q-.6.4-.5-1.4M71.6 54q-1.7-.7-.7-.8c1.4-.1 1.2-4.5-.2-5.8q-.8-.5-.2 2c.6 2.5.4 2.7-2.4 2.7-1.6 0-3-.5-3-1q.1-.9 1-1 1-.2 1-1.7 0-2-.9-.4-.8 1.4-1.5.2-.6-1 0-1.2 10.2-1.3 8.6 3-.6 1.4 1.6.9 2-.6 2.5 1.3c.3 1 .1 1.9-.4 1.9q-.8-.1-.9-1-.2-.9-1.7-1-2 0-.4.9c1.9 1.2 0 2-2.4 1m37.5.1q.1-.9 1-1 1 .1 1 1t-1 1a1 1 0 0 1-1-1m-29.8-1.2q-2.5-2.7.5-2.4 1.5.4 1.9 2 .3 2.8-2.4.4m14.3-.8q.6-.9 1-1 .5.1.5 1-.1.9-1 1-1-.1-.5-1m40.1-.5q-1.4-4 .5-1.2 1 1.7.6 2.3-.4.4-1-1.1m10-.6q-2.6-2.5-.3-1.3 2.7 1 .2-4.9c-.4-1-.4-2.4-.1-3.3.8-2.2-.4-4-1.5-2.3q-.9 1.5-.9-1.4 0-2.6 1-2.2t1-.7q0-1.3 1 .3c1 1.6 2.7 18 1.9 17.8-.2 0-1.3-1-2.4-2m-59 .4q-.2-.8 1.9-.8t1.8.8q-.5.7-1.8.7t-1.8-.7m17.4-.8q-1.3-1.5-.1-1.5c2.3 0 2.7-.2 4.8-2.2q2.1-2 2.3-1c0 .5-.6 1.3-1.2 1.5q-1.5.5.2 1.7 1.9 1.4-.9.5c-2-.6-2.3-.4-1.8.9.8 2-1.6 2.1-3.3.1m16.6-.4q-2.5-.7-.4-1.4 1.6-.4 2.2.9.5 1.3.3 1.3zm20.2-3.3q1.2-1.7.8-2.6t.8-2.1q1.4-1.5.9 1.4c-.3 1.3-1.3 3-2.2 3.7q-2 1.8-.3-.4M75 45c-1.4-.4-3.7-.6-5.2-.4-2.6.4-2.7.2-2.5-3.1.2-2 .7-3.9 1.1-4.3.5-.5.7.8.4 2.8-.3 3.5-.3 3.5 3.5 3.6 2.1 0 4.4.6 5 1.2q1 1 .7 1zm16.2-.3q-2-.7-.2-.9c4.8-.6 8-.4 8 .6 0 1.2-5 1.4-7.8.3m10.8.2q-1.4-1-.3-1c.6 0 1.5.4 1.8 1q1.3 1.8-1.5 0m-16-1q0-.9 1-1 .9.1 1.5 1t-1 1q-1.3-.1-1.5-1m-7-3q0-2.7 1.2-1.2c1 1 1 1.5 0 2.4Q78.9 43.8 79 41m19.7 1.3q-1.8-.4-1.2-2.3c.3-1 0-2.2-.6-2.6q-1.3-.7-.6.9c.3.9.1 2-.5 2.3q-1 .6-.5-.3c.4-.6 0-1.7-.9-2.4q-1.3-1-1.3-.3c.3 1.8-.1 3.4-1 3.4-1.1 0-.9-3.2.4-4.6q1-1.2 2.3-.2t1.2 0c0-1 3-.9 5 .3q1 .4 1-.5t1-.6c.4.4 1.1-.7 1.5-2.4s1.1-3 1.6-3q.9.1.4 1c-1 1.8 2.4 2.3 4 .6 1-.9 2.2-1.6 2.8-1.6q1 .1-.6 1c-2 1.3-2.2 2.7-.5 3.3q1 .3-1 0-2.5-.5-1.6 1 1 1.3-1-.2c-1.4-1.2-1.6-1-1.7 1q-.2 2.6-.6.6-.5-1.6-1.4-1.1-.7.6-.3 1.6.6 1-.4.4-1.1-.5-1.2.3 0 1-.7 1-3.1-.4-3.3 1.2.1.8 1 .4t1 1-.2 1.4zm5.3-1.4q0-1 1-.5.8.4 1.2-.6.4-1.2 1 .3t-1.3 1.6c-1 .1-1.9-.3-1.9-.8m30 0q0-.8-1-.4t-1-.4c0-1.6 1.6-1.3 3 .4q1.3 1.5.1 1.5-1-.1-1.1-1m-61.2-.6c.6-.2 1.8-.2 2.5 0q.8.5-1.3.5-2.2 0-1.2-.5m35.8-1.6q.6-1.6 1.2-1.2.4.5-.7 1.8-1.4 1.5-.5-.6m37.6-1.7q0-2.2.5-1.2c.2.6.2 1.8 0 2.5q-.5.8-.5-1.3m-71.8-.1q-.6-1.2.4-.5c.5.3 1.3 0 1.5-.6q.6-1.5.6-.1c.1 1.7-1.6 2.5-2.5 1.2m41.4-3.6q1.2-.4 2 .1.3.5-1.4.5t-.6-.6M93 31.6c0-.6 1-1.2 2-1.2q1.8.1 1.7 1c-.5 1.4-3.7 1.6-3.7.2m26.1.5q-1.3-.8-.3-1.5 1-.4 1.7.5c1 1.4.2 2-1.4 1M62 29.3q.1-1.2 1-1.3t1-1.6 1.8-1.2q1.6.4 1.7 1.6.2 1.2 1.5 2.3 1.7 1.2-1.2.5-2.6-.6-2.8.2t-1.5.9-1.5-1.4m18.6 0q-1-2 .5-.6 1.1 1.2.7 1.8-.6.4-1.2-1.2m-3.6-.4q.1-.8 1-.4 1 .6 1 1-.1.5-1 .5-.9-.1-1-1m65.1-3.4c-2.2-4.4-5.1-7.6-3.8-4.2q.4 1.6-.3 1.7-1-.1-1-1.5-.1-1.4-1-1.5t-.8-1.7c.1-1-.1-2.4-.6-3.1-.6-1-1.1-1-2.3.5q-1.8 2.6-.4-.3c1.2-2.5-.1-4-6.4-7.2-8.3-4.2-15.1-5.4-25.9-5-5.5.4-11.2.9-12.6 1.2q-2 .4 2-1c3.3-1 7.5-1.4 15.5-1.2 10.3.3 11.5.6 18.7 4a41 41 0 0 1 19.4 18c1.4 2.8 2.4 5.2 2.1 5.4s-1.4-1.6-2.6-4m-5-7.7q-1-1-1.1-.2c0 1.4 1.2 2.6 1.9 1.9q.3-.6-.7-1.7m2 8.5c0-2.7 0-2.7 1.4-.9 1.4 2 1.2 3.6-.6 3.6-.5 0-.9-1.2-.9-2.7m-29.5.4q.6-1.6 1.2-1.2.4.5-.7 1.8-1.4 1.5-.5-.6m-32.9-1.6q-1.5-1.7 0-.7 1.3.6 1.4-1-.1-2.3 1 .4 1.8 4.5 1.1-.4c-.4-2.4-.3-2.5 1.7-1.5 1.2.7 2.7.9 3.3.5q1-.7.4.5-.9 1.1-2.1.7-1.2-.2-1.8 1.3c-.5 2.2-3.3 2.3-5 .2m8.8.9q-.4-1 .4-1 1 0 1.1 1 0 1-.4 1t-1.1-1m30.1-.4c.6-1.5 4.6-1.6 4-.1-.1.5-1.2 1-2.3 1.1q-2 0-1.7-1m10.5-.2c-1.8-2-1.2-2.4 3-1.4 1.8.4 2.6.8 1.6.9q-1.6.2-1.7 1.1c0 1.4-1.3 1.2-2.9-.6M74 23.6c0-.2.7-1 1.5-1.6q1.4-1 1.5-.2-.2.9-1.5 1.6-1.3.5-1.5.2m3.2-5c-.9-2-.8-2.4.1-2 .7.2 1.3 1.3 1.4 2.4q.5 4-1.5-.5m-5.7-.5q.4-.9-.7-1.3T72 15a11 11 0 0 0 3.2-2.4q.8-1.2.8.2-.1 1.2-1.4 1.8t-1 1.9-1 1.9q-1.6.4-1.1-.3m45.1 0q-.4-.7 1-.8 1.2 0 1.4.9 0 .7-1 .8a2 2 0 0 1-1.4-.8m10.9-.1q-.4-.9.4-1 1 .1 1.1 1 0 1-.4 1-.6 0-1.1-1m-36.2-1.7c1-.2 2.3-.2 3 0q.8.5-1.8.5t-1.2-.5M99 16q.1-.8 1-.4 1 .6 1 1-.1.5-1 .5-.9-.1-1-1m-20.2-2c1-1.4 1-1.8 0-2.2q-1.4-.6-.1-.6c2-.2 2.4 1.6.5 3q-2.2 2-.4-.3m48.2-1.5c-1.3-1.3-1.9-2.4-1.2-2.4q1 0 1.2 1t1.5 1q1.4.1 1.5 1.5c0 1.9 0 1.9-3-1m-28.6-1.3q.4-1-.6-1.4-1-.5 1-.6 2.2 0 1.6-1.3-.7-1 .5-.4 1.5.8-.5 2.7c-1.8 2-3 2.6-2 1m15.6-1q1.5-1 .3-1Q113 9 113 7.8q.1-.8 1-.4t1-.4q-.1-1.6 5 .7c2.2 1 2.1 1.1-1.3.6q-4-.7-3.5.6.2 1.2-1.2 1.7-2 .7 0-.6" style="fill:#1d316e"/><path d="m69.1 212 5.6-7.2c2.3-3 6-8.7 8.3-12.8s3.9-6.6 3.5-5.5c-1.2 3.6-7.4 14.2-12 20.2l-4.3 5.8 31.1.5 31.2.5-32.4.3c-31.8.2-32.3.2-31-1.7m64.6 1.3q1.3-.5-2.6-5.1a92 92 0 0 1-11.1-16.9c0-.4 2 2.3 4.4 6 2.4 3.6 6.3 9 8.6 11.7 4 4.7 4 5 1.8 5q-2-.2-1-.7M117.1 186c-1.8-3.5-3-8.2-1.7-7 .7.8 4.6 11 4.2 11-.2 0-1.3-1.8-2.5-4m-4.4-13.7c-1-3.2-1.9-7.8-2.1-10.3-.6-4.8-.5-4.6 2.5 7.4 2.2 9.2 2 11.4-.4 2.9m-22 1.2 2-8.5 1.3-5.5-.5 5.1c-.2 2.8-1 6.6-2 8.5-1.5 3.3-1.5 3.3-.9.4M35.4 170a66 66 0 0 1 14.4.6c.8.7-11.4.2-14.4-.6m19.5-1c3.4-1.1 6-1.1 3.5 0-1.1.5-2.9.8-4 .8q-2.5 0 .5-.8m95.3.3c1-.2 2.5-.2 3.4 0q1.3.5-1.7.5-3.1 0-1.7-.5m14.7-.4c3-.4 6.8-1.3 8.4-1.9s3-.8 3.3-.6c.9.8-10 3.6-13.6 3.5q-4.6 0 2-1M28 168c-1.8-1.2-.2-1.2 2.5 0q2 .9.5 1c-.8 0-2.2-.5-3-1m117.8.3q1.2-.4 2 .1.4.6-1.4.5t-.6-.6M68.2 164a76 76 0 0 0 21.6-18.3c1.8-2 3.6-3.6 3.9-3.3s-3.5 4.6-8.3 9.5a64 64 0 0 1-24 16.2c-.5 0 2.6-1.9 6.8-4.1M141 167q-1.2-.9-.5-1a6 6 0 0 1 2.5 1q1.2.9.5 1a6 6 0 0 1-2.5-1m-119-2a54 54 0 0 1-15.8-16.6c-1-2.1-2.2-5.5-2.6-7.4q-.7-4 1.4 1.8A42 42 0 0 0 22.3 164c2 1 3.7 2.2 3.7 2.4 0 .7 0 .7-4-1.4m113.4-.6q-2.9-2 .6-.3 4.3 2 2.4 1.9c-.6 0-1.9-.7-3-1.6m42.6 1.2q.1-.4 1.6-1 1.3-.5.9.4c-.6 1-2.5 1.4-2.5.6m-51.6-7c-6.7-5-15-13.3-14.2-14.1.3-.3 1.7 1 3 2.8 1.5 1.9 6 6 10.2 9.2 7 5.3 8.3 6.5 7.2 6.5-.2 0-3-2-6.2-4.4m63-1.6c6.7-7.5 7-7.8 5.8-5.5-.6 1.1-3.2 4-5.8 6.5l-4.8 4.5zm-95.1-2c0-2.5.2-3.5.4-2.2s.2 3.2 0 4.4-.4.3-.4-2.2m14.9-1-.7-6.5c-.5-3.5-.4-3.7.5-1.5.6 1.3 1 4.2.7 6.5q-.3 3.4-.5 1.5m-14-7.5q.1-3.5.5-1.7c.2 1.2.2 3 0 4s-.5-.1-.4-2.3m101.4 1.2q.6-1.6 1.2-1.2.4.5-.7 1.8-1.4 1.5-.5-.6m1.4-3.2a6 6 0 0 1 1-2.5q.9-1.2 1-.5a6 6 0 0 1-1 2.5q-.9 1.2-1 .5m2-6q.2-1.8.7-.7t-.1 2q-.6.4-.5-1.4M2.3 134q0-3.1.5-1.7c.2 1 .2 2.5 0 3.4q-.5 1.3-.5-1.7m199 0q0-2.2.5-1.2c.2.6.2 1.8 0 2.4q-.5 1-.5-1.2m-199-15q0-3.1.5-1.7c.2 1 .2 2.5 0 3.5s-.5.1-.5-1.8m199-1q0-3.1.5-1.7c.2 1 .2 2.5 0 3.5s-.5.1-.5-1.8m-198-5q0-2.3.5-1.2c.2.6.2 1.8 0 2.5q-.5.8-.5-1.3m196.9-.6q0-1.7.6-.6.4 1.2-.1 2-.6.3-.5-1.4M4.6 108a44 44 0 0 1 19.9-22.5c11.8-5.8 25.4-7 37-3.4 3.7 1.1 6.5 2.2 6.3 2.5S64.5 84 61 83a49 49 0 0 0-37.3 4.3A42 42 0 0 0 6.9 105c-1.6 3-2.7 4.4-2.3 3m191.9-4.3a41 41 0 0 0-29-22.2 40 40 0 0 0-24 1 43 43 0 0 1-7.3 2c-.1-.1 2-1.2 4.8-2.4a48 48 0 0 1 49.4 11c4.2 4.6 10.4 15.4 9.5 16.4-.3.2-1.8-2.4-3.4-5.8m-129.8-23a57 57 0 0 1-10.6-25.1c0-1.2.7.4 1.5 3.4 1.9 7 5.4 14.7 9.4 20.5 3.5 5.1 3.3 6.2-.3 1.2m69 .2 3.7-5.7c1.5-2.4 3-4.2 3.3-3.9.6.7-5.2 9.3-7 10.3q-1.4 1 0-.7m10-18.9c.3-2 1-7.8 1.4-13l.7-9.5-.3 10.5c-.1 5.8-.8 11.6-1.4 13q-1.4 3.6-.4-1M55.2 49.5A49.7 49.7 0 0 1 78.8 7.1c6.4-3.3 6.2-2.5-.4 1.4-13.6 8-20 20-22.7 42q-.4 3.7-.5-1m91-12.5q0-2.2.5-1.2c.2.6.2 1.8 0 2.5q-.5.8-.5-1.3m-4-11.6A43 43 0 0 0 108.8 3l-7.3-.9 7.2.3a42 42 0 0 1 34 21.9c1.3 2.7 2.3 5 2 5.3s-1.3-1.7-2.5-4.2M88.5 3.6c2.2-.8 6-1.4 8.5-1.4h4.5L96 3c-3 .4-6.8 1-8.5 1.4q-3 .5 1-.8" style="fill:#192852"/></svg>