<svg xmlns="http://www.w3.org/2000/svg" viewBox="0 0 173 240"><path d="M83 235.8c-1.8-2.4-4-5.9-4.9-7.8-2.5-5.4-14.5-25-24.7-40.5a355 355 0 0 0-44.6-55.8A74 74 0 0 1 1 123c-1-1.7.6-3.7 11.4-15.2A363 363 0 0 0 76.5 16 73 73 0 0 1 85.9.5c.7 0 4 5.2 7.3 11.5a161 161 0 0 0 10 17.5 250 250 0 0 0 15.5 25.6c1.2 1.9 3.3 5 4.8 6.9l7.8 10.5c6.7 9.2 26.5 32.4 34.4 40.3 3.4 3.4 6.4 7 6.7 8q.6 1.7-5.2 7.7a575 575 0 0 0-34.3 40 514 514 0 0 0-25 38A2099.2 2099.2 0 0 0 93 233c-1.9 3.5-4.3 6.5-5.2 6.7s-2.9-1.3-4.9-4" style="fill:#fdf4d2"/><path d="M82.8 232.8 69 210A383 383 0 0 0 11 132.8L.5 122l6.6-6.7a453 453 0 0 0 44.3-53.5c6.2-8.6 20-32.3 27-46.8 3.7-7.4 7-13.6 7.4-13.7.4-.2 2 2.4 3.5 5.6a411.3 411.3 0 0 0 73.9 104.7c4.8 5 8.8 9.5 8.8 10s-2.7 3.6-6 7a460 460 0 0 0-30 33.9 446 446 0 0 0-35.2 54.4c-7 12.4-13 22.6-13.2 22.8-.2.3-2.4-2.9-4.8-6.9" style="fill:#fadba7"/><path d="M74.5 218c-23.7-39.5-41.1-63.3-62.6-85.5l-10.7-11 12.2-12.6A362 362 0 0 0 85.1 2.2c.3-.8 2.9 3.3 5.8 9A420 420 0 0 0 163.7 113l8.2 8.5-5 5A399.9 399.9 0 0 0 100 217c-6 10.7-11.4 20.2-12 21-.5 1-4.3-4.6-13.6-20" style="fill:#d5a15d"/><path d="M86.8 237.4c-35.6-59.5-50.4-80.3-76-107l-8.7-9 5-5a365.8 365.8 0 0 0 70-96.8l8.6-16.9 3.5 6.4L99 27c16 29.2 34.6 54.2 65 87l6.9 7.6-7 7.5A401 401 0 0 0 99.6 217l-11.4 20q-.8 1.2-1.4.4" style="fill:#c9832e"/><path d="M81.3 226.7c-2.6-4-6.4-10-8.3-13.6-2-3.4-5-8.6-7-11.4L58.3 189c-7.7-13.1-31.4-43-45.7-57.8a98 98 0 0 1-8.4-9.4 39 39 0 0 1 7.6-9.2 378 378 0 0 0 64.3-89C84.7 7.2 85.4 6.2 87.3 8c.8.8 5 8.3 9.4 16.5 4.4 8.3 9.5 17.3 11.4 20.2a915 915 0 0 0 21.3 30.9L138 86a353 353 0 0 0 16.1 18.4c11.8 12.3 13.9 15 13.9 17.5 0 1.2-2.7 4.8-6.8 8.8a412.2 412.2 0 0 0-54.7 72.8c-4.8 8.3-9.5 16.2-10.5 17.6a94 94 0 0 0-4.5 7.7c-1.5 2.9-3.3 5.2-4 5.2s-3.5-3.3-6.2-7.3" style="fill:#e3810f"/><path d="M85.4 232.9q-.7-1.2.5-.5c.6.4 2 .2 2.8-.6 1.4-1.1 1.5-1 1.1.2-.6 2-3.4 2.5-4.4.9m-3.5-5.2q-2.3-3.1-.6-1.8c2.6 2 2.1 1-3.5-8a90 90 0 0 1-6.4-11.9c-.7-2-1.9-3.5-2.8-3.5s-2.1-.6-2.8-1.4q-1.5-1.7 0-.6 1.5.8.8-.6l-1.2-3.1q-.6-1.7-1.6-1.8-.7.2.2 2.3 1.6 3.2-.5.2c-1-1.1-2-2.9-2.6-4q-1.6-3 .5 0 1.8 2.3 1.6.3c0-1.8-2.4-4-3.3-3.2-.3.3-1.3-.8-2.2-2.5-2-3.8-1.2-4.1 1-.4q1.5 2.4 1 .8c-.4-1.1-1-2.8-1.2-3.8-.3-1-1.2-1.6-1.9-1.3q-1.2.4-2-.6-.6-1 .4-.4c1.8 1.1 1.4-1-.5-2.5q-2.1-1.8-.8.1t-.8.1c-2-1.5-2.3-2.6-.6-1.5q1.1.6.7-.7-.6-1.3-1.6-1.2c-.5.1-2.3-1.4-3.8-3.4s-2.2-3.3-1.5-2.8q1.4.8.9-.6-.6-1.3-1.6-1.2c-.6.2-2.5-1.6-4.2-4q-3.4-4.5-.6-1.4c1.4 1.5 2.6 2.5 2.6 2.2 0-1.2-4.4-6.4-5-6-.4.3-3.3-2.7-6.4-6.5-3-3.9-5.1-7-4.5-7s0-1.3-1.3-2.9-2.5-2.7-2.7-2.5.4 1.4 1.5 2.6q2.7 3-.9-.2c-1.5-1.3-2.6-2.9-2.3-3.5.2-.6-3.1-4.8-7.5-9.4-5.4-5.7-7.6-8.7-7.2-9.8q.6-1.6-.5-1c-2.1 1.4-1.3 2.7 6 10.3a93 93 0 0 1 7.6 8.4c.2.5-3.3-2.8-7.7-7.4-4.5-4.5-8.1-8.7-8.1-9.2a60 60 0 0 1 8.2-9c4.5-4.3 7.1-6.6 5.8-4.9-2.3 2.7-2.2 2.7 1.3-.4 4.2-4 4.4-4.3 2-3.4-1.8.7 9.8-13.1 12-14.4.7-.3-.1.8-1.7 2.5-1.7 1.8-2.6 3.2-2 3.2 1-.1 9.4-10.3 9.4-11.6 0-.5-1.2.4-2.6 2.1-3.8 4.5-.8.2 8-11.5 8-10.7 10.6-13.8 9-11-.7 1.3-10.8 15.2-13.6 18.8q-1 1-.2 1.2c.5 0 2.5-2.3 4.4-5l7.3-10.2c2-2.8 3.6-5.7 3.3-6.4q-.4-1.2.6-2 1-.7.4.7c-.4.8.6-.2 2.3-2.1s3-4.4 2.9-5.5 1.6-5 3.7-8.5q8.6-14 8.5-12.4c0 .5-.6 1.8-1.3 3-5.3 7.6-5.5 9.2-.3 2.1 2.8-3.9 4.3-8.3 2.4-7q-1 .4-.6-.8t1.8-1.4q1.2-.1 1.8-1.4.4-1.4-.8-.6c-.7.4 1-3.4 3.6-8.6 2.7-5.2 5.6-9.4 6.4-9.4s2.3 1.5 3.4 3.4q1.7 3.1.8 2.7-1.1-.7-1.2-.1c0 1.3 4.6 9.4 5.3 9.5.5 0 0-1.6-1.2-3.6s-2-3.8-1.8-4c.3-.3 2.8 4 5.7 9.7s4.7 9.8 4.1 9.5c-1.8-1.1-1.3 1 .6 2.5q2 1.8.8 0-.8-1.5.4-.7 1 .8.5 1.7c-.9 1.4 4.5 10 5.8 9.3q1-.6.4.4c-.5.9 3 7.3 5 9.2 1.2 1-1.9-4.5-3.5-6.4-.9-1-1.1-1.7-.5-1.3s4.4 5.5 8.4 11.4 6.3 9.9 5 8.8-3-3.6-4-5.6-2.6-4.1-3.5-4.9c-2.4-2 4.5 9 7.9 12.5 1.5 1.7 2.5 2.4 2 1.6q-.7-1.5.5-.7 1 .8.6 1.7c-.7 1.1 5.7 9.3 21 26.8 3.9 4.3 7.4 8 8 8s-.6-1.6-2.5-3.7c-2-2.1.4.2 5.2 5 10.7 11 11 12.1 3.7 18.7a26 26 0 0 1-5.7 4.4c-1-.2-4.2 2.8-4.2 4q.1.7 1.3 0c.6-.4 0 .7-1.3 2.4a16 16 0 0 1-4 3.8c-.8.3-.2-.8 1.4-2.4 1.7-1.7 2.6-3 2-3-.5 0-2.2 1.7-3.9 3.7s-2.4 3.3-1.7 2.8c2-1.2 1.3 1-1 3q-3.2 2.9-.8-.1 1.6-2.3-1.3.4c-2.8 2.5-3.8 4.3-1.2 2.1q1.4-1 1.5-.2c0 1.1-2.2 3.1-3.2 2.9-.4-.1-2.2 1.6-4 3.8-5.1 6.1-6.4 8-5.2 7.2.7-.4 2.9-3 5-5.7 2-2.7 4-4.8 4.2-4.5a21 21 0 0 1-4 5.7c-2.5 3-8 10.3-12.3 16.3-7.3 10.4-11 15-9 11.5 1.2-2 12.2-17.9 14.3-20.5q1.2-1.5-1.4 1a267 267 0 0 0-18.1 26l-9.5 15.4c-.9 1.4-1.7 3.3-1.7 4 0 .9 3.1-3.8 7-10.4 6.3-10.6 11.4-18.2 7.8-11.5-6 10.9-14.3 23.9-15 23.4-.9-.5-5 5.3-4.9 7.1 0 1 .6.3 3.8-4.2q1-1.3-.6 1.7c-1 2-2.4 3.4-3 3.3s-2.1 1.5-3.3 3.7c-2.6 4.5-2.6 4.6-5.7 2.4-2.3-1.6-3-.6-1 1.4q1.1 1.1.6 1.2c-.4 0-1.7-1.5-3-3.2m-32-54.6q-1.3-2-2.2-2.1-.5.2 1 2.5c1.9 3 3 2.6 1.1-.4M45 167q-.1-.9-1-1-1 .1-.5 1t1 1 .5-1m-11.5-14.5q-9.6-10.8-.8.4a26 26 0 0 0 5.1 5.6c.3-.2-1.7-2.9-4.3-6M167 122.7c-.3-.1-2.7 2.2-5.5 5.3l-5 5.5 5.5-5.2a25 25 0 0 0 5-5.6m-4.5-8.2c-2.6-3-5-5.4-5.2-5.2s1 2 2.7 3.8c1.8 1.9 3.9 4.4 4.7 5.7q1.5 2 2 1.8c.4-.3-1.6-3-4.2-6.1m-150.3.5c2.3-2.2 4-4.2 3.7-4.5s-2.5 1.6-5 4c-5.4 5.6-4.4 6 1.3.5M27 98.5q2.1-2.3 1.4-2.5c-.8 0-5 5-4.1 5 .2 0 1.4-1.1 2.7-2.5M64.4 48c2.8-4.3 3.5-6.8 1-3.5-1.9 2.4-4.6 7.5-4 7.5a21 21 0 0 0 3-4M96 25.3q-1.8-2.8-.5 1.2.7 1.4 1.1 1.1c.3-.2 0-1.3-.6-2.3M82 16.7c1.7-3.2 2.6-5.5 2-5.2-.5.4-2.3 3.4-4 6.8-3.9 7.7-2.2 6.3 2-1.6m6.5-6Q87.7 9 86.2 9c-1.3 0-1.2.3.3 2q3.2 3.4 2-.4M77.5 221c-.9-1.6-1.3-3-1-3 .2 0 1.1 1.4 2 3s1.3 3 1 3c-.2 0-1.1-1.3-2-3m-3.7-6.2c-2.2-3.4-5.2-9.5-4-8.3a52 52 0 0 1 5.9 10.5c-.3 0-1.1-1-2-2.2m70.2-120c-1.3-1.8-5.5-7-9.2-11.5a50 50 0 0 1-6.2-8.3c.3 0 1.6 1.2 2.8 2.8s4.4 5.4 7.2 8.7c5.1 6 9 11.5 8.2 11.5-.2 0-1.5-1.5-2.8-3.2M57.5 55.6c1-1.4 2-2.6 2.2-2.6.7 0-1.7 3.9-2.8 4.6q-.8.3.6-2m49.8-10.9c-1.5-1.9-2.5-3.7-2-3.7.3 0 1.2 1.1 2.1 2.5 1.7 2.6 1.6 3.5-.1 1.3" style="fill:#d67c16"/><path d="M85.1 228.3A108 108 0 0 1 71 204.8c0-1-.8-2.2-1.8-2.7s-2.4-2.2-3.2-3.8-1.7-3-2-3.3c-.9-.9-3-4.4-4.8-8-1-2-2.3-4.1-3-4.8l-4.4-6c-3-4.5-5.1-7.1-7.3-9.6a413.1 413.1 0 0 0-33-39.1c-6.2-6-6.1-5.9-.8-11.2 2.7-2.6 8-8.4 11.9-12.8l8.1-9.3c.7-.7 3-3.4 5-6s4-5 4.3-5.2c.7-.7 6.1-7.8 8-10.6a686 686 0 0 0 16.3-24 25 25 0 0 0 2.7-5c0-.3 1.6-2.9 3.6-5.6a30 30 0 0 0 3.9-6.7c.2-1 1.5-3.7 2.9-6.2 1.4-2.4 3.8-6.8 5.2-9.7 2.4-4.7 2.8-5.1 4.3-3.8.9.8 2.7 3.7 4 6.3l3 5.3c.4.3 2 3.2 3.6 6.5s3.7 7.1 4.6 8.5A748 748 0 0 1 122 69c.3.3 3.7 4.3 7.4 9a399 399 0 0 0 29.6 34c2.3 2.5 5 5.7 6.2 7.3l2 2.7-7 7.3a383 383 0 0 0-30 35.5L126 170a497 497 0 0 0-26 40.5A121 121 0 0 1 88 230q-1-.2-2.9-1.7" style="fill:#e67c02"/></svg>