<svg xmlns="http://www.w3.org/2000/svg" viewBox="0 0 211 200"><path d="M103.4 195.8c-4.4-8.8-16-24.4-24.9-33.7A365 365 0 0 0 54 139.6C22.9 113.7 9.6 97 3 75c-3.5-11-3.3-27.7.3-37.8 3.3-9.4 7.5-15.9 14.8-22.6a56 56 0 0 1 76.4 2 76 76 0 0 1 11 13.4c.3 0 1.8-2 3.5-4.5A55 55 0 0 1 156.5.7 48 48 0 0 1 194.1 16a54 54 0 0 1 15.6 43.6c-1.4 25.9-15.9 48-50.7 77.6-28.7 24.3-40 36.7-48.8 53.7a62 62 0 0 1-4.7 8.2 11 11 0 0 1-2-3.2" style="fill:#ee9fa4"/><path d="M102 192.3c-9.8-17.4-23-32.2-46-51.7-27.4-23.2-36-32.4-44.6-47.3a74 74 0 0 1-9-50.7A53 53 0 0 1 68.2 3a56 56 0 0 1 32.4 21.4 50 50 0 0 0 5.3 6.5c.3.1 1.5-1.5 2.6-3.5a54.2 54.2 0 0 1 45-26 49 49 0 0 1 39 13.8C210 31.7 214.4 59.5 203 84.5c-7.5 16.5-20.5 31.6-46.5 54-29 24.8-37.1 33.9-46.3 51.1a84 84 0 0 1-4.8 8.4c-.2 0-1.8-2.6-3.5-5.7" style="fill:#b54e53"/><path d="M102.2 191.8C92 173.8 77.8 158 53.6 138 17.2 107.7 3.8 87.7 1.5 60a57 57 0 0 1 15.2-42.9A49 49 0 0 1 54.5 2q29.3 0 47.2 24.3c1.9 2.6 3.8 4.8 4.3 4.8s2-2 3.3-4.2c5.9-10.1 19.7-20 32.4-23.3 8.6-2.2 24.6-2 31.8.5a50 50 0 0 1 32.2 32.3c3.1 8.8 4.1 22 2.3 31-4.5 23.2-19.3 43.4-52 71.1-26.9 22.8-37.5 34.5-46 50.8a66 66 0 0 1-4.5 7.8c-.1 0-1.7-2.4-3.3-5.2" style="fill:#e12028"/><path d="M102.2 191.8C92 173.8 77.8 158 53.6 138 17.2 107.7 3.8 87.7 1.5 60a57 57 0 0 1 15.2-42.9A49 49 0 0 1 54.5 2q29.3 0 47.2 24.3c1.9 2.6 3.8 4.8 4.3 4.8s2-2 3.3-4.2c5.9-10.1 19.7-20 32.4-23.3 8.6-2.2 24.6-2 31.8.5a50 50 0 0 1 32.2 32.3c3.1 8.8 4.1 22 2.3 31-4.5 23.2-19.3 43.4-52 71.1-26.9 22.8-37.5 34.5-46 50.8a66 66 0 0 1-4.5 7.8c-.1 0-1.7-2.4-3.3-5.2m5.5-3.8a8 8 0 0 0 1.3-4.2c0-1.5.5-3 1.1-3.4q1.2-.7.4 1.7-1.3 4.2 1.5-1 1.5-2.6 0-1.6-1.2.8-.8-.6.6-1.4 2.6-2.5c2.1-1 2.1-1.1.4-2.7-2.2-2-2.5-4.7-.5-4.7q1.1 0 1.2-.7-.5-3 1.6-1.3 1.6 1.1 2.2.6.5-.7-.7-1.6c-1.7-1.1 0-1.3 2.5-.4q2 .7.4 1.5-1.2.7-.8 1.4c.3.3 1.4-.5 2.5-1.7q1.6-2 .8-1.5c-1 .6-6.4-3.4-6.4-4.8q.2-.6 2 1 3.3 3 1-1.6-1.2-1.8-3.7-1.9c-1.4 0-2.4.3-2 .6q.4.7-.6 1.9l-3.4 3.8c-1.2 1.5-2.9 2.4-3.6 2.1q-1.3-.3-1.4 1 .1 1.3 1.1.9.8-.5-.4 1.2-1.7 2-.2 2.2 1 .6.6 1.5c-.3.5-1.3 0-2-1.1-.9-1.2-2-1.9-2.5-1.6q-.8.6-.9-1 0-1.4-1-1.5c-1 0-.8-1.9.3-3.7q.7-1.1-1.3-2.3t-2 0c0 .6-.7 1.8-1.5 2.6q-1.3 1.3-1.5.5-.1-1-1-1.1c-1.9 0-4.7-3.3-3.2-3.8 1.6-.5 1.6-5.9 0-6.5q-1.6-.5.2-1.6 1.2-1 .7-1.7c-.3-.4-1.3-.2-2 .5q-1.5 1-1.9.2c-.5-1.3-6-1.8-6.5-.5q-.2 1 1.9 2c1.9 1 2 1.1.5 1.7q-1.6.6-1.7-.5 0-1-1.5.2c-1.7 1.4-2 3.5-.5 2.5q1-.4 1 1 .1 1.4 1 1t1 .4q.2 1 1.5 1.1 1.3 0 1.5-1t1.5-1q1.4 0 .9 1.5-.7 1.3-1.5 1c-1-.7-1.2 1.7-.2 3q.6.8-1-.8t-1.7-1.1c0 2.6 5.4 5.6 6.2 3.5.2-.5 1.4 0 2.7 1l2.4 2-2.1.6c-2.8.7-2.7 1 1 5.3 1.7 2 2.7 3 2.3 2.2q-.7-1.3 1.4-1.9t2.1-1.5q.1-.8 1.1-.2t-1.6 3.1c-2.7 2.5-2.8 4.6-.1 2.4q1.5-1.3 2-.1c.4.5 0 1.3-.8 1.6q-1.5.6-1.6 1.6.1.7 1 .3t1 .5q.1 1 1 .5t1 1q0 1.9 2.1 1.2 2.5-.8 1 .6c-.9.9-1.6.9-3.1 0q-2-1.3-2-.3.2 1 2.3 2 1.9.8.9 1-1.1.1-.7 1c.9 1.4 3.7.8 5.2-1m-13.3-15.4q.8-2-1-1.2-1.3.5-.9-.4c.7-1.2 3.5-1.4 3.5-.2 0 .4-.5 1.4-1.1 2.2q-1.3 1.9-.5-.4m-12.9-15.5q-.3-.9 1.5-1.6c1-.3 2-1.3 2-2q.2-3 3.6.6c1.9 2.2 1.9 2.2-1 1.7q-2.8-.5-3.3.8c-.6 1.6-2 1.8-2.8.5m36 13.9q.1-1.9-1-1.7-.9.6-.7 1.7t-1.5.6q-2.4-.9.1.9 3.1 2.6 3.1-1.5m-26.3-4.2c-1.2-1.2-3.5 0-2.7 1.2.3.5 1.3.6 2.1.3q1.5-.7.6-1.5m18.8-6.3c-1.2-1.4-1.2-1.8 0-2.5q1.2-.9.8-1.5-.8-.5-2.8 1.3l-2.1 2 2.3.6q2.2.8 1 1.3-1 .5-.6 1.4.3.8-.5.9-1 0-1.1-.9t-1.6-1.5-.8.5c.4.6 0 1.6-.7 2q-1.5 1.1.8.4 2.3-.6 2.3.7.1 1 2.2-1c1.8-1.8 2-2.3.8-3.7m15 2q0-1.5-1-1t-1 1.6q.1.8 1 .9 1-.1 1-1.6m-30-.4c0-1.4-1.8-2.3-3-1.6q-1 .7-.5 1.6c.8 1.2 3.5 1.2 3.5 0m10-3.2q-.2-.8-2.5-.9-2.3.1-2.5 1.4 0 1.4 2.5.8 2.3-.4 2.5-1.3m18.4.5q1.4-.6 1-1.5-.6-.7-1.6-.3-1 .6-.4-.5c.9-1.4-1.2-4.3-2.5-3.5q-.7.7.6 2.8c.8 1.2 1.2 2.6.8 3q-1.1 1.2 2.1 0m6.7-1.2q1.1-1.6.5-1-1 .6-2.3-1-1.8-2.3-.4.4c.6 1.2.7 2.4.4 2.8q-.5.5 0 .6.4-.2 1.8-1.7m-51.5-6c0-1 .4-2.8.7-4.2.4-2 0-2.6-1.3-2.7q-1.7 0-2.4 1.3-.5 1.3 1 1.4c1.7 0 1.7.1.4 3.4-.7 2-.6 2.6.3 2.6q1.2-.2 1.3-1.7m26.4.8q0-.9-1-1a1 1 0 0 0-1 1q.1 1 1 1t1-1m20 0q0-.9-1-1a1 1 0 0 0-1 1q.1 1 1 1t1-1m6-3.2q-.2-.6-1.8 1t-1.4 2.5c.4.8 3.1-2.2 3.2-3.6m-16.5 1.3q.3-.9-.5-1.6-.9-.5-1 1 0 2.6 1.5.6m20.5-.7q-.1-.4-1.5-.4t-1.5 1q.1.8 1.5.4 1.4-.7 1.5-1m2-.4q-1-1.8-1.6-2-.3.2.6 2 1 1.8 1.6 2 .3-.2-.6-2m-7.9-1.2v-2q0-.8 1.5-.8 1.7 0 1.1-2c-.3-1.1 0-2.3.5-2.6 1.5-1-1-2.2-3.3-1.7-2 .6-2.6 2.3-.8 2.3q.8.1.4 1t1.2 1q2.4 0-.2 1.1a9 9 0 0 0-3.3 3c-1 1.6-1 1.9.8 1.9q1.8-.1 2.1-1.2M72 145.6c0-2 0-2-1.3.2-1.2 2.1-1.4 2.1-3.2.5q-2.8-2.8-.1.4c2.1 2.6 4.6 2 4.6-1m23.4.8q.6-1.3 1.6-.9t1-.3c0-1.4-3.9-2.2-4.7-1q-.4 1 .5.4 1.1-.5 1.2.3-.1 1-1 1.1a1 1 0 0 0-1 1c0 1.6 1.7 1.2 2.4-.6m6 0q.7-1.9-.6-.7c-.7.6-2 1.3-2.8 1.6q-1.5.6.6.6c1.2 0 2.5-.6 2.8-1.5m33.9-1.3c.5-2.2-.1-3.3-1.4-2.5s-1.2 4.4 0 4.4q.8-.2 1.4-2m7.9.1q-1.1-.4-.6-1.3c.3-.5-.1-1.8-1-3-1.1-1.7-1.4-1.7-2-.4q-.4 1.4.5 1.5.9 0-.2 2.1-1 2 0 1.5t1.6.4 1.8.3q1.2-.7-.1-1m-34.2-1.4q.1-2.7-1-.8c-.5.8-.6 1.8-.4 2.2q1.4 2 1.4-1.4m16.5-.8q.5-.9-1-1-2.8-.1-.3-2.8 1.5-1.3 0-1.2-1.1 0-1-.7.5-3.3-2.2-3-2.9 0-2 3.2 0 .9-.6.3c-.4-.4-1.4-.2-2.2.5q-1.6 1.2-.9 0 .5-1.1-1-1.6-1.7-.4 1-.6 2.6-.1 2.7-1.6c0-1.5-.5-1.7-3.5-1.7s-3.5.3-3.5 2.6c0 2.5-2.5 4.3-3.4 2.3q-.4-1-.5.6c0 1.2.7 1.7 2.9 1.7 1.6 0 3 .5 3 1.1q0 1.1 1.5-.1 1.7-1.4 2.7-.2 1.2 1.5 2.5-2 1.4-3.7 2.3-1.8c1 1.6.3 3.3-1 2.5-1.6-1-1.1.7.7 2.6q2.8 3 3.8.9m-22.5-1.1q-.1-.9-1.2-1t1.1-.8c1.3-.3 2.5-1.4 2.7-2.4.3-2-2-2.3-3.2-.5q-.7 1.1.7.4 1.1-.5-.6.9c-1.1.9-2.8 1.4-3.7 1.2-1.5-.4-3.3 1.5-2.3 2.5.8.7 6.5.5 6.5-.3m-33.4-2.4q-.4-1.4.7-1.8t.7-1c-.3-.3-1.6.3-2.9 1.4q-2.7 2-.7 1.9 1.5 0 1 1.2-.7 1 .5.4 1.1-.9.7-2.1m80.4 1q1.6-1.8-.4-1-1.5.7-1.6 1.6 0 2 2-.6m-2.4-1.7 1.9-2.3-2.5 2-3 2.2q-.2.3.7.3c.5 0 1.8-1 2.9-2.2m-9.8-1.6q-.2-1.6 1-1.4 1.3 0 1-3 0-3.1-.5-1.4-1.2 4.6-6.7 4.8c-2 0-3.3.5-3 1 .4.6 2.2.8 4 .6 1.9-.2 3.4 0 3.4.4q0 .7.5.8.5-.2.3-1.7m-79.6-2.4q-1-1-2-.3-.5.8.6 1.2 1 .6.6 1.6-.7 1.2.7 0 1.5-1.3.1-2.5m94.5 1q-.5-1.1-.6.6t.5 1.3q.5-.6 0-1.9m-77.4-.9q-1.1-1.2-1.8.2-.7 1.2.3.5 1.1-.6 1.2.5t.7.6q.6-.7-.4-1.8m81.1-1q-.6-.8-1.7-.8t0 .6c1.1.4 1.1.8 0 2.1q-1.6 2.2.5.3 1.6-1.2 1.2-2.2m-91.2-.3c.4-2.1.2-2.3-1.6-1.7-1.2.5-3 .5-4.1 0q-1.7-.7-1.2-.8c1.7-.2-2.2-3.1-4-3-1.4 0-1.1.6 1.5 3 1.8 1.6 4.1 2.9 5.2 2.9q1.8 0 2 1c0 2 1.8 1 2.2-1.4m84.7-1.7c-1.2-.8-1.1-1 .1-1.9s1.3-1.1 0-2c-2-1.3-3.9-1.2-2 0q1.6 1.2.3 1.7t-.2 2.4c.5 1 1.5 1.7 2 1.3q1.2-.7-.2-1.5M54 131q-1.4-.8-2-.4-.2.6 1 1.4 1.4.8 2 .4.3-.6-1-1.4m57.7-2.2q-.5-1.1-.6.6t.5 1.3q.5-.6 0-1.9m-61.9-.1q2 .7.3-.5c-1.7-1.2-4.3-.4-3.4 1.1q.7 1.2 1 0 .6-1.1 2.1-.6m106.8-1.2q.1-1.3-.7-1-.8.5-.9-.4.1-1 1-1.1 1 0 .5-1t1-.4q1.4.4 1.5-.5c0-2.2-3.5-1-4.7 1.6-1 2-1 3-.1 4q1.8 2.2 2.4-1.2m6-1.5c-.4-3-1.2-3.3-1.2-.5 0 1.4.4 2.5.8 2.5q.7-.2.5-2M54 124.5q-1.3-1.6-4.4-1-2.7.3-1.9-.1c.7-.3 1.3-1.7 1.3-3s.5-2.4 1.2-2.4q1 0 .5-.7c-.4-.3-1.8.4-3.2 1.7s-2.5 2-2.5 1.4q-.1-.7-1 .6-1.1 2-1-.2.1-1.7 1-2.3c1.7-1 1.1-2.5-1-2.5q-3.8.2 0-3c1.2-1 2-2.3 1.7-2.7q-.3-.8 1.9-.9 2.6-.2 2.4 2.3 0 2.1-1 2.3a1 1 0 0 0-1 1c0 .6 1.4 1 3 .8s3-.6 3-1.1q-.1-.8-1.3-.4-1.4.7-1.2-2.8.3-3.3-1.1-4c-.8-.2-1.4-1.2-1.5-2.2q0-1.8-.8.7c-.4 1.4-1.4 2.4-2.1 2.2s-1.7.3-2.1 1q-1 1.6-.9-.3-.1-1.5-1.4-1.6-1.3.1-.9 1.4c.6 1.5-2.8 5.3-4.7 5.3a1 1 0 0 0-1 1q.2 1 1.5 1t1.5 1q.2.7 2 .3c1.5-.4 1.8-.1 1.3 1.8q-.6 2.3.5 1.5t1.2 2.6c0 2.9.2 3 1.1 1.4q1.1-1.6 1.8-.8c.3.5 2 1.2 3.9 1.5s3 .1 2.6-.4q-.3-.8.4-.9 1 .1 1.6 1.6.7 1.6 1.3 1c.3-.3 0-1.3-.7-2.1m14.1.2q-1.4-1.5-.5.6.6 1.6 1.2 1.2.4-.5-.7-1.8m6.4-.7q0-2.6-1.5-2.1c-.8.2-2 .4-2.7.4-1.9 0-.5 1.2 1.4 1.2 2.3 0 2.8 2.2.6 2.9q-2.3.5.2.3 2-.2 2-2.7M59 125q0-.9-1-1a1 1 0 0 0-1 1q.1 1 1 1t1-1m109.8-1.5q-.6-.4-1.2 1.2-1 2 .5.6 1.1-1.2.7-1.8m-88.1 0q0-1.3-.9-1.5c-1 0-1 1.4-.1 2.3q1.2 1.6 1-.8m4.7.3a2 2 0 0 0-1.5-.8q-.8.1-.9.8.2.8 1.5.9t.9-.9m11.8.3q.8-.1.8-1c0-.4-2.4-.7-5.2-.5-6.4.3-6 .2-5.5 1.2.4.6 5.1.7 10 .3m6.1-1.5q.6-1.5-.8-1-1.2.7-1 1.5 1 1.8 1.8-.5m25.7 0q0-.6-1-1.1-.9-.4-1 .4.1 1 1 1.1 1 0 1-.4m-73.5-3.4q.1-4.7-3.5-1.7c-2.3 2-1.5 4.7 1.3 4.3q2-.3 2.2-2.6M163 121q.2-.9 1.8-1c1.6 0 1.6-.1 0-1.4-2.4-1.8-2.3-4.6.2-4.6q1.8 0 2-1-.1-.8-1.5-.4-1.5.6-2.6-2c-.7-1.4-1.8-2.6-2.6-2.6-1.8 0-1.6.7.7 3.2 1.8 2 1.8 2.3.4 3.9s-1.4 1.8.3 2.9q1.9 1.2.6 1.6c-1.5.7-1.7 2.4-.3 2.4q1 0 1-1m10.2-1.8q-1-.5-.5-1.8t-.6-1.4q-1 .1-1.1 1t-2 1-2 1.1q.1 1.1 2.6.6 2.8-.5 2 1-1 2 1 .2 1.5-1.2.6-1.7m-64.5 1.2c-.3-.3-1.2-.4-1.9 0q-1.1.4.6.5c1 0 1.7-.2 1.3-.5m-34.7-.8c0-1.1-2-1.5-2.5-.6q-.5.9 1 1 1.3 0 1.5-.4m8.8-2.1q-.6-.4-1.2 1.2-1 2 .5.6 1.1-1.2.7-1.8m28.5-.7q.8-2-1.3-.8-4.1 2.4-1 2.6 1.7-.2 2.3-1.8m5.6 1.2c-.6-.5-1.8-.6-2.6-.3q-3 1.1 1.3 1 2.6 0 1.3-.7M89 117q-.1-.9-1-1-1 .1-.5 1t1 1q.5-.1.5-1m70 0q0-.9-1-1a1 1 0 0 0-1 1q.1 1 1 1t1-1m-57.5-1q.5-.9-1-.4-2.6 1.2-.6 1.4 1 0 1.6-1m4.1-.2q.8-1-.6-.3-1.5 1-.8-1.3.5-2-.3-1.6c-1.2.7-1.2 4.4 0 4.4q1 0 1.7-1.2m-48.1-.7c.7-1.2-1.2-2.4-2.5-1.6-1.1.7-.4 2.5 1 2.5q.8 0 1.5-1M79 115q0-.9-.4-1-.5.1-1.1 1-.4 1 .4 1 1-.1 1.1-1m95.5 0c-.3-.5-1.4-1-2.3-1q-1.5-.2-.4-.7c1.3-.5 1.7-3.9.4-4.6-.4-.3-1.4.2-2.2 1.1q-2 2 .2 1 1.8-.8 1.1.8-.6 1.2-1.7 1.5-.7.2 1.9 1.4c3.7 1.7 3.8 1.7 3 .5m-141.9-1.2q.6-1-.4-.4-1.1.6-1.2-.5t-.6-.6c-.6.5.3 2.7 1.1 2.7q.4 0 1.1-1.2m39.9-1.8q.3-2-.2-1.6-.7.8-1 2.8c-.4 2.8.6 1.8 1.2-1.2m45.4 1.3-2.4-2.8c-1.1-1.2-9.6-1.4-8.9-.3q.6.8 2 .8 1.5 0 .8 1.2-1 1.5.7.1c1.8-1.5 5.5-1 5.1.7q-.1 1 .7.6.9-.6 1.6.4.6.9 1.2 1 .4-.2-.8-1.7M157 112q0-1.8-1-2-.9.2-1 2 .1 1.8 1 2 1-.2 1-2m21 1.4-.6-1.8c-.8-2.2-2.3-2-2.1.2q.2 1.7 1.4 1.9 1.2 0 1.3-.3m-51.4-1.9q-.2-1.4-.8-2c-.5-.5-.4 1.5.1 3.3.3 1 .9 0 .7-1.3m55.4 0q1.6-1.8-.4-1-1.5.7-1.6 1.6 0 2 2-.6m-147-1.3c0-1-1.1-2.5-2.5-3.2s-2.2-1.7-1.9-2.2q.6-.8 1.7.1c.6.6 1.9 1.1 2.8 1.1q1.7.1 2.3 1.3.4.8 0-1-.4-2.1.4-2.3c1.4 0 2-4.7.8-6q-1.2-1.2.5-.5c2.2.8 4.6-2.2 3-3.8q-1.4-1.5-.6.5.6 1.7-.5 1.8-1-.1-.5-1t-.7-1q-1-.2 1-1.2c3-1.5 2.8-2.8-.8-2.8-2.3 0-3 .4-3 2q0 1.8-1 2-.9-.2-1-2 0-2-2-2-1.8 0-2 1c0 .4-1 1.2-2 1.5q-1.8.7-1.4 1.7.7 1.1-1 .5-1.5-.6-1.6.8T23.3 97Q21 97 23 98q1.3.9.7 1.6-.8.6-2.5-1c-1.9-1.9-1.9-1.9 5.1-7 3-2.3 3.4-3.8 1.2-5.6-1.7-1.4-5-.5-4 1.1q.7 1.2 1.6-.2c1-1.6 1.2-.8.3 1.5-.8 2.1-2 2-2.6-.2-.3-1 .5-3 1.8-4.6q2.5-3 2.4-1-.1 1.8 2.4 1Q32 83 33 84.7q.9 1.6 1.8.9.6-.8-.5-1.3C33.7 84 33 83 33 82q0-2-2.4-1.6-2.6.4-2-1.1.5-1.3-.5-1.4t-1.1.9-1.6 1.5q-2.2 1-.3-1 1.5-2 .1-1c-.7.4-2 .2-3-.6q-2.2-1.7-.4.3c1 1.4 1 1.8-.3 2.3q-1.4.5-1-.3t-.5-1.6c-.5-.3-1-1.5-1-2.6q0-1.7-1-1.9c-1.3 0-1.3 2.3.1 3.7.6.6.8 1.6.5 2.2-1 1.5-2.9 1.4-2-.2q1-1.5-.7 0c-1.8 1.8-3.4 1.6-1.9-.2s0-2-2-.2q-1.4 1.6-.8-.3c.3-.8-.2-2-1.1-2.8Q8 74.7 11.3 76c3.9 1.4 4.7 1.3 4-.5q-.4-1.5-2.7-.9-2.7 1-.7-1a8 8 0 0 0 1.3-4.6c0-1.6.6-3.4 1.4-4 2.2-1.9 3.7 3 1.6 5.3q-1.3 1.7-.9 2.4.7.4.7-.6-.1-1.5 2.5.3c1.4 1 2.5 1.2 2.5.7q-.2-.9-1.2-1.5-1.5-.6 0-1.2t0-2q-1.2-1.5 0-2.6c1.7-1.7-1.7-4-4.1-2.6q-5.3 2.8-5 7.1.1 2.7-1.3 3.4-1.3.6-1.4 2t-1 .8c-.4-.3.8 3 2.8 7.3 2.8 6 4 7.8 5.4 7.5q1.5-.5 1-2t.9-1q1.3.5 1.1 2-.4 1.8 2.5 1.7c2.7 0 2.7.1.8 1.6q-1.9 1.3-2.3.4c-.5-1.3-3.2-1.3-3.2 0q.1 1 1.6 1 1.6 0 .9 2.1-.8 2.3.4 1.5 1-.5 1.1.7.1 1.4 1.5 2c.8.4 2 1.8 2.7 3.2q1.1 2.4 3.5 2.5 3 0 2.4 3.2.1.6 2 .3c1-.2 1.9 0 1.9.6q0 .8.5.9.5-.1.5-1.8m-9.2-5-.2-2.2q-.2-1.4-1.4-1.2t.4-2.3c.9-1.4 2.1-2.5 2.8-2.5 2 0 4 1.9 3.2 2.7q-.8.6-1.3-.5-.5-1-1.4-1.2c-1.4 0-1 6.8.4 7.3q1 .5-.6.6t-1.9-.6m7-3q-.4-1.8.8-1.9 1.3.2 1.4 1.9t-.9 1.8q-.8-.1-1.3-1.8M19.3 87.9q-2.6-5.4 1.4-5.5c2.3-.2 3 1.4 1.4 3.1-.5.6-1 1.9-1.3 3-.3 1.6-.4 1.6-1.5-.6m-9.5-7c-1-1.6-1.5-2.9-1.3-2.9 1 0 4.5 4 4.5 5 0 2-1.5 1-3.2-2m110.6 30a2 2 0 0 0-1.5-.9q-.8.1-.9.8.2.8 1.5.9t.9-.9m8.7-1.2q-1.4-1.5-.5.6.6 1.6 1.2 1.2.4-.5-.7-1.8m5.5 1q.7.7.1-.1c-1.2-1.5-3.4-1.5-3.4 0q0 1.4 1.2.4 1.2-.8 2-.2m9.4-1.5q.1-2.2-1-.2c-1.3 2-1.3 3.3 0 2.5.6-.3 1-1.4 1-2.3m-115-.3q0-.8-1-.9-.9.1-1 1.6.1 1.3 1 .9 1-.6 1-1.6m68 1.1q-.2-.8-1.5-.4-1.3.7-1.5 1 .2.4 1.5.4t1.5-1m68.2-2.2c.2-1.9.9-2.3 3.3-2 2.9.2 3 .2 1-1.3-1.9-1.5-1.9-1.5 0-1.6 2 0 2 0 0-.9-1.8-.7-1.8-.9-.3-1.5q1.5-.8 1.1-2c-.4-1.2-.7-1.2-1.9 0-.8.7-1.4 1.9-1.4 2.6q.1 1.3-1.3 0c-2-1.6-2.7-.4-2.7 4.6 0 4.5 1.6 6 2.2 2m-56.1-1.2q.8.4.9-1t-2-1q-1.9.6-1.2 2.2.6 1.5 1 .4t1.3-.6m69.9.3c0-1.1-2.7-1.2-3.4-.1q-.2.7 1.5 1 1.7 0 1.9-.9m-83.6-1.1c-.7-1-3.4-1-3.4 0q.2.7 2 .8 1.6-.1 1.4-.8m24-1.7q-.5-.3-2.2 1.3-2.5 2.5.5.5 2-1.2 1.7-1.8m7.5.8q-1.6-1 0-.9 1 0 .7-1-.4-.7.6-1.3 1.5-.6 0-.6-1.2 0-1.9 1.5-.6 1.6-1.3.4-.7-1.1-2 .6-2 2.2.3 1.1 1.8-.6 2.3.8.7 1.3 1.6.9.9-.7-.3-1.5m58.5-.5q-2.5-1.7-.1-.8c1 .3 2.3.2 3-.4 1.2-1 1.5-6.7.5-7.8-.9-.8-2 5.4-1.3 6.7q.7 1.1-1.6.7-2.3-.2-2.7 1.2-.2 1.5 1.9 1.7c2 .2 2 .1.3-1.3m-47.9-.6q.7.6.2-.4c-.4-.6-1.8-1.2-3.1-1.2q-2.8-.1-1.3 1.3 1.1 1.3 2.3.4 1.1-.7 1.9-.1m41.5-.8q0-.9-1-1a1 1 0 0 0-1 1q.1 1 1 1t1-1m-134.2-2.4-2-1.5c-1.6-1.2-1.8-1.1-1.8.3q.1 1.5 1 1.1t1 .5 1 .5q1-.7.8-.9m97.9-.8q-.5-1.1-.6.6c0 1 .2 1.7.5 1.3s.4-1.2 0-1.9m-7.3 0q-.8-1.2 1.6-.5t1.2-.5c-1.3-1.3-4.6-.2-3.7 1.2q.6.9 1.1 1 .4 0-.2-1.2m13.6-1.3q2.2-2.7-.2-.6c-1 .7-1.8 1.8-1.8 2.4q0 .9.3.6zm32.5 1.3q.7.5 0-.6-.6-1.5-2-.1c-.9.6-1.5 1.4-1.5 1.6q.1.4 1.3-.6 1.4-.9 2.2-.3m-61.5-.1c0-.2-1-1.2-2.2-2.3l-2.3-1.9 1.9 2.3q2.6 3 2.6 1.9m56.6-.4c-1-1-3.7-1.2-3-.2q.6.8 2.1.9t1-.7m17.4-5.5q0-1.6-1.2-2.4-1-.6-.4.4.4 1-.5 1.7-.8.8-.5 2 .3 1.4-.4 2-1 .8-1 1.8c0 1.8 4-3.6 4-5.5m-10 2c-1.2-1.1-2.4-1.8-2.6-1.5-.8.8 2.9 4.7 3.9 4 .4-.3-.1-1.4-1.3-2.5m-42.8 1c-.5-.5-2-1-3.3-1.3q-3-.7-.7.9c1.9 1.4 5.4 1.8 4 .4m5.8.2q0-.9-1-1-.9.1-1.5 1t1 1q1.4-.1 1.5-1m18.7-1.6q-.6-.5-1.9 0-1.1.4.6.5t1.3-.5M178 95q-.1-.9-1.5-1-1.4.1-1.5 1 .1 1 1.5 1t1.5-1m3.7-2.7q1.5-2 1-.3 0 1.3 1.3 1.5c2.1 0 1.9-2.9-.2-3.3-1.6-.3-4.8 1.8-4.8 3.2 0 1.1 1.3.6 2.7-1.2m6.6-.7c0-1 1-2.2 2.3-2.8s2.4-2 2.4-3v-2.5q0-.7-1-1.2-1.2-.3-.5.9 1 1.5-1.3.1-4.8-2.6-3.7 1c1.2 3.6 1.3 5.3.4 7.7q-1 2.6.3 2c.7-.3 1.2-1.3 1.1-2.2m.3-5.2c-.4-1-.4-2-.1-2.2q.5-.4.5.6.1 1.1 1.6 1.2 1.3.1.9 1-1.6 2.2-3-.6m-30 3.4q-.4-1.1-.5.6c0 1 .2 1.7.5 1.3s.4-1.2 0-1.9m-3.5.3q.9 1.5.9.2c0-.6-.4-1.5-1-1.8-1.4-.9-3.2.4-2.3 1.8q.7 1.2 1.1-.2.4-1.5 1.3 0m41.6-4.7q-.5-2.7 1-2 1.3.4 1.3-1.4.1-2.2-2.2-1.6c-2.4.3-3.2 4-1.3 6.3q2.2 2.9 1.2-1.3M40 84q0-.9-1-.4t-1 1.6q.1.9 1 .4t1-1.6m6 1.7q-.2-.3-1.5-1-1.3-.4-1.5.4.2 1 1.5 1t1.5-.4m16.6-1.1c-1.1-.8-2.5-1.5-3-1.5q-.8.2 1.4 1.5 5 2.8 1.6 0M164 84q-.1-.8-1.5-.4-1.4.7-1.5 1 .1.4 1.5.4t1.5-1m5.4.2q.4-.8-1-.9-1.2 0-1.4.9 0 .7 1 .8a2 2 0 0 0 1.4-.8m31.3-6.4q-1-.7-.4-.8t.2-1q-.7-1.2-2.3.1-2.4 2 0-.5c1.3-1.5 2-1.6 4-.6 1.2.7 2 1 1.6.5q-.6-.8.2-2c.5-.6 1.1-3 1.3-5.2s.7-4.5 1.1-5.2q.6-1-.3-1.1t-.6-1.7c.1-1-.1-2.5-.6-3.4-1-2 0-6.1 1.2-5.3s1.1-1.7-.1-3.6q-.9-1.3-1-1l-.6 3.5c-.6 3.6-1.4 4.6-1.4 1.7 0-2.5-2.8-3-3.6-.7q-.7 1.5-2.5 1-2-.7-1.9 1.2 0 2 .9.5.7-1.6 2.5.4c1.5 1.5 2 1.5 2.7.3s1-1.2 1.9.1q1 1.5-.1 1.9-1 .3.2 1.2c2.5 1.5.2 2-2.7.4-4.2-2.2-5.9-2-3.5.6 1 1.2 2.4 1.8 3 1.4q1-.4 1.1.4.2 1 1.7 1.1 2 0 .5 1.2-1.4 1.4-2 .2c-1-1.5-4.2-1.4-4.2.2q.1 1.1 2 .7t2 .7 1.3.7q1.3-.4 1.3 2.3.1 3-1.1 2.4-1.2-.3-2 .5-.4 1 .8.5c.8-.3 1.8 0 2.2.5q.5 1-.2 1.2l-3.2.3c-1.3.2-2.8 1-3.2 1.9s-1.6 1.4-2.4 1q-1.3-.4-1.5.7 0 1 3.3.8c3-.3 3.2 0 3.6 3.2l.4 3.5.8-3q1-3-.4-3.7M58.8 80.6q2 .8.3-.4-1.2-1-.5-2.3 1-1.8-1 0c-.8.7-1.5 2.3-1.5 3.5q0 2.4.6.4.4-1.6 2.1-1.2M55 80q-.2-.8-1.5-.4-1.3.7-1.5 1 .2.4 1.5.4t1.5-1m15.7-.4c-.3-.7 0-1.9.6-2.5q1-1-1.6.1C68.2 78 67 79 67 79.3q0 .8 1 .2.8-.4 1.5.5c1 1.5 1.8 1.2 1.2-.4m2.6-.1q-.6-1.5-1-1.1-.4.6.2 1.5 1.7 2.3.8-.4m93.5.2q1.3-1.4-.8-1.4-2-.2-1.3 1.3c.6 1.7.8 1.7 2.1.1M64.3 77.5q-1-2.5-2.6-.8c-1 .8 1.3 3.4 2.4 2.8q.7-.6.2-2m106.7 1q0-.4-1-1-.9-.4-1 .4 0 1 1 1.1 1 0 1-.4m10.6-2.3q-2.5-2.5-.5.5 1.2 2 1.8 1.7.3-.5-1.3-2.2m-148.2.3c.4-1.2 0-1.4-2.4-1-1.7.3-3 .2-2.8-.2a9 9 0 0 0-1-3.3q-1-2.2-1.1-1.2c0 .6-.9 1.2-1.8 1.2-1.6 0-1.3 1.1.4 1.2.4 0 1.4 1 2.2 2 .7 1 2 1.7 2.7 1.4q1.3-.4 1.4.4c0 1.6 1.7 1.2 2.4-.5m19.5.2q1.4.6.9-.2c-1-1-5.8-1.5-5.8-.6 0 1.4 1.4 2.1 2.3 1.2.5-.5 1.7-.7 2.6-.4m3.4-1.2q-1.2-3-1 .4c0 1 .5 1.8.9 1.5q.6-.5.1-2m34.7 0c0-.2-1-1-2.1-1.6q-2.2-1.2-1.5 0c1 1.5-.7 1.4-2.4-.1q-1.7-1.6-.2.3c.6.9.8 2 .4 2.4q-.5.7.5.1Q87 76 87 77q0 1.2 2 0 1.8-1 2-1.5m99.5 1.5q.4-.9-.4-1-1 .1-1.1 1 0 1 .4 1 .6 0 1.1-1M168 75q0-.9-.4-1-.6.1-1.1 1-.4 1 .4 1 1-.1 1.1-1m18.1-1.3q-1.4-1.5-.5.6.6 1.6 1.2 1.2.4-.5-.7-1.8M63 74q.1-.8 1-.4t1-.4c0-1.4-1.7-1.4-2.5 0q-.6.8-1.6.4-.8-.5-.9.4.2 1 1.5 1.1 1.3-.1 1.5-1m14-1.3q-.8-1.2-.3-2 .4-.5-.5-.6c-1.5 0-1.6 1.7-.2 2.5q.9.7.4 1.7t.5.4q1.2-.8.2-2m83.7.2q-.5-1.1-.6.6c0 1 .2 1.7.5 1.3s.4-1.2 0-1.9m-79.3 0a2 2 0 0 0-1.5-.8q-.8.1-.9.8.2.8 1.5.9t.9-.9m82-1.2q-.6-1.5-2-1.6-1.6-.2.3 2 3 3.3 1.7-.4m8.3 1.7q-1.6-.5-1.7-1.8t1.5-.9q1.4.5 1.5-.5-.2-1-2-1.1-1.8.1-2 1.6 0 1.4-1.2.9-1-.6.6 1c1.1.8 2.7 1.4 3.5 1.4q2 0-.2-.6m11.3.3q0-.5-1-1.1-.9-.4-1 .4 0 1 1 1.1 1 0 1-.4M8.2 68.8q-.9-.9-.7 1.4.4 4.7 1.2 1.4c.3-1 0-2.2-.5-2.8m99.5 2.8q.3-.4-.6-1-1-.6-1.1.5.1 1.4-1.4 0c-.7-.6-2.7-1-4.4-1-1.6.2-3.7-.3-4.5-1-1.3-1-1.5-1-1 .8.4 1.6 1.2 1.9 4.9 1.6 2.4-.1 4.1.1 3.9.6-.5.8 3.3.4 4.2-.5m90.5-.3c.8-1 1.4-2.5 1.4-3.3-.1-1.9-5.4-2.6-7-1-.8 1-.2 1 2.9.5 2.2-.4 3.6-.3 3.2.2q-.9.7-1.8 1-.9 0-1.1.3c-.9.9-4.8.5-4.8-.4q0-.9-.9.2-.8 1.3-1.7 1.2-.8 0-1.2.9-.1.9 5 .6 5.3-.4 3.8.5-1.3.9-.4 1c.6 0 1.8-.8 2.6-1.7M61 71.6c0-1.1-2-1.5-2.5-.6q-.5.9 1 1 1.3 0 1.5-.4m26-1.2q-.2-.4-1.5-.4T84 71q.2.8 1.5.4 1.3-.7 1.5-1m91.5-.2q-.5-.4-1.8.7-1.5 1.4.6.5 1.6-.6 1.2-1.2m-85.8-.8c-.3-.3-1.2-.4-1.9 0q-1.1.4.6.5c1 0 1.7-.2 1.3-.5m3.7-2.9c-.7-1.6-2.4-2-2.4-.6q-.1 1 2.7 2 .1-.1-.3-1.4m7.2-1.5c0-2.3-1.2-1.7-1.9 1q-.4 1.8.7 1.4c.6-.2 1.2-1.3 1.2-2.4m81 .5q.1-1.2-.7-1-1 .5-2.6-.7-2-1.6.2 1.4c2 2.7 2.7 2.8 3.1.3M9 66.5q0-.4-1-1-.9-.4-1 .4.1 1 1 1.1 1 0 1-.4m68.4-2.7q-.6-.7-1.5-.3-.8.5-.9-.4.1-1 1-1.1c1.9 0-1.4-2.7-4-3.4q-2.2-.4-1.1 0 1.6.6 0 1.6-1.5 1 .8.3c1.2-.3 2.4-.2 2.6.3.7 1-.7 3.4-1.9 3.2q-.8 0-1.2 1.2-.5 1.5.6 0c1.4-2 2.2-2 3.4.2q1 2.1 1.9.5c.4-.7.5-1.7.3-2.1m-47.4.6q-.1-.3-1.5-.4-1.4 0-1.5 1 .1.8 1.5.4 1.4-.7 1.5-1m30 1c0-.8-2-1.3-2.4-.6q-.4.8 1 .9 1.2 0 1.4-.3m50.6-.6q.6-1-.4-.4-1.1.6-1.2-.5t-.6-.6c-.6.5.3 2.7 1.1 2.7q.4 0 1.1-1.2m11.8-.3q.4-1.3-.4-1.5-1 .2-1 1.5t.4 1.5q.3-.2 1-1.5m-2.4 0q0-.4-1-1-.9-.4-1 .4.1 1 1 1.1 1 0 1-.4m75.3-.2c-.7-.2-1.9-.2-2.6 0q-.8.5 1.3.5 2.2 0 1.3-.5M10.7 62.5c-.8-2 1-3 2.8-1.5q1.7 1.6 1.5-.4 0-1.5-1-1.1-1 .5-1-.3-.1-.9-2.3 0C8.2 60.5 7.6 64 9.8 64q1.3 0 .9-1.5m80.3 0c0-2.5 2.4-4.3 5.3-4 1.5.2 3 0 3.3-.6q.5-.9-.3-1c-7.3-.4-10.3-.4-10.3.2q.1.8 1.3 1.2 1.1.5.2 1.4c-1.3 1-1.6 4.3-.4 4.3q.8-.1.9-1.6m-84.2-2q-.6-.4-1.2 1.2-1 2 .5.6 1.1-1.2.7-1.8m132.2 1q-.2-.3-2-.2-1.7.1-1.4.9c.4.6 3.4 0 3.4-.7m-111.6-1q.4-1.3-.3-1.5-.9 0-1.3 1.2t-2.4.4c-1.9-.7-1.9-.8.1-2.3q2.1-1.6.3-1-1.6.6-2.1-1.5-.9-2.2 1.4-1.5c2.1.6 2.1.5 1.3-1.7q-.6-1.2-2-1-1.4.7-1.4-1.5 0-2 1.2-2.1c2.4 0-.7-1.8-3.7-2.2-2.7-.3-3 0-3.3 3-.2 1.8.1 3.2.7 3.2q1-.2 1.1-2t1-2c.6 0 1 1.4 1 3 0 3.9.1 4.2 1.7 5.8q1.1 1.3.7 2.4c-.8 1.2 1.4 2.8 3.7 2.8q1.7-.2 2.3-1.5m84.3 0q.7-.7-.6 0-1.5.9-.6-.4.7-1.5 1.8-.2a4 4 0 0 0 2.7 1q1.4 0 .3-.6c-2.4-.9-1.3-2.8 1.4-2.7 3.6.2 8.3 2 8.3 3.3q.2 1 1.5.5 1.3-.8 1.5-2.3.1-2-1-.1c-.7 1.2-1.2 1.1-2.8-.7-1.4-1.7-2.6-2-5.4-1.8-3 .4-3.7.1-4.3-1.8q-.7-2.8-1.2-.5c-.5 2.2-1.9 2.3-2.6.4-1-2.4 3.4-3.2 5-1q1.4 2.2 1.3.2c0-1.8 5.7-3 6.3-1.4q.3.8.4-1.8.2-3.3-.9-1.3-1 1.6-2 1.7-.8 0-.4-1 .5-.7-.6-1.3c-1.4-.6 2.4-1 5.5-.8q1.6.1 1.7-.7.2-1 2-.5 2 .5 2.6-1.1c.5-1.4.9-1.4 2.2-.4q2 1.8.3-1c-1-2-1-2.2.9-2.2 1 0 2 .5 2 1q0 1-1.2.4-1-.6-.4.4c1 1.7 2.6 1.5 2.6-.3 0-.9-1.1-2-2.5-2.7q-2.3-1-2.5-2c0-1.3 1.8-1 2.3.4q.4 1.1 1.2.6c1-1-2-3.9-3.1-3q-.6.5.5-1c1.4-1.8 3.7-2.6 2.7-1q-.5 1 1 2.2 1.5 1.6 1.4-.3c0-.8.3-2.2.6-3.1q.4-1.5-.6-1.6-1 0-.4 1.2.7 1-.5.4-1.5-.7.5-2.7c.9-1 2-1.6 2.4-1.4 1.2.7 4-.5 4-1.7q-.2-.9-1.8-.6c-1 .3-2.3 0-3-.8-1.4-1.6-1.6-6.4-.2-6.4q1.6-.1 1 4.4 0 1.6 1 1.2c.5-.4 1-1.9 1-3.3 0-2.3.2-2.4 1.7-1.2 1.3 1.1 1.7 1.1 2 .1.6-1.5 4.3-1.6 4.3 0q-.1.9-1.5.5c-2-.8-3.1 1.3-1.4 2.4 1.2.8 1.2 1 0 1.8q-1.2 1-.8 2.5c.9 2.2 3.9 2 3.6-.1-.3-3 0-5.7.7-5 1 1 4.7-3 4-4.2q-.5-1 .3-1.1c.6 0 1.1 2.1 1.1 5 0 2.7.5 5.2 1 5.5q1 .4 1-2c0-1.3.5-2.5 1-2.5q1-.1.6-.8t1-.9q1.4 0 1.4 2.9c0 2.2.5 2.8 2 2.8q1.9.1 1.5 1-.5 1 1 1 1.4 0 1.5-1t2-1 2 .9 2 1.4c2.2.6 2.9-1.8.8-2.6q-1.1-.4-.6-1.2 1-.5 2.9 1.6c1.9 2.2 2 2.2 1.7.4q-.4-2 1.9-2.3c1.2-.2 2.4-1 2.7-1.8q.7-1.7-1.4-.9c-1.6.5-2 .2-2-1.4 0-2-2-2.8-3.3-1.4-1.1 1-6.7 1.3-6.7.3q.1-1 1.5-1.1c2.8-.3 3.3-.4 4-1q.8-.7 2.3-.2 1.5.6.8-.5-.5-1 .4-1.7c1.3-.8 1.3-2.5 0-2.5q-.9.1-1 1.4c0 2.7-4 3-6.4.6l-2.1-2.2 2.4 1.2q2.3 1.2 3.3.2t-.8-.9c-1.6.2-1.9-.5-1.8-4 0-3.3-.2-3.9-1-2.8q-1 1.5-2.6.4-2-1.4.2-.5 1.8.5 1.1-1-.5-1.5-2.5-.8c-1 .3-2.6 0-3.5-.8q-1.8-1.5-1 0 .7 1-.2 1.2c-.5 0-1.3-.4-1.6-1-1-1.8-2.4-1-2 1q.3 1.8-.5 1.5t-1.3.7q-.3 1-.2-.2c.2-1.7-1.8-4-3.5-4q-1 .1-.5 1t-1.4-.2q-2.2-1.5-2.9-.2c-.4.6-1.9 1-3.3 1q-2.7-.1-2.2 1.1.3 1.2-1 1.3c-2.4 0-2 1.5.3 1.7 2.5.2 5.3 3 4.5 4.4q-.7 1-1.8-.4-4-4.5-4.2 1.2c0 2.8-.4 3.6-1.7 3.5q-1.7 0-1.8.8t-1.2.5c-.7-.2-1.8.3-2.5 1.2q-1 1.4-2 .8c-.4-.4-.1-1.2.6-1.6q1.1-1 .6-2-.7-1.1 3-.8c4.7.6 5.2-.6 1-2.3q-3.5-1.4-3.5-3.2c0-1.6-.3-1.7-2-.8-1.2.7-2.8 1-3.5.6-.7-.2-2.1.2-3.2.9-1.6 1.2-1.3 1.3 3 1 2.6-.2 4.7 0 4.7.5q.1 2.8-1.6 2.2-1 0-1 1.2 0 1.3 1.5 1 2-.8-.1.9-1.9 1.4-.6 2.5 1 1 .3 2-.7.5-1.2-.6-1-2.4-3.9.3c-.8.8-2.2 1.1-3 .8q-1.8-.7-1 .6c.4.6 1.6 1 2.7.6q2.2-.9 1.2 1.2c-.6 1.6-.5 1.7 1.2.3q1.7-1.2 1.2-.4-.6 1.3 1 2.5 1.5 1.2 1 .3c-.4-.6.2-1.9 1.2-2.8 1.6-1.5 2-1.5 4 .3s2.1 2 .4 3c-1.3.7-2 .5-3-.7q-1.4-2.4-1 1.3c.1 2.2-.3 3-1.7 3.3-1 .2-2.3-.3-2.8-1.2q-.9-1.6-1.9-1-.8.4-.9-.6.1-1 1.4-.8 1.4.3 1.5-.7c.1-1.3-2-1.4-3.8 0q-1.4 1.1-1.8-.2a2 2 0 0 0-1.8-1.3q-1.4 0-2-1t1.1-.3q2 .9 1-1.1c-.3-1-.6-2.2-.6-2.7q0-1-1-.4-.7.4-1.5-.5c-.3-.5-1.2-1-1.8-1q-1.2 0-.2.8c.6.4 1 1.6 1 2.7a6 6 0 0 0 .8 3.3q1.1 1.4-.7.6-1.5-.4-1.6.5c0 1.7-3 1.3-3.7-.5q-.5-1.9-2.4 1.5a9 9 0 0 1-3.8 3.6q-2 .6-2.1 1.5t-1.6.3-1-2.9-1.3-3.3c-1-.6-2.1-.7-2.5-.4q-.5.3-.6-2c0-1.5-.5-2.7-1-2.7q-.9-.1-1-1.5c0-1.8-1.6-2-2.4-.2q-.4.8 0-1.2.7-2.4-.5-1.7-1 .5-1.1-.3-.2-1-2.5-1.1c-2.7 0-3 .7-1.5 3q1.1 1.8 1 0 0-1.1.6-.7.5.8-.6 2.2t-.4 1.4h2.7c1.5 0 1.6.4.7 2.2-.7 1.1-.9 2.8-.5 3.7q.9 2-1.3-.3c-1-1.1-1.5-2.3-1-2.6s-.4-2.1-2.1-4-2.7-3.5-2.1-3.7q.9-.4 1-1.8t1-.9q1 .5-.1-1.4-1.3-1.8-2-1-.6 1-1.5 1.1c-.5 0-1.5.3-2.2.5s-2.2-.5-3.4-1.8q-2.2-2.4-1.5-.7c1 2.9-1.7 4.7-5.7 3.8q-3.4-.7-4.5.3-2.4 2.6.5 2.7 1.3.1.9 1c-.3.6-1.3 1-2.1 1q-1.4 0-.8-1.2.6-1-.4-.4-1 .8-.5 2.1c.7 2 4.3 2 4.3 0 0-1.7 3-3.4 4.8-2.8 1.4.6 1.6 5 .2 5.8q-.9.6-1 2c0 2 3.7.7 4.3-1.6.3-1 1.1-1.9 1.9-1.9q1.5-.1-.1 1-1.7.8.5 1.2c1.8.5 1.8.5-.1 1.3a7 7 0 0 0-4.5 6.1c0 2.4 2.3 4.8 3.5 3.6q.7-.5.1.5c-.4.7-1.7 1.8-2.8 2.4-1.8 1-2 .9-1.5-.5q.5-1.5-.3-1.6c-.6 0-1-1.5-1-3.2 0-3-.2-3.1-1.2-1.3-.7 1.1-1.8 2.6-2.5 3.3-1.6 1.7-1.7 4.6-.1 3.6q1-.7.3.6c-1.4 2.3 1.7 2.9 4.9.9s7.1-2.6 6.1-1q-1 1.7 4 2.7 2.3.3 2.5-.6c0-1.9 4.3-.6 4.6 1.3q.1 1.6-.8 1.7-.7.2-.3 2c.6 1.7.2 2-2.9 2h-3.4l1.4 3c.9 1.7 2 3 2.6 3q.9 0-.2 1.5-1.6 1.8.4 1 2.8-1 .5-3.2-1.2-1.1.2-1.8 1.2-.7.5.3-.5 1.1.9 1.2t1-1c-.3-.5.5-2.1 2-3.6 2.3-2.3 2.7-2.4 4-1 2 2 3 2 5 0 1.3-1.4 1.7-1.4 3 0 2 2 1.9 5.6-.2 7.3q-1.5 1.3-.7 1c1-.6 4.6 2.8 3.8 3.6q-.1.3 2 .3c1.4-.1 2.9-.6 3.3-1m-5.5-2c-1.8-2-1.5-3 .5-1.4q1.5 1.3 2 1.1.2 0 .4.5c.1 1.4-1.6 1.2-2.8-.2M90.6 45.1q-.4-.9.4-1.5t1.6.4q.7.9 1.7.4t.4.4c-.9 1.4-3.3 1.6-4 .3m6-.1q.6-.9 1-1 .5.1.5 1-.1.9-1 1-1-.1-.5-1m4.5.6c0-.3 1-1 2-1.6 2.4-1.3 6.2.2 4 1.5q-1.3.8-1.8-.3-.4-1.3-2.3-.2-1.7.9-1.9.6m15.5-.6q.6-.9 1-1 .5.1.5 1-.1 1-1 1t-.5-1m6.3-2.7q1.2-.4 2 .1.3.5-1.4.5t-.6-.6M83 40.1c0-1.1-.5-2.1-1.1-2.1q-1 .1-.5 1.6.5 1.3-.4 1c-.5-.4-.8-2-.7-3.6q.1-3 2-3 1.6.1 1.3.8-.2.7 1.5 1 1.7 0 1.9-.9-.1-.9-1.2-1-1.3 0 .2-.9c.8-.5 2.3-.7 3.3-.4s2 0 2.2-.9q.6-1.2 2-1.4 1 .1.8 1.4-.5 1.1-1.2.9c-.3-.2-1.5.3-2.6 1.1-2 1.5-2 1.5.3 1q2-.4 1.6.4-.6.8-2 .9T89 37.1q.1 1 1.3.6 1.4-.4 2.8.4c1.2.7 1.1 1.1-.3 2.5-1.5 1.5-2.1 1.6-4.4.5-2-.9-3-.9-4 0q-1.5 1.5-1.4-1m12 .6c0-1.2 3.4-4.7 4.5-4.7.3 0 .3 1 .2 2-.5 3.1-4.7 5.5-4.7 2.7m28.5-1.7q-.3-1 1.9-1c1.4 0 2.8.5 3.1 1q.3 1-1.9 1c-1.4 0-2.8-.4-3.1-1m.4-4.2-.4-2.1q-.5-2.2 1-.6 1.3 1 1 2c-.6.9-1.4 1.2-1.6.6M78 32q-1.2-.9-.7-1.6.8-.5 1.9.4c1.5 1.5.7 2.4-1.2 1.2m3-.5q.1-1.4 1-1.5 1 .1 1 1.5T82 33q-.9-.2-1-1.5m4-1q1.2-1.4 2-1.5.9.1.4 1.5-.7 1.4-2.1 1.5-1.9.1-.3-1.5M81.5 27q.7-1 1.6-.5 2 1.4-.7 1.5-1.3-.1-.9-1M92 27q.2-.9 2-1 1.8.1 2 1-.2 1-2 1t-2-1m74.5.2c-1.6-1.1-1.5-2.9 0-2.9q1.4 0 1.5 1 .1.7 1.3 0 1.3-.6-.2 1c-1.6 2-1.3 1.9-2.6 1M171 26q.1-.9 1-1 1 .1 1 1t-1 1a1 1 0 0 1-1-1m-88.5-3q.6-.9 1.6-1 .8 0 .9 1-.1 1-1.6 1-1.3 0-.9-1m-7.8-1.4q-.6-1.5.8-1 1.3.7 1 1.5-1 1.9-1.8-.5m-8-3q-.6-1.5.8-1 1.3.7 1 1.5-1 1.9-1.8-.5m77.3 0c0-.8 3-1.4 3.4-.8q.3.7-1.5 1c-1 0-1.9 0-1.9-.3m23-1.6q0-.9 1-1 .9.1 1.5 1t-1 1q-1.4 0-1.5-1m-6.3-2.4q-.6-1.5.7-1c.7.3 1.9-.2 2.6-1.1 1.2-1.4 1.1-1.8 0-2.7q-1.8-1.2.3-.4c1 .3 2.5.6 3.3.6q1.3.2 1.4 2t-1 2a1 1 0 0 1-1-1c0-1.8-1.8-1-2.3 1-.6 2.3-3.2 2.7-4 .6m-8.2-1.7q-.6-1-.3-1.4c.7-.7 4.8.7 4.8 1.6 0 1.3-3.7 1.1-4.5-.2M8.3 54q.6-.5-2-.5c-3.1.1-3.6 1.1-2.7 5.6.5 2.3.6 2.3 2.2-1 .9-2 2-3.8 2.5-4.1M4 56.6Q4.1 55 5 55q.9 0 1 1-.1.9-1 1.5t-1-1M82.5 60q.4-.9-1.2-1-2 0-.5-.9 1.7-.9-.3-1.5c-2.3-.8-2.2-.9-2.2 1.9q0 2.5 1.8 2.5 1.6 0 2.4-1m-50-2q0-1.6-.7-1.4-.7.6-.8 2 .1 1.3.8 1.4.7-.2.8-2m97.7-1.2q-1.1-1-1.2-.2c0 1.4 1.2 2.6 1.9 1.9q.3-.5-.7-1.7M28 56.5c-.6-.8-.8-2-.4-2.6q.6-1.2-.4-.5c-1.5 1-1 4.6.6 4.6q1.8.2.2-1.5m164 .5q0-.9-.4-1-.6.1-1.1 1-.4 1 .4 1 1-.1 1.1-1M15 55q0-.9-1-1a1 1 0 0 0-1 1q.1 1 1 1t1-1m67.7-.6c-.3-.3-1.2-.4-1.9 0q-1.1.4.6.5c1 0 1.7-.2 1.3-.5m17-2c-.3-.4-1.4-.3-2.4 0-1.5.6-1.5.8-.3 1.6 1.6 1 3.9-.4 2.7-1.6M95 53.6q-.1-.5-1-1.1-.9-.4-1 .4.1 1 1 1.1 1 0 1-.4M83.6 48c1.7-.7 3-1.8 3-2.6q0-1.5-1.1-.5c-.7.6-2 .8-2.9.4q-1.5-.6-1.6 1-.1 2.8-2.7.5-1.2-1.3-2.5.2c-2 2.1-2 3.9-.2 3.9q1.5 0 .8 1.3-.4.9 1.7-.9c1.3-1.1 3.8-2.6 5.5-3.3M7 51q0-.9-1-1a1 1 0 0 0-1 1q.1 1 1 1t1-1m132-1.6c0-.8-2-1.3-2.4-.6q-.4.8 1 .9 1.2 0 1.4-.3m63.7-2.6q-.5-1.1-.6.6t.5 1.3c.3-.3.4-1.2 0-1.9m-8.2.2q.4-.9-.4-1-1 .1-1.1 1 0 1 .4 1 .6 0 1.1-1M8 45.5q.1.7 1-.6.9-1.7 0-4.9c-.5-1.8-.7-3.7-.4-4.1q.5-.8 0-.9c-.3 0-1 1-1.6 2q-1.2 2.2 0 3.5c.7.8.9 2 .5 2.6q-.8 1.2-1.6-.2c-1-1.7-1.2.1-.3 2.6q.6 2 1.5.3.8-1 1-.3m23.4-.6q-.3-.8.5-.9 1 .1 1.7 1.1.6 1.2 1.4-.2.9-1.5 2.2-.1 1.5 1.5 1.6-1.9c.2-2.9-.4-3.3-4.2-3q-1.7.2-1.1-.8t1.6-.6q.8.6.9-.4.2-1 1.5-.5t1.5-.5q.1-1 1-1.1c.6 0 .8 1.1.6 2.4q-.5 2.6 1 2c1.4-.6 1.8-2.2 1.4-5.9q-.5-4-2-1.5-1 1.5-.4-1.7t-.5-3.3q-1-.2-1-2.2v-2.3l1.1 2.3q1 2 2 2.2.7.2.8 2 0 1.7 1 2.5c1 .6 4-2.1 4-3.7q.2-.9 1.5-.4t1.5-.8a2 2 0 0 1 1.3-1.9q1.2-.4-1.2-2.6L48.7 21l2.3-2c2.7-2.4 3.8-2.6 2-.5q-1.6 1.6.4 1.5 1.7.2 1.6-3.7c0-2-.3-3.4-.6-3q-.7.5-2.2-1c-1.1-1.1-1.2-2-.4-3.8q1.2-2.5 0-3.1C50 4.2 46 4 46.3 5.2q0 1-1.2 1.6-1.4.5-.7-1 .5-1-.8.6c-1.4 1.7-1.6 1.8-1.6.3Q42 5 41 5q-.7.2-.3 2c.6 2.4-.5 2.6-2.2.4q-1.4-2.3-1 .7c.1 1.3.7 2.3 1.3 2.2q.9 0 .7 1.5l-.4 2.4q-.1.8-1 .8-.8-.1-.4-1.9c.6-2.3-3.5-5.5-5.2-4q-1.1.7-1.7.4c-.3-.3-2 .8-3.8 2.5s-3.7 3-4.3 3q-1 0-.4.6c.3.4 0 2-.8 3.5-1.9 3.5-1.9 4-.1 3.3q1.3-.4 2 .4.3.8-1.7.7c-1.2-.1-2.7 0-3.2.4q-1 .5-2.3.7-3.4.7-1.2 2.5 1.9 1.2-1.2.6c-2.3-.3-2.6-.2-1.8 1.4 1.3 2.3 1.3 4.2 0 3.4q-.9-.4-1 .4.1 1 1 1.2l2 .3c1.2.1 1.3.6.5 2.8q-.8 1.5-2 1.1Q11 38 11 39q0 1 1 1.1t1 2 1 2q.8-.2.4-1.7-.9-2.4.8-.2c1.7 2 6.8 3.1 6.1 1.2q-.5-1.2 1.5-1.3 1.8-.2 2.5-1.2.4-1.1 1.2-.6c.5.5 0 1.8-1 3q-1.7 1.9-.9 1.5 1.1-.5 1.7.7.6 1.3 3.1.9 2.3-.6 2-1.4m-2.4-2q.2-.8 2-.9t2 .4q-.2.4-2 .9t-2-.4m6.4-.4c-1.8-1.4-1.8-1.4.4-.8q2 .6 2.2 1.4c0 1.2-.3 1.1-2.6-.6M15 38.6c0-.7.8-2 1.8-2.7q1.5-1.2 1-.4c-.5.5.6 1.7 2.4 2.7 2.8 1.4 3 1.7 1.1 1.8-1.2 0-2.4-.6-2.7-1.3q-.6-1.5-1.2 0c-.8 1.7-2.4 1.6-2.4 0m12.5-.5q.6-2-1.5-3.4c-1-.7-1.7-1.7-1.3-2q.4-.6-1.1-.7-1.7.2-2.3 2-.6 1.7-1.4 1.4a1 1 0 0 1-.4-1.5q.5-.7-1-.3-1.4.4-1.5-.5T15.4 32c-1.4 0-1.4-.1 0-1.6q1.6-1.4 2.8-.7c1.6 1 8.7 1.3 8.6.4q-.2-3 1.5-3.1 1.2 0 1.2 3.6l-.2 3.6 1.8-2.3 1.9-2.4v4.3c0 2.4-.5 4.2-1.1 4.2q-1-.2-.6-1.4.6-1.5-.8-1c-.7.3-1.2 1.4-1 2.5q.3 1.9-1.1 1.9t-1-2m-3.4-.4c-.9-1.2-.8-1.6.3-2 1.9-.7 3.2 1 1.9 2.4q-1 1-2.2-.4m10.1-9.2q-1.1-1.3-.4-1.5c.5 0 1.5.7 2.2 1.5 1.6 2 0 1.9-1.8 0M21.5 27q.4-.7-.7-1.2-.8-.5 2.2-.5 3.2 0 2.2.5t-.8 1q.3.8-1.5 1-1.7 0-1.4-.8m22.3-.7q1.2-.4 2 .1.4.6-1.4.5t-.6-.6m-15.5-2.2q1.6-1.7-.6-.8-1.6.6-1.2-.3.3-1-2.2-2.1c-2.6-1-2.7-1.2-.8-2q1.8-.7 1-.9-.7-.1.9-1.5t1-2.7q-1-1.5.7 0c1 1 1 1.7.2 3q-1.2 1.9-.1 3.3 1.2 1.6.4-.4-.6-1.8.6-1.4c.7.2 1.2 1 1 1.5q0 1 1.6.6 2.4-.9 0 .6-2 1.1-.9 2.8 1.1 2-1 1.8-2.1.1-.6-1.5m14.4-3q-3.1-3.2-.2-3.1 1.3.1 1.5 1 0 1 1 .6.7-.4.3 1.4c-.6 2.4-.6 2.4-2.6.2M37.5 20c-1.6-1.7-1.6-2-.2-2q1.4-.2 2-1.2.5-1.1 1.2-.6.6.8-.5 2.3T40 20t1.1 1c0 1.6-1.5 1.2-3.5-1M30 17.5c-.6-.8-1-2.2-.8-3.1.3-1.6.4-1.6 1.8.1q1.3 1.7.3 1.1Q30 15 30 16q.2.9 1.8 1.3t.6 1q-1.2.6-2.4-.7m12.6-2.4q-.3-.8 1.3-1.4 2-.4 1.6-3Q45 7.7 47 8c2.3 0 2.3.4.3 3.5C46 13.5 46 14 47 14q1.6-.1-.1 1c-1.9 1.2-3.7 1.3-4.4.1M33.5 12q-.4-1 .4-1 1 0 1.1 1 0 1-.4 1t-1.1-1m15-6q.6-.9 1-1 .5.1.5 1-.1.9-1 1-1-.1-.5-1m101 38.2c-.8-.8-2.5 1-1.9 2q.7.9 1.5-.3.6-1.2.4-1.7m40.3.3c1-2.3 1-2.5-1-2.5q-2.6-.1-.9 1c1.2.7 1.2 1.1.2 2.4q-1.3 1.5-.4 1.6c.5 0 1.5-1.1 2.1-2.5m3.7-.7c1.3 0 3.5-1.8 3.5-2.9q-.1-.7-1.7-.2-1.7.8-.8-.7.8-1.3-.3-.6c-.6.4-1.7-.2-2.4-1.4-.7-1-2-2-2.8-2q-1.7 0 .4 1.5 2 1.4 1.9 5.7 0 3.9.6 2.5.7-1.7 1.6-1.9m5.2.2c.2-2.8-1.4-2.5-2 .4q-.3 2.3.7 2 1.1-.6 1.3-2.4M43.2 42.8q-1.1-1.2-.5 1.3.6 2 1 1c.3-.7 0-1.8-.5-2.3M203 42q0-1.8.9.4.9 2 .9.5c0-2.6-2.5-5-5.2-5q-2.9 0-2 1.5.4 1.8 2 .4c1.7-1.5 3-.3 1.5 1.3q-2.4 2.5.3 2.5 1.3-.1 1.6-1.6M65 42.6q-.2-.4-1.5-1-1.3-.4-1.5.4.2 1 1.5 1t1.5-.4m81.6-4.3q-.5-.5-.6.5-.2 1.1-1.7 1.2-2.2-.1-.3 1 1.4.9 2.3-.6t.3-2.1m-84.2-.8q.4-1.3-.4-1.5a1 1 0 0 0-1 1q-.2.7-1.7 1.3-2.1.5.3.6 2-.1 2.8-1.4m4.6-5.2q-.2-1.4-2-2t-2-2q-.1-1.2-1-.7c-.7.3-1 1.5-.7 2.5s0 2.2-.6 2.6q-.8.7 1.2 1.5 2.2.9 1.8 2.2t0 2c.7.7 3.3-4 3.3-6.1m-2.7 1.2q0-1.3.9-1.5.7 0 .8 1a2 2 0 0 1-.8 1.4q-.8.4-.9-1m80.7 3.4c0-1.4-1.7-1-2.3.5q-.6 1.5.9 1 1.2-.7 1.4-1.5m6.4-.4q-.7-1.3-1.6-.9-.9.7.3 1.5c1.9 1.2 2 1.1 1.3-.6m6-1c-.8-2-1-1.9-1.7.4q-.5 2 .9 1.4 1.1-.5.7-1.9M13 36q0-.9-1-1a1 1 0 0 0-1 1q.1 1 1 1t1-1m46-3.1q.1-3.6-1.3-2-1.4.9-2.2.3-.8-.5 0 .6.6 1.1 1.6.7.8-.4.9 1.4 0 2 .5 2.1c.3 0 .5-1.4.5-3.1m95.6-1.7c-1.1-1-1.5.4-.8 2.8l.7 2.5.3-2.3c.2-1.3.1-2.6-.2-3m9.7 3.3q-.6-1.4-1-1.1-.4.6.2 1.5 1.7 2.3.8-.4m3-1c-.6-1.7-2.3-2-2.3-.5q.1 1 1 1t.4 1.2q-.6 1 .4.4t.5-2.1M197 35q0-.9-.4-1-.6.1-1.1 1-.4 1 .4 1 1-.1 1.1-1m-93-1.4q0-.5-1-1.1-.9-.4-1 .4.1 1 1 1.1 1 0 1-.4m89-1.6c0-.5-.9-.8-1.9-.7q-1.7.2-1.4 1.3c.5 1.3 3.3.8 3.3-.6m7 1q-.1-.9-1-1-1 .1-.5 1t1 1q.5-.1.5-1M53.3 31.5q-.1-1-1.6-1.1-2.4-.3 0 .3 2 .4.2 1.5-1.5 1 0 .6 1.1-.4 1.4-1.3m108.1.4c-.6-1.1-4.1-1.2-4.8-.1-.2.4.9.8 2.5.8q2.6.1 2.3-.7m33.6-.4q-1.1-1.4-.4-1.5t-.9-1q-1.6-1.1-1.2-2 .6-1 0-1c-.2 0-1 1-1.6 2.1q-1 2-.1 1.5c.5-.3 1.7.3 2.7 1.4 2.1 2.3 3.3 2.7 1.5.5m-62.7-.2c-.7-.2-1.9-.2-2.6 0q-.8.5 1.3.5 2.2 0 1.3-.5m-73-5.8c-.6-2.8-1-3-2.6-1.2q-3 3.5.7 3.7c2 0 2.2-.4 1.8-2.5m56.1 1.6q.5-.8-1-1.5-1.3-.5-1.4 1c0 1.5 1.6 2 2.4.5m40-.7q.5-1.5-.6-1.2c-1.5.5-2.3 2.8-1 2.8q1-.1 1.6-1.6M67.5 26c-.3-.5-1.3-1-2.1-1q-1.3.1-.9 1c.3.6 1.3 1 2.1 1q1.3 0 .9-1m3.5-.5q1.6-1.6-.4-1.5-1.5.1-1.6 1.5 0 1.4.4 1.5c.2 0 1-.7 1.6-1.5m-9.3-1q0-1.3-.9-.9-.7.6-.3 1.5 1.3 2 1.2-.6M187 23q0-3-1.5-3c-1.3 0-1.4.4-.5 2 .6 1.1.8 2.5.5 3q-.4 1 .4 1c.6 0 1.1-1.4 1.1-3m8 2q-.2-.9-1.7-1-2.2-.1-.3 1c1.9 1.2 2 1.2 2 0M61 21q0-.9-1-1a1 1 0 0 0-1 1q.1 1 1 1t1-1m68-2.6q-.1-.4-1.5.6-1.3 1.2-1.5 2.2.2.8 1.5-.6c.8-.8 1.5-1.8 1.5-2.2m-6 2.2c0-1.1-2-1.5-2.5-.6q-.5.9 1 1 1.4 0 1.5-.4m59.5-.5q-.3-.9 1.7-1.3t2.6-1.6q.3-1.3-1.4-1-2 .5-1.9-2.3 0-2.6-1.1-2.2-1.2.2-1.7-1.4-.5-2.3-.6-.1 0 1.7.9 2.3c1.3.8 1.3 4.5 0 4.5q-1 0 0 2 1 1.8 1.6 2 .5 0 0-1M63.4 18.4q1.4-3.1-.6-1.8-1 .6-.4-.5.7-1 1.6-.6.8.4 1.4-.4c.9-1.4-2.1-2.1-3.2-.8-1.4 1.8-2.1 4.4-1.5 5.1q1.6 1.5 2.7-1m-4.7-3c-.3-.3-1.2-.4-1.9 0q-1.1.4.6.5c1 0 1.7-.2 1.3-.5M73 12.6c1.8-2 2-2.4.7-3q-1.5-.5-.9 1.2 1 2.2-1 .3c-1-.7-1.5-1.7-1.2-2q.3-.7-1-.8c-1.9 0-1.9.2 0 2.1C71 12 71 12 69.6 12q-1.3 0-1.5 1 .1.8 1.7.3 1.6-.7 1 .5c-1.3 2-.2 1.4 2.2-1.2m-12.9.2q0-.7 1-.3.9.5.4-1c-.5-1.1-1-1.2-2.5-.4-2.3 1.2-2.5 2.6-.4 2.6q1.3 0 1.5-1m20.7-.4c-.3-.3-1.2-.4-1.9 0q-1.1.4.6.5c1 0 1.7-.2 1.3-.5m-23.6-1.7c1.9-1.4 1.1-4.1-1.3-4.3q-1.7-.2-1.2 2.2c.2 1.3 0 2.4-.6 2.4q-.9 0-1-1.2 0-1-.6-.5c-.8.8.5 2.7 2 2.7.6 0 1.8-.6 2.7-1.3m9.9.2q-.1-.9-1-.4t-1-.4q.1-1 1.3-1.1 1.3 0 .1-.8A6 6 0 0 1 64.6 6q-.5-1.2-.2.8T64.1 9c-1.7 0-.6 2.6 1 2.7 1 .1 1.9-.3 1.9-.8m72.7-.6c-.8-.9-2-1.2-2.6-.9q-2.7 1.8 1.5 2.3c2.4 0 2.5 0 1.1-1.4m-7.2-.3q.5-.9-.4-1c-.5 0-1.3.5-1.6 1q-.5 1 .4 1c.5 0 1.3-.4 1.6-1m4.5-2q1.2-.9.5-1a6 6 0 0 0-2.5 1q-1.2.9-.5 1a6 6 0 0 0 2.5-1M69.5 6c-2.7-1.2-4.3-1.2-2.5 0 .8.5 2.2 1 3 1q1.5-.1-.5-1m72.2.4q-.6-.5-1.9 0-1.1.4.6.5t1.3-.5M62 5q1.2-.9.5-1A6 6 0 0 0 60 5q-1.2.9-.5 1A6 6 0 0 0 62 5" style="fill:#d8232b"/><path d="M103.5 193.8c-1.6-3.3-1.6-3.3.2-1l2 2.3 2.3-4.6a23 23 0 0 1 3.3-5.2c.4-.3-.6 2.2-2.3 5.6a32 32 0 0 1-3.5 6.1c-.2 0-1.2-1.5-2-3.3m1-3.8q.6-.9 1-1 .5.1.5 1-.1 1-1 1t-.5-1m-8.7-8.2c-11.1-16.3-19.3-24.7-45.3-46.3a183 183 0 0 1-34.4-35.6C10.8 92 4 78 4.1 75c0-.8 1.4 2.3 3.3 7 1.9 4.5 4.7 10.4 6.3 13C19.5 104.2 36 123 36 120.4c0-.6-1-2-2-3-1.2-1-1.8-2.4-1.5-3.1q.3-1.2-.5-.8-1 .4-1-.4-.1-1-1.6-1.1-1.6.1-.9-2.2 1-2.3-.8-1.5c-1.8.7-10.3-8.8-8.7-9.8q.9-.5 1 1 0 2 3.3 1.6.6 0 .5.7c-.6 2.2 1.5 5.2 3.8 5.2q3 0 2.5 3.2.1.5 1.7.3 1.6 0 2.4.9t.8-1c0-1.2-1-2.6-2.5-3.4-1.3-.7-2.2-1.7-1.9-2.2q.6-.8 1.7.1c.6.6 1.9 1.1 2.8 1.1q1.7.1 2.3 1.3.4.8 0-1-.4-2.1.4-2.3c1.4 0 2-4.7.8-6q-1.2-1.2.5-.5c2.2.8 4.6-2.2 3-3.8q-1.4-1.5-.6.5.6 1.7-.5 1.8-1-.1-.5-1t-.7-1q-1-.2 1-1.2c3-1.5 2.8-2.8-.8-2.8-2.3 0-3 .4-3 2q0 1.8-1 2-.9-.2-1-2 0-2-2-2-1.8 0-2 1c0 .4-1 1.2-2 1.5q-1.8.7-1.4 1.7.7 1.1-1 .5-1.5-.6-1.6.8T23.3 97Q21 97 23 98q1.3.9.7 1.6-.8.6-2.5-1c-1.9-1.9-1.9-1.9 5.1-7 3-2.3 3.4-3.8 1.2-5.6-1.7-1.4-5-.5-4 1.1q.7 1.2 1.7-.2 1-1.6.4.4l-.6 2.3q0 .4-.9.4c-2 0-1.7-3.8.5-6.4q2.5-3 2.4-1-.1 1.8 2.4 1Q32 83 33 84.7q.9 1.6 1.8.9.6-.8-.5-1.3C33.7 84 33 83 33 82q0-2-2.4-1.6-2.6.4-2-1.1.5-1.3-.5-1.4t-1.1.9-1.6 1.5q-2.2 1-.3-1 1.5-2 .1-1c-.7.4-2 .2-3-.6q-2.2-1.7-.4.3c1 1.4 1 1.8-.3 2.3q-1.4.5-1-.3t-.5-1.6c-.5-.3-1-1.5-1-2.6q0-1.7-1-1.9c-1.3 0-1.3 2.3.1 3.7.6.6.8 1.6.5 2.2-1 1.5-2.9 1.4-2-.2q1-1.5-.7 0c-1.8 1.8-3.4 1.6-1.9-.2s0-2-2-.2q-1.4 1.6-.8-.3c.3-.8-.2-2-1.1-2.8Q8 74.7 11.3 76c3.9 1.4 4.7 1.3 4-.5q-.4-1.5-2.7-.9-2.7 1-.7-1a8 8 0 0 0 1.3-4.6c0-1.6.6-3.4 1.4-4 2.2-1.9 3.7 3 1.6 5.3q-1.3 1.7-.9 2.4.7.4.7-.6-.1-1.5 2.5.3c1.4 1 2.5 1.2 2.5.7q-.2-.9-1.2-1.5-1.5-.6 0-1.2t0-2q-1.2-1.5 0-2.6c1.7-1.7-1.7-4-4.1-2.6q-5.3 2.8-5 7.1.1 2.7-1.3 3.4-1.3.6-1.4 2.1t-.9.7c-1.3-1.5-2.2-13.3-1-14q.8-.6.9-1.8-.1-.8-1.3.6c-1 1.6-1.2 1.3-1.3-2.3-.1-2.2.3-4 .8-4q.9.1.4 1.6-.5 1.3.4.9 1-.6 1-2 .1-1.3 1.3-1.9.8-.4-1.6 0c-3 .7-3.2 0-2-5.6q.5-3.3 1.4-1.8 1 1.5.9 0 0-1 .9-.8c1 .7 2.4-2.2 1.6-3.4-1.5-2.4-1.2-8.5.6-11.7C15.3 21 26 10.5 21.5 19c-1.9 3.6-1.9 4-.1 3.4q1.3-.4 2 .4.3.8-1.7.7c-1.2-.1-2.6 0-3.2.4-.5.3-1.6.6-2.3.7q-3.4.8-1.2 2.4 1.9 1.1-.8 1c-2 0-2.1.4-1.6 2.6q.8 2.9-.5 2-1-.5-1.1.3.1 1 1 1.2l2 .3c1.2.1 1.3.6.5 2.8q-.8 1.5-2 1.1Q11 38 11 39q0 1 1 1.1t1 2 1 2q.8-.2.4-1.7-.9-2.4.8-.2c1.7 2 6.8 3.1 6.1 1.2q-.5-1.2 1.5-1.3 1.8-.2 2.5-1.2.4-1.1 1.2-.6c.5.5 0 1.8-1 3q-1.7 1.9-.9 1.5 1.1-.5 1.7.7.6 1.3 3.1.9 2.3-.6 2-1.4-.4-.8.5-.9 1 .1 1.7 1.1.6 1.2 1.4-.2.9-1.5 2.2-.1 1.5 1.5 1.6-1.9c.2-2.9-.4-3.3-4.2-3q-1.7.2-1.1-.8t1.6-.6q.8.6.9-.4.2-1 1.5-.5t1.5-.5q.1-1 1-1.1c.6 0 .8 1.1.6 2.4q-.5 2.6 1 2c1.4-.6 1.8-2.2 1.4-5.9q-.5-4-2-1.5-1 1.5-.4-1.7t-.5-3.3q-1-.2-1-2.2v-2.3l1.1 2.3q1 2 2 2.2.7.2.8 2 0 1.7 1 2.5c1 .6 4-2.1 4-3.7q.2-.9 1.5-.4t1.5-.8a2 2 0 0 1 1.3-1.9q1.2-.4-1.2-2.6L48.7 21l2.3-2c2.7-2.4 3.8-2.6 2-.5q-1.6 1.6.4 1.5 1.7.2 1.6-3.7c0-2-.3-3.4-.6-3q-.7.5-2.2-1c-1.1-1.1-1.2-2-.4-3.8q1.2-2.5 0-3.1t-1.6.4Q49.8 7 48.8 7t.1-1.4c1.2-1.4 7.6-2 12.2-1 2.4.4 5 4.4 3 4.4-1.7 0-.6 2.6 1 2.7 1 .1 1.9-.3 1.9-.8q-.1-.9-1-.4t-1-.4q.1-1 1.3-1.4 1.5-.6 0-.6Q65 7.9 65 6.6c0-1.1.8-1 4.8.1 7.7 2.4 14.2 5.5 14.2 7q0 1.2-.7 1.1a6 6 0 0 0-2.6.7q-1.7.8-3.9-1.6t-1.5-.7c1 2.9-1.7 4.7-5.7 3.8q-3.4-.7-4.5.3-2.4 2.6.5 2.7 1.3.1.9 1c-.3.6-1.3 1-2.1 1q-1.4 0-.8-1.2.6-1-.4-.4-1 .8-.5 2.1c.7 2 4.3 2 4.3 0 0-1.7 3-3.4 4.8-2.8 1.4.6 1.6 5 .2 5.8q-.9.6-1 2c0 2 3.7.7 4.3-1.6.3-1 1.1-1.9 1.9-1.9q1.5-.1-.1 1-1.7.8.5 1.2c1.8.5 1.8.5-.1 1.3a7 7 0 0 0-4.5 6.1c0 2.4 2.3 4.8 3.5 3.6q.7-.5.1.5c-.4.7-1.7 1.8-2.8 2.4-1.8 1-2 .9-1.5-.5q.5-1.5-.3-1.6c-.6 0-1-1.5-1-3.2 0-3-.2-3.1-1.2-1.3-.7 1.1-1.8 2.6-2.5 3.3-1.6 1.7-1.7 4.6-.1 3.6q1-.7.3.6c-1.4 2.3 1.7 2.9 4.9.9s7.1-2.6 6.1-1q-1 1.7 4 2.7 2.3.3 2.5-.6c0-1.9 4.3-.6 4.6 1.3q.1 1.6-.8 1.7-.7.2-.3 2c.6 1.7.2 2-2.9 2h-3.4l1.4 3c.9 1.7 2 3 2.6 3q.9 0-.2 1.5-1.6 1.8.4 1 2.8-1 .5-3.2-1.2-1.1.2-1.8 1.2-.7.5.3-.5 1.1.9 1.2t1-1c-.3-.5.5-2.1 2-3.6 2.3-2.3 2.7-2.4 4-1 2 2 3 2 5 0 1.3-1.4 1.7-1.4 3 0 2 2 1.9 5.6-.2 7.3q-1.5 1.3-.7 1c1-.6 4.6 2.8 3.8 3.6q-.1.3 2 .3c1.4-.1 2.9-.6 3.3-1q.7-.8-.6-.1-1.5.8-.6-.4.7-1.4 1.8-.2a4 4 0 0 0 2.6 1q1.6 0 .3-.6c-2.3-.9-1.2-2.8 1.5-2.7 3.6.2 8.3 2 8.3 3.3q.1 1 1.5.5 1.3-.8 1.5-2.3.1-2-1-.1c-.7 1.2-1.2 1.1-2.8-.7-1.4-1.7-2.6-2-5.4-1.8-3 .4-3.7.1-4.3-1.8q-.7-2.8-1.2-.5c-.5 2.2-1.9 2.3-2.6.4-1-2.4 3.4-3.2 5-1q1.4 2.2 1.3.2c0-1.8 5.7-3 6.3-1.4q.4.8.4-1.8.2-3.3-.9-1.3-1 1.6-2 1.7-.8 0-.4-1 .5-.7-.6-1.3c-1.4-.6 2.4-1 5.5-.8q1.6.1 1.7-.7.2-1 2-.5 2 .5 2.6-1.1c.5-1.4.9-1.4 2.2-.4q2 1.8.3-1c-1-2-1-2.2.9-2.2 1 0 2 .5 2 1q0 1-1.2.4-1-.6-.4.4c1 1.7 2.6 1.5 2.6-.3 0-.9-1.1-2-2.5-2.7q-2.3-1-2.5-2c0-1.3 1.8-1 2.3.4q.4 1.1 1.2.6c1-1-2-3.9-3.1-3q-.6.5.5-1c1.4-1.8 3.7-2.6 2.7-1q-.5 1 1 2.2 1.5 1.6 1.4-.3c0-.8.3-2.2.6-3.1q.4-1.5-.6-1.6-1 0-.4 1.2.7 1-.5.4-1.5-.7.5-2.7c.9-1 2-1.6 2.4-1.4 1.2.7 4-.5 4-1.7q-.2-.9-1.8-.6c-1 .3-2.3 0-3-.8-1.4-1.6-1.6-6.4-.2-6.4q1.6-.1 1 4.4 0 1.6 1 1.2c.5-.4 1-1.9 1-3.3 0-2.3.2-2.4 1.7-1.2 1.3 1.1 1.7 1.1 2 .1.6-1.5 4.3-1.6 4.3 0q-.1.9-1.5.5c-2-.8-3.1 1.3-1.4 2.4 1.2.8 1.2 1 0 1.8q-1.2 1-.8 2.5c.9 2.2 3.9 2 3.6-.1-.3-3 0-5.7.7-5 1 1 4.7-3 4-4.2q-.5-1 .3-1.1c.6 0 1.1 2.1 1.1 5 0 2.7.5 5.2 1 5.5q1 .4 1-2c0-1.3.5-2.5 1-2.5q1-.1.6-.8t1-.9q1.4 0 1.4 2.9c0 2.2.5 2.8 2 2.8q1.9.1 1.5 1-.5 1 1 1 1.4 0 1.5-1t2-1 2 .9 2 1.4c2.2.6 2.9-1.8.8-2.6q-1.1-.4-.6-1.2 1-.5 2.9 1.6c1.9 2.2 2 2.2 1.7.4q-.4-2 1.9-2.3c1.2-.2 2.4-1 2.7-1.8q.7-1.7-1.4-.9c-1.6.5-2 .2-2-1.4 0-2-2-2.8-3.3-1.4-1.1 1-6.7 1.3-6.7.3q.1-1 1.5-1.1c2.8-.3 3.3-.4 4-1q.8-.7 2.3-.2 1.5.6.8-.5-.5-1 .4-1.7c1.3-.8 1.3-2.5 0-2.5q-.9.1-1 1.4c0 2.7-4 3-6.4.6l-2.1-2.2 2.4 1.2q2.3 1.2 3.3.2t-.8-.9q-2 .4-2.2-2.7c-.4-3.4 1.4-5.8 2.7-3.7q.8 1.1 2 .7c.5-.3 1.7.8 2.5 2.5q2.8 5.5.6 6-.9.5.5 2.4 1.6 1.8 1 .8-.4-1.1 1.7-1.5 2-.4 2.6-1.6.3-1.3-1.4-1-2 .4-2.2-2c-.2-1.2-.8-2.2-1.3-2.2q-.8-.1-.9-1c0-1.6 5.8 2.6 11.3 8.3 2.7 2.7 5.2 4.6 5.5 4.2.4-.4-2.5-3.7-6.3-7.4C181.3 6.4 174.5 3.8 158 3l-12.5-.6 11-.2c9-.2 12.4.2 17 1.8a50 50 0 0 1 32.2 32.3c2 5.8 2.6 9.4 2.9 18.2l.2 11-.8-11a59 59 0 0 0-6.6-25.8c-2-3.9-2.7-4.5-3.8-3.5-1.2 1.1-1.1 1.4.4 2 1.9.7 2.8 2.4 4 7.5.8 3.1.6 3.3-2 3.3q-3.2 0-2.4 1.5.6 1.8 2 .4c1.8-1.5 3.2-.3 1.6 1.3q-2.4 2.5.3 2.5 1.3-.1 1.6-1.6 0-2 .6-.1c.3.8 1 1.8 1.6 2.1s.6 1.5.2 2.5-1 3-1.2 4.4c-.6 3.2-1.3 4-1.3 1.2 0-2.5-2.8-3-3.6-.7q-.7 1.5-2.5 1-2-.7-1.9 1.2 0 2 .9.5.7-1.6 2.5.4c1.5 1.5 2 1.5 2.7.3s1-1.2 1.8 0q1 1.5 0 2.2-1.1.6.2 1.1 1.2.5.8 1.2c-.3.3-2 0-3.5-.9-4.2-2.2-5.9-2-3.5.6 1 1.2 2.4 1.8 3 1.4q1-.4 1.1.4.2 1 1.7 1.1 2 0 .5 1.2-1.4 1.4-2 .2c-1-1.5-4.2-1.4-4.2.2q.1 1.1 2 .7t2 .7 1.3.7q1.3-.4 1.3 2.3.1 3-1.1 2.4-1.2-.3-2 .5-.4 1 .8.5c.8-.3 1.8 0 2.2.5q.5 1-.2 1.2l-3.2.3c-1.3.2-2.8 1-3.2 1.9s-1.6 1.4-2.4 1q-1.3-.4-1.5.7.2 1 3.3.9c4-.4 4.9-.8 4.1-2q-.7-.9-2.2.3-2.2 1.5-.4-.2c.7-.8 2.4-1.5 3.7-1.5 2 0 2.2.2 1.4 1.7q-1 1.7-2 1.8c-.5 0-.9 1.4-.9 3 0 3-2 8-4.3 10.8-.8 1-1.3 1-2.6 0q-1.4-1-.9-.4c.4.5.3 1.5-.2 2.2-.6.6-1 1.6-.9 2 .1.5-.3 2-1 3.4l-1.1 2.5.3-2.8c.3-1.5 0-3-.4-3.2-1-.7-2.2 5.1-1.4 6.6q.7 1.1-1.6.7-2.5-.3-2.7 1.6-.4 1.8.7 1.1 1-.6.6-1.6-.5-.7 1.9 0c2.1.9 2.8.6 4.9-2.2 3.8-5 10.3-16.8 12.2-22 1-2.6 2-4.6 2.2-4.3 1 1-5.9 15.1-11.2 23.1-7.6 11.5-19.8 24-38.5 40-23.2 19.6-30.1 26.7-42.3 43.5l-1.8 2.5 1.2-2.5c2.5-5.4 14.4-19.3 24.3-28.6a51 51 0 0 0 10-10.7q-.7-.7-1.6.7c-.5.9-1.6 1.6-2.4 1.6q-1.3 0-.9-1c.3-.5 0-2-.8-3-1.2-1.8-1.5-1.8-2-.5q-.5 1.4.4 1.5.9 0-.2 2.1-1 2 0 1.5c2-1.3 2.2 1.4.1 3.6-2 2.1-2 2.2-3.6.2q-2.1-2.9-.5.1c.8 1.6.3 2.5-2.6 5.3-3.3 3-3.7 3.1-5 1.5q-1.8-2.5-.4.3c.8 1.7.6 2.6-1 4.4-1 1.3-1.9 1.8-1.9 1q-.1-1-1-.5-1 .8-.6 2.1c.3.8-.3 2-1.4 2.6s-2 1.8-2 2.4-.8 1.8-1.7 2.5q-2 1.9-1-.4.6-1.8-.4-1.5t-.9 1.2q0 1-1.2 1.7-1.5 1 0 .9 1 0 1.2 1.2 0 .9-1.8-.5c-2.2-2-2.5-4.7-.5-4.7q1.1 0 1.2-.7-.5-3 1.6-1.3 1.6 1.1 2.2.6.5-.8-.7-1.7-1.7-1.2 1.5-.4l3 .6-2.7-2.4c-1.6-1.3-2.8-2.8-2.8-3.2q.2-.6 2 1 3.4 3 1-1.6-1.2-1.8-3.7-1.9c-1.4 0-2.4.3-2 .6q.4.7-.6 1.9l-3.4 3.8c-1.2 1.5-2.9 2.4-3.6 2.1q-1.3-.3-1.4 1 .1 1.3 1.1.9.8-.5-.4 1.2-1.7 2-.2 2.2 1 .6.6 1.5c-.3.5-1.3 0-2-1.1-.9-1.2-2-1.9-2.5-1.6q-.8.6-.9-1 0-1.4-1-1.5c-1 0-.8-1.9.3-3.7q.7-1.1-1.3-2.3t-2 0c0 .6-.7 1.8-1.5 2.6q-1.3 1.3-1.5.5-.1-1-1-1.1c-1.9 0-4.7-3.3-3.2-3.8 1.6-.5 1.6-5.9 0-6.5q-1.6-.5.2-1.6 1.2-1 .7-1.7c-.3-.4-1.3-.2-2 .5q-1.5 1-1.9.2c-.5-1.4-6-1.8-6.5-.4q-.1 1 1.8 1.8 2.4.8.8 1.6-1.3.6-2-.2t-1.9.6c-1.1 1.4-2 .9-7.5-4.2l-9.8-8.9c-2-1.7-3.5-3.9-3.4-4.9s-.4-2-1-2.2q-1.2-.4-1.3.6.1 1 1.3 1.2.8.1-.7.8c-1.6.6-.6 1.8 6.5 7.8a190 190 0 0 1 31.7 34.1c6.6 9.7 7.5 11.2 7 11.2-.3 0-3-3.7-6-8.2m14.2-21.3c-1.2-1.4-1.2-1.8 0-2.5q1.2-.9.8-1.5-.8-.5-2.8 1.3l-2.1 2 2.3.6q2.2.8 1 1.3-1 .5-.6 1.4.3.8-.5.9-1 0-1.1-.9t-1.6-1.5-.8.5c.4.6 0 1.6-.7 2q-1.5 1.1.8.4 2.3-.6 2.3.7.1 1 2.2-1c1.8-1.8 2-2.3.8-3.7M95 162c0-1.4-1.8-2.3-3-1.6q-1 .7-.5 1.6c.8 1.2 3.5 1.2 3.5 0m10-3.2q-.2-.8-2.5-.9-2.3.1-2.5 1.4 0 1.4 2.5.8 2.3-.4 2.5-1.3m18.4.5q1.4-.6 1-1.5-.6-.7-1.6-.3-1 .6-.4-.5c.9-1.4-1.2-4.3-2.5-3.5q-.7.7.6 2.8c.8 1.2 1.2 2.6.8 3q-1.1 1.2 2.1 0m-44.8-7.2c0-1 .4-2.8.7-4.2.4-2 0-2.6-1.3-2.7q-1.7 0-2.4 1.3-.5 1.3 1 1.4c1.7 0 1.7.1.4 3.4-.7 2-.6 2.6.3 2.6q1.2-.2 1.3-1.7m26.4.8q0-.9-1-1a1 1 0 0 0-1 1q.1 1 1 1t1-1m20 0q0-.9-1-1a1 1 0 0 0-1 1q.1 1 1 1t1-1m6-3.2q-.2-.6-1.8 1t-1.4 2.5c.4.8 3.1-2.2 3.2-3.6m-16.5 1.3q.3-.9-.5-1.6-.9-.5-1 1 0 2.6 1.5.6m20.5-.7q-.1-.4-1.5-.4t-1.5 1q.1.8 1.5.4 1.4-.7 1.5-1m-5.9-1.7v-2q0-.7 1.5-.7 1.7 0 1.1-2c-.3-1.1 0-2.3.5-2.6 1.5-1-1-2.2-3.3-1.7-2 .6-2.6 2.3-.8 2.3q.8.1.4 1t1.2 1q2.4 0-.2 1.1a9 9 0 0 0-3.3 3c-1 1.6-1 1.9.8 1.9q1.8-.1 2.1-1.2m-57.1-3q.1-2.7-1-.7-2 3 0 3c.6 0 1-1 1-2.2m23.4.7q.6-1.3 1.6-.9t1-.3c0-1.4-3.9-2.2-4.7-1q-.4 1 .5.4 1.1-.5 1.2.3-.1 1-1 1.1a1 1 0 0 0-1 1c0 1.6 1.7 1.2 2.4-.6m6 0q.8-1.9-.6-.7c-.7.6-2 1.3-2.8 1.6q-1.5.6.6.6c1.2 0 2.5-.6 2.8-1.5m33.9-1.3c.5-2.2-.1-3.3-1.4-2.5s-1.2 4.4 0 4.4q.8-.2 1.4-2m-26.3-1.3q.1-2.7-1-.8c-.5.8-.6 1.8-.4 2.2q1.4 2 1.4-1.4m16.5-.8q.5-.9-1-1-2.8-.1-.3-2.8 1.5-1.3 0-1.2-1.1 0-1-.7.5-3.3-2.2-3-2.9 0-2 3.2 0 .9-.6.3c-.4-.4-1.4-.2-2.2.5q-1.6 1.2-.9 0 .5-1.1-1-1.6-1.7-.4 1-.6 2.6-.1 2.7-1.6c0-1.5-.5-1.7-3.5-1.7s-3.5.3-3.5 2.6c0 2.5-2.5 4.3-3.4 2.3q-.4-1-.5.6c0 1.2.7 1.7 2.9 1.7 1.6 0 3 .5 3 1.1q0 1.1 1.5-.1 1.7-1.4 2.7-.2 1.2 1.5 2.5-2 1.4-3.7 2.3-1.8c1 1.6.3 3.3-1 2.5-1.6-1-1.1.7.7 2.6q2.8 3 3.8.9m-22.5-1.1q-.1-.9-1.2-1t1.1-.8c1.3-.3 2.5-1.4 2.7-2.4.3-2-2-2.3-3.2-.5q-.7 1.1.7.4 1.1-.5-.6.9c-1.1.9-2.8 1.4-3.7 1.2-1.5-.4-3.3 1.5-2.3 2.5.8.7 6.5.5 6.5-.3m54.8-6.1c9.6-8 30.2-28.3 30.2-29.8q-.1-1-1.6-1-1.3.1-.9 1t-1 1q-1.5.1-1.1.8c.2.4-1.5 2.7-4 5a21 21 0 0 0-4.4 5.2q-.1 1-1.4 1c-.8 0-1.8.9-2.1 2q-.6 1.8-1.4 2c-.4 0-3.4 2.5-6.5 5.5-4.4 4.3-6.3 5.5-8 5q-1.7-.3-.8.1 1.5.6 0 2-1.2 1.8-2 .2-.8-1.4-.8.9a3 3 0 0 1-2 2.8c-1.7.6-3 3.5-1.4 3.5.3 0 4.4-3.2 9.2-7.2m-88.2 3.7q-.4-1.4.7-1.8t.7-1c-.3-.3-1.6.3-2.9 1.4q-2.7 2-.7 1.9 1.5 0 1 1.2-.7 1 .5.4 1.1-.9.7-2.1m78-.7 1.9-2.3-2.5 2-3 2.2q-.2.3.7.3c.5 0 1.8-1 2.9-2.2m-9.8-1.6q-.2-1.6 1-1.4 1.3 0 1-3 0-3.1-.5-1.4-1.2 4.6-6.7 4.8c-2 0-3.3.5-3 1 .4.6 2.2.8 4 .6 1.9-.2 3.4 0 3.4.4q0 .7.5.8.5-.2.3-1.7m-83.1-1.7q0-1.3-.5-1c-.4.4-1.5-.4-4.7-3.3-2-1.8-1.9-3.3.2-2.6q2 .8.4-.4c-.8-.6-2-.8-2.7-.5-1.7.6-4.7-2.3-3.8-3.8q.7-1.1 1.3-.1c.3.5 2 1.2 3.9 1.5s3 .1 2.6-.4q-.3-.8.4-.9 1 .1 1.6 1.6.7 1.6 1.3 1c1.4-1.4-2.1-3.7-5.1-3.2q-2.7.5-1.9 0c.7-.3 1.3-1.7 1.3-3s.5-2.4 1.2-2.4q1 0 .5-.7c-.4-.3-1.8.4-3.2 1.7s-2.5 2-2.5 1.4q-.1-.7-1 .6-1.1 2-1-.2.1-1.7 1-2.3c1.7-1 1.1-2.5-1-2.5q-3.8.2 0-3c1.2-1 2-2.3 1.7-2.7q-.3-.8 1.9-.9 2.6-.2 2.4 2.3 0 2.1-1 2.3a1 1 0 0 0-1 1c0 .6 1.4 1 3 .8s3-.6 3-1.1q-.1-.8-1.3-.4-1.4.7-1.2-2.8.3-3.3-1.1-4c-.8-.2-1.4-1.2-1.5-2.2q0-1.8-.8.7c-.4 1.4-1.4 2.4-2.1 2.2s-1.7.3-2.1 1q-1 1.6-.9-.3-.1-1.5-1.4-1.6-1.3.1-.9 1.4c.6 1.5-2.8 5.3-4.7 5.3a1 1 0 0 0-1 1q.2 1 1.5 1t1.5 1q.2.7 2 .3c1.5-.4 1.8-.1 1.3 1.8q-.6 2.3.5 1.5t1.2 2v2.9l-2-2.3c-1-1.3-2.5-2.2-3-2-1 .3 15.7 15.7 17 15.8q.7-.1.7-1.5m20.6-.6q-1.1-1.2-1.8.2-.7 1.2.3.5 1.1-.6 1.2.5t.7.6q.6-.7-.4-1.8m-10-1.3c.3-2.1.1-2.3-1.7-1.7-1.2.5-3 .5-4.1 0q-1.7-.7-1.2-.8c1.7-.2-2.2-3.1-4-3-1.4 0-1.1.6 1.5 3 1.8 1.6 4.1 2.9 5.2 2.9q1.8 0 2 1c0 2 1.8 1 2.2-1.4m84.6-1.7c-1.2-.8-1.1-1 .1-1.9s1.3-1.1 0-2c-2-1.3-3.9-1.2-2 0q1.6 1.2.3 1.7t-.2 2.4c.5 1 1.5 1.7 2 1.3q1.2-.7-.2-1.5M54 131q-1.4-.8-2-.4-.2.6 1 1.4 1.4.8 2 .4.3-.6-1-1.4m57.7-2.2q-.5-1.1-.6.6t.5 1.3q.5-.6 0-1.9m45-1.3q0-1.3-.8-1-.8.5-.9-.4.1-1 1-1.1 1 0 .5-1t1-.4q1.4.4 1.5-.5c0-2.2-3.5-1-4.7 1.6-1 2-1 3-.1 4q1.8 2.2 2.4-1.2m6-1.5c-.5-3-1.3-3.3-1.3-.5 0 1.4.4 2.5.8 2.5q.7-.2.5-2M68 124.7q-1.4-1.5-.5.6.6 1.6 1.2 1.2.4-.5-.7-1.8m6.4-.7q0-2.6-1.5-2.1c-.8.2-2 .4-2.7.4-1.9 0-.5 1.2 1.4 1.2 2.3 0 2.8 2.2.6 2.9q-2.3.5.2.3 2-.2 2-2.7M59 125q0-.9-1-1a1 1 0 0 0-1 1q.1 1 1 1t1-1m21.7-1.5q0-1.3-.9-1.5c-1 0-1 1.4-.1 2.3q1.2 1.6 1-.8m4.7.3a2 2 0 0 0-1.5-.8q-.8.1-.9.8.2.8 1.5.9t.9-.9m11.8.3q.8-.1.8-1c0-.4-2.4-.7-5.2-.5-6.4.3-6 .2-5.5 1.2.4.6 5.1.7 10 .3m6.1-1.5q.6-1.5-.8-1-1.2.7-1 1.5 1 1.8 1.8-.5m25.7 0q0-.6-1-1.1-.9-.4-1 .4.1 1 1 1.1 1 0 1-.4m-73.5-3.4q.1-4.7-3.5-1.7c-2.3 2-1.5 4.7 1.3 4.3q2-.3 2.2-2.6M163 121q.2-.9 1.8-1c1.6 0 1.6-.1 0-1.4-2.4-1.8-2.3-4.6.2-4.6q1.8 0 2-1-.1-.8-1.5-.4-1.5.6-2.6-2c-.7-1.4-1.8-2.6-2.6-2.6-1.8 0-1.6.7.7 3.2 1.8 2 1.8 2.3.4 3.9s-1.4 1.8.3 2.9q1.9 1.2.6 1.6c-1.5.7-1.7 2.4-.3 2.4q1 0 1-1m-54.3-.6c-.3-.3-1.2-.4-1.9 0q-1.1.4.6.5c1 0 1.7-.2 1.3-.5m-34.7-.8c0-1.1-2-1.5-2.5-.6q-.5.9 1 1 1.3 0 1.5-.4m8.8-2.1q-.6-.4-1.2 1.2-1 2 .5.6 1.1-1.2.7-1.8m89.2 1q1.1-1.5.5-2.3-.7-.5-1.2.5-.6 1.2-2.4 1.3c-1 0-1.9.5-1.9 1 0 1.6 3.6 1.2 5-.5m-60.7-1.7q.8-2-1.3-.8-4.1 2.4-1 2.6 1.7-.2 2.3-1.8m5.6 1.2c-.6-.5-1.8-.6-2.6-.3q-3 1.1 1.3 1 2.6 0 1.3-.7M89 117q-.1-.9-1-1-1 .1-.5 1t1 1q.5-.1.5-1m70 0q0-.9-1-1a1 1 0 0 0-1 1q.1 1 1 1t1-1m-57.5-1q.5-.9-1-.4-2.6 1.2-.6 1.4 1 0 1.6-1m4.1-.2q.8-1-.6-.3-1.5 1-.8-1.3.5-2-.3-1.6c-1.2.7-1.2 4.4 0 4.4q1 0 1.7-1.2m-48.1-.7c.7-1.2-1.2-2.4-2.5-1.6-1.1.7-.4 2.5 1 2.5q.8 0 1.5-1M79 115q0-.9-.4-1-.5.1-1.1 1-.4 1 .4 1 1-.1 1.1-1m95.5 0c-.3-.5-1.4-1-2.3-1q-1.5-.2-.4-.7c1.3-.5 1.7-3.9.4-4.6-.4-.3-1.4.2-2.2 1.1q-2 2 .2 1 1.8-.8 1.1.8-.6 1.2-1.7 1.5-.7.2 1.9 1.4c3.7 1.7 3.8 1.7 3 .5m-102-3q.3-2-.2-1.6-.7.8-1 2.8c-.4 2.8.6 1.8 1.2-1.2m45.4 1.3-2.4-2.8c-1.1-1.2-9.6-1.4-8.9-.3q.6.8 2 .8 1.5 0 .8 1.2-1 1.5.7.1c1.8-1.5 5.5-1 5.1.7q-.1 1 .7.6.9-.6 1.6.4.6.9 1.2 1 .4-.2-.8-1.7M157 112q0-1.8-1-2-.9.2-1 2 .1 1.8 1 2 1-.2 1-2m21 1.4-.6-1.8c-.8-2.2-2.3-2-2.1.2q.2 1.7 1.4 1.9 1.2 0 1.3-.3m-51.4-1.9q-.2-1.4-.8-2c-.5-.5-.4 1.5.1 3.3.3 1 .9 0 .7-1.3m-6.2-.7a2 2 0 0 0-1.5-.8q-.8.1-.9.8.2.8 1.5.9t.9-.9m8.7-1c-1-1-1-1-.5.5q.6 1.6 1.2 1.2.4-.5-.7-1.8m5.5 1q.7.6.1-.2c-1.2-1.5-3.4-1.5-3.4 0q0 1.4 1.2.4 1.2-.8 2-.2m9.4-1.6q.1-2.2-1-.2c-1.3 2-1.3 3.3 0 2.5.6-.3 1-1.4 1-2.3m-47 .8q-.2-.8-1.5-.4-1.3.7-1.5 1 .2.4 1.5.4t1.5-1m68.2-2.2c.2-1.9.9-2.3 3.3-2 2.9.2 3 .2 1-1.3-1.9-1.5-1.9-1.5 0-1.6 2 0 2 0 0-.9-1.8-.7-1.8-.9-.3-1.5q1.5-.8 1.1-2c-.4-1.2-.7-1.2-1.9 0-.8.7-1.4 1.9-1.4 2.6q.1 1.3-1.3 0c-2-1.6-2.7-.4-2.7 4.6 0 4.5 1.6 6 2.2 2m-56.1-1.2q.8.4.9-1t-2-1q-1.9.6-1.2 2.2.6 1.5 1 .4t1.3-.6m69.9.3c0-1.1-2.7-1.2-3.4-.1q-.2.7 1.5 1 1.7 0 1.9-.9m-83.6-1.1c-.7-1-3.4-1-3.4 0q.2.7 2 .8 1.6-.1 1.4-.8m24-1.7q-.5-.3-2.2 1.3-2.5 2.5.5.5 2-1.2 1.7-1.8m7.5.8q-1.6-1 0-.9 1 0 .7-1-.4-.7.6-1.3 1.5-.6 0-.6-1.2 0-1.9 1.5-.6 1.6-1.3.4-.7-1.1-2 .6-2 2.2.3 1.1 1.8-.6 2.3.8.7 1.3 1.6.9.9-.7-.3-1.5m10.6-1.1q.7.6.2-.4c-.4-.6-1.8-1.2-3.1-1.2q-2.8-.1-1.3 1.3 1.1 1.3 2.3.4c.6-.5 1.5-.5 1.9-.1m41.5-.8q0-.9-1-1a1 1 0 0 0-1 1q.1 1 1 1t1-1m-134.2-2.4-2-1.5c-1.6-1.2-1.8-1.1-1.8.3q.1 1.5 1 1.1t1 .5 1 .5q1-.7.8-.9m97.9-.8q-.5-1.1-.6.6c0 1 .2 1.7.5 1.3s.4-1.2 0-1.9m-7.3 0q-.8-1.2 1.6-.5t1.2-.5c-1.3-1.3-4.6-.2-3.7 1.2q.6.9 1.1 1 .4 0-.2-1.2m13.6-1.3q2.2-2.7-.2-.6c-1 .7-1.8 1.8-1.8 2.4q0 .9.3.6zm32.5 1.3q.7.5 0-.6-.6-1.5-2-.1c-.9.6-1.5 1.4-1.5 1.6q.1.4 1.3-.6 1.4-.9 2.2-.3m-61.5-.1c0-.2-1-1.2-2.2-2.3l-2.3-1.9 1.9 2.3q2.6 3 2.6 1.9m56.6-.4c-1-1-3.7-1.2-3-.2q.6.8 2.1.9t1-.7m7.4-3.5c-1.2-1.1-2.4-1.8-2.6-1.5-.8.8 2.9 4.7 3.9 4 .4-.3-.1-1.4-1.3-2.5m-42.8 1c-.5-.5-2-1-3.3-1.3q-3-.7-.7.9c1.9 1.4 5.4 1.8 4 .4m5.8.2q0-.9-1-1-.9.1-1.5 1t1 1q1.4-.1 1.5-1m18.7-1.6q-.6-.5-1.9 0-1.1.4.6.5t1.3-.5M178 95q-.1-.9-1.5-1-1.4.1-1.5 1 .1 1 1.5 1t1.5-1m3.7-2.7q1.5-2 1-.3 0 1.3 1.3 1.5c2.1 0 1.9-2.9-.2-3.3-1.6-.3-4.8 1.8-4.8 3.2 0 1.1 1.3.6 2.7-1.2m6.6-.7c0-1 1-2.2 2.3-2.8s2.4-2 2.4-3v-2.5q0-.7-1-1.2-1.2-.3-.5.9 1 1.5-1.3.1-4.8-2.6-3.7 1c1.2 3.6 1.3 5.3.4 7.7q-1 2.6.3 2c.7-.3 1.2-1.3 1.1-2.2m.3-5.2c-.4-1-.4-2-.1-2.2q.5-.4.5.6.1 1.1 1.6 1.2 1.3.1.9 1-1.6 2.2-3-.6m-30 3.4q-.4-1.1-.5.6c0 1 .2 1.7.5 1.3s.4-1.2 0-1.9m-3.5.3q.9 1.5.9.2c0-.6-.4-1.5-1-1.8-1.4-.9-3.2.4-2.3 1.8q.7 1.2 1.1-.2.4-1.5 1.3 0m41.6-4.7q-.5-2.7 1-2 1.3.4 1.3-1.4.1-2.2-2.2-1.6c-2.4.3-3.2 4-1.3 6.3q2.2 2.9 1.2-1.3M40 84q0-.9-1-.4t-1 1.6q.1.9 1 .4t1-1.6m6 1.7q-.2-.3-1.5-1-1.3-.4-1.5.4.2 1 1.5 1t1.5-.4m16.6-1.1c-1.1-.8-2.5-1.5-3-1.5q-.8.2 1.4 1.5 5 2.8 1.6 0M164 84q-.1-.8-1.5-.4-1.4.7-1.5 1 .1.4 1.5.4t1.5-1m5.4.2q.4-.8-1-.9-1.2 0-1.4.9 0 .7 1 .8a2 2 0 0 0 1.4-.8M58.8 80.6q2 .8.3-.4-1.2-1-.5-2.3 1-1.8-1 0c-.8.7-1.5 2.3-1.5 3.5q0 2.4.6.4.4-1.6 2.1-1.2M55 80q-.2-.8-1.5-.4-1.3.7-1.5 1 .2.4 1.5.4t1.5-1m15.7-.4c-.3-.7 0-1.9.6-2.5q1-1-1.6.1C68.2 78 67 79 67 79.3q0 .8 1 .2.8-.4 1.5.5c1 1.5 1.8 1.2 1.2-.4m2.6-.1q-.6-1.5-1-1.1-.4.6.2 1.5 1.7 2.3.8-.4m93.5.2q1.3-1.4-.8-1.4-2-.2-1.3 1.3c.6 1.7.8 1.7 2.1.1M64.3 77.5q-1-2.5-2.6-.8c-1 .8 1.3 3.4 2.4 2.8q.7-.6.2-2m106.7 1q0-.4-1-1-.9-.4-1 .4 0 1 1 1.1 1 0 1-.4m10.6-2.3q-2.5-2.5-.5.5 1.2 2 1.8 1.7.3-.5-1.3-2.2m-148.2.3c.4-1.2 0-1.4-2.4-1-1.7.3-3 .2-2.8-.2a9 9 0 0 0-1-3.3q-1-2.2-1.1-1.2c0 .6-.9 1.2-1.8 1.2-1.6 0-1.3 1.1.4 1.2.4 0 1.4 1 2.2 2 .7 1 2 1.7 2.7 1.4q1.3-.4 1.4.4c0 1.6 1.7 1.2 2.4-.5m19.5.2q1.4.6.9-.2c-1-1-5.8-1.5-5.8-.6 0 1.4 1.4 2.1 2.3 1.2.5-.5 1.7-.7 2.6-.4m3.4-1.2q-1.2-3-1 .4c0 1 .5 1.8.9 1.5q.6-.5.1-2m34.7 0c0-.2-1-1-2.1-1.6q-2.2-1.2-1.5 0c1 1.5-.7 1.4-2.4-.1q-1.7-1.6-.2.3c.6.9.8 2 .4 2.4q-.5.7.5.1Q87 76 87 77q0 1.2 2 0 1.8-1 2-1.5m99.5 1.5q.4-.9-.4-1-1 .1-1.1 1 0 1 .4 1 .6 0 1.1-1M168 75q0-.9-.4-1-.6.1-1.1 1-.4 1 .4 1 1-.1 1.1-1m18.1-1.3q-1.4-1.5-.5.6.6 1.6 1.2 1.2.4-.5-.7-1.8M63 74q.1-.8 1-.4t1-.4c0-1.4-1.7-1.4-2.5 0q-.6.8-1.6.4-.8-.5-.9.4.2 1 1.5 1.1 1.3-.1 1.5-1m14-1.3q-.8-1.2-.3-2 .4-.5-.5-.6c-1.5 0-1.6 1.7-.2 2.5q.9.7.4 1.7t.5.4q1.2-.8.2-2m83.7.2q-.5-1.1-.6.6c0 1 .2 1.7.5 1.3s.4-1.2 0-1.9m-79.3 0a2 2 0 0 0-1.5-.8q-.8.1-.9.8.2.8 1.5.9t.9-.9m82-1.2q-.6-1.5-2-1.6-1.6-.2.3 2 3 3.3 1.7-.4m8.3 1.7q-1.6-.5-1.7-1.8t1.5-.9q1.4.5 1.5-.5-.2-1-2-1.1-1.8.1-2 1.6 0 1.4-1.2.9-1-.6.6 1c1.1.8 2.7 1.4 3.5 1.4q2 0-.2-.6m11.3.3q0-.5-1-1.1-.9-.4-1 .4 0 1 1 1.1 1 0 1-.4M8.2 68.8q-.9-.9-.7 1.4.4 4.7 1.2 1.4c.3-1 0-2.2-.5-2.8m99.5 2.8q.3-.4-.6-1-1-.6-1.1.5.1 1.4-1.4 0c-.7-.6-2.7-1-4.4-1-1.6.2-3.7-.3-4.5-1-1.3-1-1.5-1-1 .8.4 1.6 1.2 1.9 4.9 1.6 2.4-.1 4.1.1 3.9.6-.5.8 3.3.4 4.2-.5m90.5-.3c.8-1 1.4-2.5 1.4-3.3-.1-1.9-5.4-2.6-7-1-.8 1-.2 1 2.9.5 2.2-.4 3.6-.3 3.2.2q-.9.7-1.8 1-.9 0-1.1.3c-.9.9-4.8.5-4.8-.4q0-.9-.9.2-.8 1.3-1.7 1.2-.8 0-1.2.9-.1.9 5 .6 5.3-.4 3.8.5-1.3.9-.4 1c.6 0 1.8-.8 2.6-1.7M61 71.6c0-1.1-2-1.5-2.5-.6q-.5.9 1 1 1.3 0 1.5-.4m26-1.2q-.2-.4-1.5-.4T84 71q.2.8 1.5.4 1.3-.7 1.5-1m91.5-.2q-.5-.4-1.8.7-1.5 1.4.6.5 1.6-.6 1.2-1.2m-85.8-.8c-.3-.3-1.2-.4-1.9 0q-1.1.4.6.5c1 0 1.7-.2 1.3-.5m3.7-2.9c-.7-1.6-2.4-2-2.4-.6q-.1 1 2.7 2 .1-.1-.3-1.4m7.2-1.5c0-2.3-1.2-1.7-1.9 1q-.4 1.8.7 1.4c.6-.2 1.2-1.3 1.2-2.4m81 .5q.1-1.2-.7-1-1 .5-2.6-.7-2-1.6.2 1.4c2 2.7 2.7 2.8 3.1.3M9 66.5q0-.4-1-1-.9-.4-1 .4.1 1 1 1.1 1 0 1-.4m68.4-2.7q-.6-.7-1.5-.3-.8.5-.9-.4.1-1 1-1.1c1.9 0-1.4-2.7-4-3.4q-2.2-.4-1.1 0 1.6.6 0 1.6-1.5 1 .8.3c1.2-.3 2.4-.2 2.6.3.7 1-.7 3.4-1.9 3.2q-.8 0-1.2 1.2-.5 1.5.6 0c1.4-2 2.2-2 3.4.2q1 2.1 1.9.5c.4-.7.5-1.7.3-2.1m-47.4.6q-.1-.3-1.5-.4-1.4 0-1.5 1 .1.8 1.5.4 1.4-.7 1.5-1m30 1c0-.8-2-1.3-2.4-.6q-.4.8 1 .9 1.2 0 1.4-.3m50.6-.6q.6-1-.4-.4-1.1.6-1.2-.5t-.6-.6c-.6.5.3 2.7 1.1 2.7q.4 0 1.1-1.2m11.8-.3q.4-1.3-.4-1.5-1 .2-1 1.5t.4 1.5q.3-.2 1-1.5m-2.4 0q0-.4-1-1-.9-.4-1 .4.1 1 1 1.1 1 0 1-.4m75.3-.2c-.7-.2-1.9-.2-2.6 0q-.8.5 1.3.5 2.2 0 1.3-.5M10.7 62.5c-.8-2 1-3 2.8-1.5q1.7 1.6 1.5-.4 0-1.5-1-1.1-1 .5-1-.3-.1-.9-2.3 0C8.2 60.5 7.6 64 9.8 64q1.3 0 .9-1.5m80.3 0c0-2.5 2.4-4.3 5.3-4 1.5.2 3 0 3.3-.6q.5-.9-.3-1c-7.3-.4-10.3-.4-10.3.2q.1.8 1.3 1.2 1.1.5.2 1.4c-1.3 1-1.6 4.3-.4 4.3q.8-.1.9-1.6m48-1q-.2-.3-2-.2-1.7.1-1.4.9c.4.6 3.4 0 3.4-.7m-111.6-1q.4-1.3-.3-1.5-.9 0-1.3 1.2t-2.4.4c-1.9-.7-1.9-.8.1-2.3q2.1-1.6.3-1-1.6.6-2.1-1.5-.9-2.2 1.4-1.5c2.1.6 2.1.5 1.3-1.7q-.6-1.2-2-1-1.4.7-1.4-1.5 0-2 1.2-2.1c2.4 0-.7-1.8-3.7-2.2-2.7-.3-3 0-3.3 3-.2 1.8.1 3.2.7 3.2q1-.2 1.1-2t1-2c.6 0 1 1.4 1 3 0 3.9.1 4.2 1.7 5.8q1.1 1.3.7 2.4c-.8 1.2 1.4 2.8 3.7 2.8q1.7-.2 2.3-1.5m55.1-.5q.4-.9-1.2-1-2 0-.5-.9 1.7-.9-.3-1.5c-2.3-.8-2.2-.9-2.2 1.9q0 2.5 1.8 2.5 1.6 0 2.4-1m-50-2q0-1.6-.7-1.4-.7.6-.8 2 .1 1.3.8 1.4.7-.2.8-2m97.7-1.2q-1.1-1-1.2-.2c0 1.4 1.2 2.6 1.9 1.9q.3-.5-.7-1.7M28 56.5c-.6-.8-.8-2-.4-2.6q.6-1.2-.4-.5c-1.5 1-1 4.6.6 4.6q1.8.2.2-1.5m164 .5q0-.9-.4-1-.6.1-1.1 1-.4 1 .4 1 1-.1 1.1-1M15 55q0-.9-1-1a1 1 0 0 0-1 1q.1 1 1 1t1-1m67.7-.6c-.3-.3-1.2-.4-1.9 0q-1.1.4.6.5c1 0 1.7-.2 1.3-.5m17-2c-.3-.4-1.4-.3-2.4 0-1.5.6-1.5.8-.3 1.6 1.6 1 3.9-.4 2.7-1.6M95 53.6q-.1-.5-1-1.1-.9-.4-1 .4.1 1 1 1.1 1 0 1-.4M83.6 48c1.7-.7 3-1.8 3-2.6q0-1.5-1.1-.5c-.7.6-2 .8-2.9.4q-1.5-.6-1.6 1-.1 2.8-2.7.5-1.2-1.3-2.5.2c-2 2.1-2 3.9-.2 3.9q1.5 0 .8 1.3-.4.9 1.7-.9c1.3-1.1 3.8-2.6 5.5-3.3M7 51q0-.9-1-1a1 1 0 0 0-1 1q.1 1 1 1t1-1m132-1.6c0-.8-2-1.3-2.4-.6q-.4.8 1 .9 1.2 0 1.4-.3m63.7-2.6q-.5-1.1-.6.6t.5 1.3c.3-.3.4-1.2 0-1.9m-8.2.2q.4-.9-.4-1-1 .1-1.1 1 0 1 .4 1 .6 0 1.1-1m-45-2.8c-.8-.8-2.5 1-1.9 2q.7.9 1.5-.3.6-1.2.4-1.7m40.3.3c1-2.3 1-2.5-1-2.5q-2.6-.1-.9 1c1.2.7 1.2 1.1.2 2.4q-1.3 1.5-.4 1.6c.5 0 1.5-1.1 2.1-2.5m3.7-.7a5 5 0 0 0 2.4-1.1q1.6-1.7 1 1.5-.6 2.6.6 2.2c2.7-1 .4-6.5-2.4-5.6q-1.4.4-.6-.8t-.3-.6c-.6.4-1.7-.2-2.4-1.4-.7-1-2-2-2.8-2q-1.7 0 .4 1.5 2 1.4 1.9 5.7 0 3.9.6 2.5.7-1.7 1.6-1.9m-150.3-1q-1.1-1.2-.5 1.3.6 2 1 1c.3-.7 0-1.8-.5-2.3m21.8-.2q-.2-.4-1.5-1-1.3-.4-1.5.4.2 1 1.5 1t1.5-.4m81.6-4.3q-.5-.5-.6.5-.2 1.1-1.7 1.2-2.2-.1-.3 1 1.4.9 2.3-.6t.3-2.1m-84.2-.8q.4-1.3-.4-1.5a1 1 0 0 0-1 1q-.2.7-1.7 1.3-2.1.5.3.6 2-.1 2.8-1.4m4.6-5.2q-.2-1.4-2-2t-2-2q-.1-1.2-1-.7c-.7.3-1 1.5-.7 2.5s0 2.2-.6 2.6q-.8.7 1.2 1.5 2.2.9 1.8 2.2t0 2c.7.7 3.3-4 3.3-6.1m-2.7 1.2q0-1.3.9-1.5.7 0 .8 1a2 2 0 0 1-.8 1.4q-.8.4-.9-1m80.7 3.4c0-1.4-1.7-1-2.3.5q-.6 1.5.9 1 1.2-.7 1.4-1.5m6.4-.4q-.7-1.3-1.6-.9-.9.7.3 1.5c1.9 1.2 2 1.1 1.3-.6m6-1c-.8-2-1-1.9-1.7.4q-.5 2 .9 1.4 1.1-.5.7-1.9M13 36q0-.9-1-1a1 1 0 0 0-1 1q.1 1 1 1t1-1m46-3.1q.1-3.6-1.3-2-1.4.9-2.2.3-.8-.5 0 .6.6 1.1 1.6.7.8-.4.9 1.4 0 2 .5 2.1c.3 0 .5-1.4.5-3.1m95.6-1.7c-1.1-1-1.5.4-.8 2.8l.7 2.5.3-2.3c.2-1.3.1-2.6-.2-3m9.7 3.3q-.6-1.4-1-1.1-.4.6.2 1.5 1.7 2.3.8-.4m3-1c-.6-1.7-2.3-2-2.3-.5q.1 1 1 1t.4 1.2q-.6 1 .4.4t.5-2.1M197 35q0-.9-.4-1-.6.1-1.1 1-.4 1 .4 1 1-.1 1.1-1m-4-3c0-.5-.9-.8-1.9-.7q-1.7.2-1.4 1.3c.5 1.3 3.3.8 3.3-.6m7 1q-.1-.9-1-1-1 .1-.5 1t1 1q.5-.1.5-1M53.3 31.5q-.1-1-1.6-1.1-2.4-.3 0 .3 2 .4.2 1.5-1.5 1 0 .6 1.1-.4 1.4-1.3m108.1.4c-.6-1.1-4.1-1.2-4.8-.1-.2.4.9.8 2.5.8q2.6.1 2.3-.7m33.6-.4q-1.1-1.4-.4-1.5t-.9-1q-1.6-1.1-1.2-2 .6-1 0-1c-.2 0-1 1-1.6 2.1q-1 2-.1 1.5c.5-.3 1.7.3 2.7 1.4 2.1 2.3 3.3 2.7 1.5.5m-135.8-6c-.5-2.8-.9-3-2.5-1.2q-3 3.5.7 3.7c2 0 2.2-.4 1.8-2.5m96.2 1q.5-1.5-.6-1.3c-1.5.5-2.3 2.8-1 2.8q1-.1 1.6-1.6M67.5 26c-.3-.5-1.3-1-2.1-1q-1.3.1-.9 1c.3.6 1.3 1 2.1 1q1.3 0 .9-1m3.5-.5q1.6-1.6-.4-1.5-1.5.1-1.6 1.5 0 1.4.4 1.5c.2 0 1-.7 1.6-1.5m-9.3-1q0-1.3-.9-.9-.7.6-.3 1.5 1.3 2 1.2-.6M187 23q0-3-1.5-3c-1.3 0-1.4.4-.5 2 .6 1.1.8 2.5.5 3q-.4 1 .4 1c.6 0 1.1-1.4 1.1-3m8 2q-.2-.9-1.7-1-2.2-.1-.3 1c1.9 1.2 2 1.2 2 0M61 21q0-.9-1-1a1 1 0 0 0-1 1q.1 1 1 1t1-1m2.4-2.6q1.4-3.1-.6-1.8-1 .6-.4-.5.7-1 1.6-.6.8.4 1.4-.4c.9-1.4-2.1-2.1-3.2-.8-1.4 1.8-2.1 4.4-1.5 5.1q1.6 1.5 2.7-1m-4.7-3c-.3-.3-1.2-.4-1.9 0q-1.1.4.6.5c1 0 1.7-.2 1.3-.5M73 12.6c1.8-2 2-2.4.7-3q-1.5-.5-.9 1.2 1 2.2-1 .3c-1-.7-1.5-1.7-1.2-2q.3-.7-1-.8c-1.9 0-1.9.2 0 2.1C71 12 71 12 69.6 12q-1.3 0-1.5 1 .1.8 1.7.3 1.6-.7 1 .5c-1.3 2-.2 1.4 2.2-1.2m-12.9.2q0-.7 1-.3.9.5.4-1c-.5-1.1-1-1.2-2.5-.4-2.3 1.2-2.5 2.6-.4 2.6q1.3 0 1.5-1m20.7-.4c-.3-.3-1.2-.4-1.9 0q-1.1.4.6.5c1 0 1.7-.2 1.3-.5m-23.6-1.7c1.9-1.4 1.1-4.1-1.3-4.3q-1.7-.2-1.2 2.2c.2 1.3 0 2.4-.6 2.4q-.9 0-1-1.2 0-1-.6-.5c-.8.8.5 2.7 2 2.7.6 0 1.8-.6 2.7-1.3M100.5 184c-1-1.1-1.5-2.3-1.2-2.7q.7-.4.7.6.1 1.1 1 .6 1-.4 1 1 0 1.8 2 1.2 1.8-.4 1.4.4c-.9 1.5-3 1-5-1.1m8.6-.3c-.1-2.3 3.6-7.7 5.1-7.7q1 .2-1 2.3a18 18 0 0 0-3 4.7q-1 2.8-1.1.7M98 178.5q1.2-1.2 2.1-1c1.3.9 0 2.5-1.8 2.5q-1.9.1-.3-1.5m-2.4-2.1q-.4-1.4 1.2-2.1t2.3-1.6 1.2 0c.4.6-.4 2-1.8 3-2 1.8-2.4 1.9-2.9.7m-1.2-3.8q.8-2-1-1.2-1.3.5-.9-.4c.7-1.2 3.5-1.4 3.5-.2 0 .4-.5 1.4-1.1 2.2q-1.3 1.9-.5-.4m-3.5-4.5q1.4-.8.2-1.5-1-.6-2-.1t-.5-1c.5-1.3.9-1.2 2.9.3 2.5 1.8 2.4 3.2-.3 3.2q-2 0-.3-.9m-7-5.8c-3-3.4-3.2-6-.8-6.8 1-.4 1.9-1.3 1.9-2q.2-3 3.6.6c1.9 2 1.9 2.1-.7 1.8-1.5-.2-3.3.3-4.2 1.3q-3.1 2.9-.2 2.8 1.3 0 1.5-1t1.5-1q1.4 0 .9 1.5-.7 1.3-1.5 1c-1.3-.9-1 2 .3 3.3q1.1 1.1.7 1.2c-.3 0-1.6-1.2-3-2.8m-58.4-57.4q-.6-1-.1-1.6t-.4-1.8c-1.6-2 1.2-4.9 3.8-4 2.2.6 3 2.5 1.2 2.5a1 1 0 0 1-1-1q0-.9-1-1c-1.5 0-1.2 6.7.3 7.3q1.1.5-.5.6t-2.3-1m7.3-2.7q-.4-1.8.8-1.9 1.3.2 1.4 1.9t-.9 1.8q-.8-.1-1.3-1.8M15.7 95c-2-3.4-2.1-4-.2-4q1.4 0 .8-1.6-.7-1.7.8-1.2 1.3.6 1.1 2-.2 1.7 2.1 2l2.4.3-2.7 2.7-2.7 2.6Zm3.3-1q-.1-.9-1.5-1-1.4.1-1.5 1 .1 1 1.5 1t1.5-1m.3-6q-2.6-5.5 1.4-5.6c2.3-.2 3 1.4 1.4 3.1-.5.6-1 1.9-1.3 3-.3 1.6-.4 1.6-1.5-.6m-9.5-7c-1-1.7-1.5-3-1.3-3 1 0 4.5 4 4.5 5 0 2-1.5 1-3.2-2m196.4-8.5c0-1.1.4-3.1.8-4.5q.9-2.9.8-.5a18 18 0 0 1-.8 4.5q-.9 2.9-.8.5M2.7 70.2a59 59 0 0 1 14.6-53.6A51 51 0 0 1 40 3.5q3.8-.6-2 1.3A53 53 0 0 0 3 63.6c.7 4.7 1 8.7.7 9-.2.3-.7-.8-1-2.4m103.6-11.7c-1.9-2-1.6-3 .4-1.4q1.5 1.3 2 1.1.2 0 .4.5c.1 1.4-1.6 1.2-2.8-.2m98.3-2c-.3-.8-.2-2.5.3-3.7.7-2 .8-2 1.3 1 .5 3.4-.6 5.3-1.6 2.7m-114-11.4q-.5-.9.3-1.5t1.6.4q.7.9 1.7.4t.4.4c-.9 1.4-3.3 1.6-4 .3m5.9-.1q.6-.9 1-1 .5.1.5 1-.1.9-1 1-1-.1-.5-1m4.5.6c0-.3 1-1 2-1.6 2.4-1.3 6.2.2 4 1.5q-1.3.8-1.8-.3-.4-1.3-2.3-.2-1.7.9-1.9.6m15.5-.6q.6-.9 1-1 .5.1.5 1-.1 1-1 1t-.5-1M6 42c0-.8.5-2.2 1-3q1.4-2 .7 0c-.2.8 0 2.2.4 3q.8 1.8-.7 1.7Q6.2 43.6 6 42m23 1q.2-1 2-1t2 .4q-.2.4-2 .9t-2-.4m6.4-.5c-1.8-1.4-1.8-1.4.4-.8q2 .6 2.2 1.4c0 1.2-.3 1.1-2.6-.6m87.4-.2q1.2-.4 2 .1.3.6-1.4.5t-.6-.6M83 40.1c0-1.1-.5-2.1-1.1-2.1q-1 .1-.5 1.6.5 1.3-.4 1c-.5-.4-.8-2-.7-3.6q.1-3 2-3 1.6.1 1.3.8-.2.7 1.5 1 1.7 0 1.9-.9-.1-.9-1.2-1-1.3 0 .2-.9c.8-.5 2.3-.7 3.3-.4s2 0 2.2-.9q.6-1.2 2-1.4 1 .1.8 1.4-.5 1.1-1.2.9c-.3-.2-1.5.3-2.6 1.1-2 1.5-2 1.5.3 1q2-.4 1.6.4-.6.8-2 .9T89 37.1q.1 1 1.3.6 1.4-.4 2.8.4c1.2.7 1.1 1.1-.3 2.5-1.5 1.5-2.1 1.6-4.4.5-2-.9-3-.9-4 0q-1.5 1.5-1.4-1m12 .6c0-1.2 3.4-4.7 4.5-4.7.3 0 .3 1 .2 2-.5 3.1-4.7 5.5-4.7 2.7m-80-2c0-.8.8-2 1.8-2.8q1.5-1.2 1-.4c-.5.5.6 1.7 2.4 2.7 2.8 1.4 3 1.7 1.1 1.8-1.2 0-2.4-.6-2.7-1.3q-.6-1.5-1.2 0c-.8 1.7-2.4 1.6-2.4 0m12.5-.6q.6-2-1.5-3.4c-1-.7-1.7-1.7-1.3-2q.4-.6-1.1-.7-1.7.2-2.3 2-.6 1.7-1.4 1.4a1 1 0 0 1-.4-1.5q.5-.7-1-.3-1.4.4-1.5-.5T15.4 32c-1.4 0-1.4-.1 0-1.6q1.6-1.4 2.8-.7c1.6 1 8.7 1.3 8.6.4q-.2-3 1.5-3.1 1.2 0 1.2 3.6l-.2 3.6 1.8-2.3 1.9-2.4v4.3c0 2.4-.5 4.2-1.1 4.2q-1-.2-.6-1.4.6-1.5-.8-1c-.7.3-1.2 1.4-1 2.5q.3 1.9-1.1 1.9t-1-2m96 .9q-.3-1 1.9-1c1.4 0 2.8.5 3.1 1q.3 1-1.9 1c-1.4 0-2.8-.4-3.1-1m-99.4-1.3q-1.3-1.6.3-2c1.9-.7 3.2 1 1.9 2.4q-1 1-2.2-.4m78.2-2.4c-.7-.2-1.3-1.2-1.3-2.1q0-2 .9-.3 1 1.1 2 .7 1-.7.5.8t-.8 1.5zm21.6-.5-.4-2.1q-.5-2.2 1-.6 1.3 1 1 2c-.6.9-1.4 1.2-1.6.6m4.7-2.3q-.6-1.4-1.6-1t-1-.5q.1-1 1.3-.8 1 .2 1.5-.7c.3-1.3-2-1.4-3.7 0q-1.4 1.1-1.8-.3a2 2 0 0 0-1.8-1.2q-1.4 0-2-1t1.1-.3q2 .9 1-1.1c-.3-1-.6-2.3-.6-2.8q0-1-.7-.5t-2-.5c-1.2-1-.8-1.7 2.3-4.5 2-1.8 4.2-3.3 4.8-3.4 6.6-.6 8.6-.6 8.6.2 0 2-.2 2.4-1.4 2.1q-1.2 0-1.3 1.2.1 1.3 1.6 1 2-.8-.1.9-1.9 1.4-.6 2.5 1 1 .3 2-.7.5-1.2-.6-1-2.4-3.9.3c-.8.8-2.2 1.1-3 .8q-1.8-.7-1 .6c.4.6 1.6 1 2.7.6q2.2-.9 1.2 1.2c-.6 1.6-.5 1.7 1.2.3q1.7-1.2 1.2-.4-.6 1.3 1 2.5 1.5 1.2 1 .3c-.4-.6.2-1.9 1.2-2.8 1.6-1.5 2-1.5 4 .3s2.1 2 .4 3c-1.3.7-2 .5-3-.7q-1.4-2.4-1 1.3c.2 2.4-.2 3-2 3.3q-2 .2-2.7-1.3m3.7-1.2c-.7-.2-1.9-.2-2.6 0q-.8.5 1.3.5 2.2 0 1.3-.5M129 18.4q-.1-.4-1.5.6-1.3 1.2-1.5 2.2.2.8 1.5-.6c.8-.8 1.5-1.8 1.5-2.2m-6 2.2c0-1.1-2-1.5-2.5-.6q-.5.9 1 1 1.4 0 1.5-.4M78 32q-1.2-.9-.7-1.6.8-.5 1.9.4c1.5 1.5.7 2.4-1.2 1.2m3-.5q.1-1.4 1-1.5 1 .1 1 1.5T82 33q-.9-.2-1-1.5m4-1q1.2-1.4 2-1.5.9.1.4 1.5-.7 1.4-2.1 1.5-1.9.1-.3-1.5m24-3c3.5-6 13.1-15.5 18-17.9q3.1-1.3 1.6-.4c-8.8 6-11.1 8.4-20.9 21-1 1.3-.4 0 1.3-2.8M88.8 29q-1.6-1.9-.6-2.3c.6-.2-.3-2-2-3.8-1.9-2-2.7-3.7-2.1-4 .5-.4 1-1.6 1.2-2.7.1-2 .2-2 2.3-.4 2 1.5 2.1 1.6.3 2-2.1.3-2.3 1-.9 3.1q1.1 1.8 1 0 0-1.1.6-.7.5.8-.6 2.2t-.4 1.4h2.7c1.5 0 1.6.4.7 2.2-.7 1.1-1 2.7-.6 3.5q1.2 2.9-1.6-.5m10.7-4A59 59 0 0 0 71.2 4.8Q65.5 3 69 3.5c10.2 1.6 24.9 11.8 32.9 23 4.7 6.6 3 5.5-2.4-1.4m-65.3 3.4q-1.1-1.3-.4-1.5c.5 0 1.5.7 2.2 1.5 1.6 2 0 1.9-1.8 0m78.5.8c-.4-.3-.7-1.3-.7-2.2q0-1.9.9-.2 1 1.1 2 .6 1.5-.8 0-1.5c-1-.7-1-1.1 0-2.4q2.9-3.3 2.6.6c-.1 1.3.2 2.9.8 3.6q1.1 1.4-.7.6-1.5-.4-1.6.5c0 1.2-2.3 1.5-3.3.4M97 26.7q0-1.8.3-1.6l1.5 2q1.5 1.8-.3 1.6c-.8 0-1.5-1-1.5-2m-75.5.3q.4-.7-.7-1.2-.8-.5 2.2-.5 3.2 0 2.2.5t-.8 1q.3.8-1.5 1-1.7 0-1.4-.8m60 0q.7-1 1.6-.5 2 1.4-.7 1.5-1.3-.1-.9-1M92 27q.2-.9 2-1 1.8.1 2 1-.2 1-2 1t-2-1m74.5.2c-1.6-1.1-1.5-2.9 0-2.9q1.4 0 1.5 1 .1.7 1.3 0 1.3-.6-.2 1c-1.6 2-1.3 1.9-2.6 1m-122.7-.9q1.2-.4 2 .1.4.6-1.4.5t-.6-.6M171 26q.1-.9 1-1 1 .1 1 1t-1 1a1 1 0 0 1-1-1M28.3 24.1q1.6-1.7-.6-.8-1.6.6-1.2-.3.3-1-2.2-2.1c-2.6-1-2.7-1.2-.8-2q1.8-.7 1-.9-.7-.1.9-1.5t1-2.7q-1-1.5.7 0c1 1 1 1.7.2 3q-1.2 1.9-.1 3.3 1.2 1.6.4-.4-.6-1.8.6-1.4c.7.2 1.2 1 1 1.5q0 1 1.6.6 2.4-.9 0 .6-2 1.1-.9 2.8 1.1 2-1 1.8-2.1.1-.6-1.5M82.5 23q.6-.9 1.6-1 .8 0 .9 1-.1 1-1.6 1-1.3 0-.9-1m-39.8-1.8q-3.1-3.3-.2-3.2 1.3.1 1.5 1 0 1 1 .6.7-.4.3 1.4c-.6 2.4-.6 2.4-2.6.2m32 .4q-.6-1.5.8-1 1.3.7 1 1.5-1 1.9-1.8-.5M92 22q0-1 1-1.6.9-.5.4 1-1.2 2.6-1.4.6M37.5 20c-1.6-1.7-1.6-2-.2-2q1.4-.2 2-1.2.5-1.1 1.2-.6.6.8-.5 2.3T40 20t1.1 1c0 1.6-1.5 1.2-3.5-1m95.5 1q.1-.9 1.1-1t.5-1.5c-.4-1.2.1-1.5 3-1.2 4.6.6 5.1-.6.9-2.3q-3.4-1.3-3.5-3.1c0-1.7-.3-1.7-3.5-.3-2 .8-3.5 1.2-3.5 1a48 48 0 0 1 14.4-6.3c.4-.4 1.9-.8 3.4-1q2.4-.1 1 .4-1.7.5-1.8 1.4t-1.5.9c-2.3 0-1.8 1.6.5 1.7 2.5.2 5.3 3 4.5 4.4q-.7 1-1.8-.4-4-4.5-4.2 1.2c0 2.8-.4 3.6-1.7 3.5q-1.7 0-1.8.8-.1 1-1.4.5-1.4-.4-2 .9c-.6 1.6-2.6 2-2.6.4m6.7-10.7c-.8-.9-2-1.2-2.6-.9q-2.7 1.8 1.5 2.3c2.4 0 2.5 0 1.1-1.4m-73 8.3q-.6-1.5.8-1 1.3.7 1 1.5-1 1.9-1.8-.5m-36.7-1c-.6-.9-1-2.3-.8-3.2.3-1.6.4-1.6 1.8.1q1.3 1.7.3 1.1Q30 15 30 16q.2.9 1.8 1.3t.6 1q-1.2.6-2.4-.7m114 1c0-.8 3-1.4 3.4-.8q.3.7-1.5 1c-1 0-1.9 0-1.9-.3m23-1.6q0-.9 1-1 .9.1 1.5 1t-1 1q-1.4 0-1.5-1M42.6 15.1q-.3-.8 1.3-1.4 2-.4 1.6-3Q45 7.7 47 8c2.3 0 2.3.4.3 3.5C46 13.5 46 14 47 14q1.6-.1-.1 1c-1.9 1.2-3.7 1.3-4.4.1m118-.5q-.4-1.5.8-1c.7.3 1.9-.2 2.6-1.1 1.2-1.4 1.1-1.8 0-2.7q-1.8-1.2.3-.4c1 .3 2.5.6 3.3.6q1.3.2 1.4 2t-1 2a1 1 0 0 1-1-1c0-1.8-1.8-1-2.3 1-.6 2.3-3.2 2.7-4 .6M37.7 13q.5-1.9-1.5-3.3c-2-1.5-2-1.5.5-2.6 3.3-1.6 4.4-1.5 4.4.3q-.1 1.4-1 1.5-.9-.1-1-1.2 0-1.4-1 .2c-1 1.6-.3 3.3 1 2.5q.7-.3.5 1.2l-.4 2.6q-.1.6-1 .7-.8-.1-.4-1.9m114.9-.2q-.6-1-.3-1.4c.7-.7 4.8.7 4.8 1.6 0 1.3-3.7 1.1-4.5-.2m-119-.9q-.4-1 .4-1 1 0 1.1 1 0 1-.4 1t-1.1-1m125-4.2q.2-1.6-.6-1.8t-.9-1c0-1.9 3.3-.6 3.6 1.3q0 1.6-.6 1.2-.8-.4-1.3.7-.3 1-.2-.4m11.7.3q-1.6-.8.4-1.5c2-.8 3.2 0 1.8 1.4q-1 .7-2.2.1M42 6.7q0-1.7 1.1-1.4c.7.2 2.2 0 3.3-.6q2.6-1.6.6.7c-.8 1-2 1.5-2.7 1.2q-1.2-.4-1.8.7-.4 1-.5-.6m92.6-.7c2.3-1.1 5.7-2.3 7.5-2.5q3.1-.5-2.2 1.3c-9 3.2-9.7 3.3-5.3 1.2m27.8-1q-.5-.9.4-1c.5 0 1.3.5 1.6 1q.5 1-.4 1c-.5 0-1.3-.4-1.6-1m4.3.3q1.2-.4 2 .1.4.5-1.4.5t-.6-.6M44.5 2.5c2.5-.9 10.4-1.2 10-.4-.4.5-3 .9-5.8.8-2.9 0-4.7-.2-4.2-.4m13.8-.2c1.5-.2 3.7-.2 5 0s0 .4-2.8.4-3.8-.2-2.2-.4" style="fill:#e01e27"/><path d="M103.5 193.8c-1.6-3.3-1.6-3.3.2-1l2 2.3 2.3-4.6a23 23 0 0 1 3.3-5.2c.4-.3-.6 2.2-2.3 5.6a32 32 0 0 1-3.5 6.1c-.2 0-1.2-1.5-2-3.3m-7.7-12c-11.1-16.3-19.3-24.7-45.3-46.3a183 183 0 0 1-34.4-35.6C10.8 92 4 78 4.1 75c0-.8 1.4 2.3 3.3 7 4 10 7.4 15.4 15.4 25.2S36 121.9 36 119.8c0-.9 1-1.8 2-2.1q2.7-.9.8 1.1c-.7 1-1.7 2-2.1 2.3-.7.5 15.2 15 17.4 15.8q.9.1-.3-1.8a7 7 0 0 0-3-2.6c-2.2-.8-3.2-3.5-1.2-3.5q1.5-.1 1.1-1.3t1.3-1.3c1.8 0 1.6 2.5-.3 3.8-.6.3.5 2 2.4 3.7s2.7 3.1 2 3.1q-1.4 0 1.4 3c2.7 2.8 5.3 4.1 4 2q-.4-.9 1.1-1 1.9 0 .8 1c-.8.8 2.9 5 12 14.3 8 8 15.5 16.7 19.2 22.2 6.8 10.1 7.7 11.5 7.1 11.5-.2 0-2.9-3.7-6-8.2m17.3.2c2.1-4.4 10-14.3 18.8-23.3 4.7-4.9 7.7-8.5 6.6-8q-2.6 1-.6-1 1.5-2 2.2-.5c.6 1 1.7.4 4.3-2.1 3.4-3.3 4-5.6 1.2-4.5q-1.3.4-2.2-.7-.7-1.2.5-.5c.6.4 1.8.2 2.6-.4q1.6-1.6 1.5.4 0 1.5.6 1.6c1.4 0 19-15.5 28.7-25.3q10.6-10.7 10.3-12.4-.4-1.3.3-.9c1.7 1.1 12.3-15.6 15.6-24.7 1-2.6 2-4.6 2.2-4.3 1 1-5.9 15.1-11.2 23.1-7.6 11.5-19.8 24-38.5 40-23.2 19.6-30.1 26.7-42.3 43.5l-1.8 2.5Zm-1.1-4q1-1.8 1.6-2 .3.2-.6 2-1 1.8-1.6 2-.3-.2.6-2m13.3-21.5q0-1.3.9-.9.8.6.3 1.5-1.3 2-1.2-.6m4.1-.7q-.6-1.1 0-.6 1 .5 2.3-.8 1.5-1.3 2-1c.5.5-2.1 3.6-3 3.6q-.7-.1-1.3-1.2M75 153.5c-2-2-2-2.5-.7-2.5q1.6.1 1.7 1.4a2 2 0 0 0 1.3 1.9q1 .4.6 1c-.3.4-1.6-.4-2.9-1.8m6 .5q.1-.9 1-1 1 .1.5 1t-1 1-.5-1m-10-5q0-1 1-.6.7.5 1.3-.4.5-.9.3.2c-.3 1.5-2.6 2.3-2.6.8m-2.5-2q-.4-.9.4-1 1 0 1.1 1 0 1-.4 1t-1.1-1m12.5-1q-1.2-.9-.5-1a6 6 0 0 1 2.5 1q1.2.9.5 1a6 6 0 0 1-2.5-1m5.6-.1q.6-.8 1.4-.4.8.3 1.4-1.2.6-2.3.3.1c-.1 1-1 2-2 2.2q-1.6.1-1.1-.7M64.5 144q-.5-.9.4-1c.5 0 1.3.5 1.6 1q.5 1-.4 1c-.5 0-1.3-.4-1.6-1m3.5-.5q-1.6-1.8.4-1 1.5.7 1.6 1.6 0 2-2-.6m14.7-1.2c-1.3-1.3-.7-3.3 1-3.2q1.7 0 .5.6c-.6.2-1.2 1-1.2 1.5q.1.9 1.6.4 1.3-.5.9.4c-.7 1.2-1.9 1.3-2.8.3m-12.1-1.6q.5-1.3 2-1.4t.3 1.4q-1 1.2-2 1.3-.7-.1-.3-1.3m64.4-.7q.1-.9 1-1 1 .1.5 1t-1 1-.5-1m-48.7-1.7c-.3-.9-1.4-1.3-2.5-1q-1.9.5-1.5-.6c.2-.7 1.5-1.2 2.9-1.3 2 0 2.5.3 2.2 2q-.3 1.8.2.8.6-1.3 1.8-.3 1.4 1.4 1.4-2.5 0-3.2-.8-2.9-.9.5-.4-1c1-2.4 3.3 0 2.7 2.8q-.5 2.4.5.8t1.7-.1c.8 1.3-3 4.3-5.8 4.5-1 .1-2.1-.5-2.4-1.2m-27.8-.3q.6-.9 1-1t.5 1-1 1-.5-1m13.5-1q-2-1.1.3-1 1.6 0 1.7 1c0 1.2-.1 1.2-2 0m53-1q-1.4-1-.3-1c.6 0 1.5.4 1.8 1q1.3 1.8-1.5 0m27.7-.5q-.5-1.3.5-2.1 1-.7.3.6-1 1.5 1 .6 2.2-.9.5.9c-1.5 1.9-1.6 1.9-2.3 0M68 134.3q-1.2-1.3-.8-1.9.5-.3 1.7 1.1c1.7 2 1 2.7-.9.8m72.5-.6q.6-1.6 1.2-1.2.4.5-.7 1.8-1.4 1.5-.5-.6m-45.3-1.3q.1-1.3 1.4-1.4t1.3.9q-.1.8-1.3 1.4-1.3.4-1.4-.9m3.7-1c0-1.6 2.1-1.4 3.2.1q.7.8.8-.7c0-2 1.7-2.3 4-.8q1.5 1 .2 1-1.2.1-.8.8c.2.4-1.3.8-3.5.8q-3.9 0-3.9-1.3m13.5-.4q-.5-.9.4-1c.5 0 1.2-1 1.4-2.2q.5-3.1.6.4c.1 2.8-1.3 4.5-2.4 2.8m17.2-.4q-.4-1.4 1-2c2.3-1 2.8 0 1 1.8-1.3 1.3-1.6 1.3-2 .2m12-.4q-.3-.7 1.3-.8 1.6.1 1.4.8-.6.7-1.4.8-.8-.1-1.4-.8m17.3.4q.1-.3 1.5-1 1.4-.4 1.5.4-.1 1-1.5 1t-1.5-.4m-66-2.1c1.6-2 5-3.9 5-2.8 0 .4-1.4 1.6-3.2 2.6-2.6 1.5-2.9 1.5-1.8.2m26.3.8q.6-.6-.4-2-1.2-1.4 2 .3c3.8 1.9 3.9 2.4.4 2.4q-2.3 0-2-.7m6.5 0c.6-.2 1-1 .6-1.5q-.5-1 .4-.4c1.8 1 1.4 2.6-.6 2.5q-1.5 0-.4-.6m26 0q1.2-.4 2 .1.4.6-1.4.5t-.6-.6m4.3-1.7q-1.5-1.5.1-2.2 1.1-.6.6.1c-.4.4-.3 1.4.3 2.2q1 1.2.6 1.3c-.2 0-1-.6-1.6-1.4m-110.2-.4c1.1-.8 1.1-1 0-1.5q-1.5-.6.4-.6c2.1-.1 1.8 2-.4 2.7q-1.8.5 0-.6m81.6-1.1q-.5-.9.3-1.5.8-.4.9 1 0 2.4-1.2.5m14-.8q-.6-1.5 1.5-.3 3.8 2 2.4-.2-.7-1 .5-.4 1 .7.6 1.6c-.8 1.3-4.4.8-5-.7m-20-.4q-.8-1-2.2-.4-2 .8-.3-1 1.2-1.4 2.3-1.5.9 0 .4.7t.4 2q1 1.2.6 1.3-.6-.1-1.2-1m-81.3-1.2q-1-1.2.3-2.4 1.4-1.5 1.3 1.3c0 2.8-.2 2.9-1.6 1.2m94.4-.9q.6-.7 2-.1 3 1.2-.5 1c-1 0-1.8-.5-1.5-.9m-21.8-.5q1.2-.4 2 .1.3.5-1.4.5t-.6-.6M74.5 121q.6-.9 1.6-1 .8.1.9 1-.1 1-1.6 1-1.3 0-.9-1m16.2-.1q1.2-1.1 1.8-.7.4.6-1.2 1.2-2 1-.6-.5m4.8.1q-.4-.9 1-1 1.4.1 1 1-.6 1-1 1t-1-1m22-1c-.3-.4.6-.6 1.8-.6a6 6 0 0 0 3.4-.6q1-.8 1.8.2c.3.6 1.2.7 1.8.4q1.1-.5.4.1c-.8 1-8.7 1.3-9.3.4m13.2.3q-1.6-.5-1.7-1.4.1-.8 2 .1t2 1.5q0 .4-.2.4zm8.2.7c-.7-4.4-.8-5.3-.1-4.5q.7 1 1.4 1.5t-.2 2q-1 1.3-1 1m5.1-3q-1.1-1.9.2-2.6 1.1-.6.6 0c-.4.5-.3 1.7.3 2.7s.7 1.9.5 1.9q-.6-.2-1.6-2m-51 0q.1-1 1-.5t1 1q-.1.5-1 .5-.9-.1-1-1m79.7.4q1.1-.6.6-2t1-.8c2 .7 1 3.4-1.2 3.3q-1.3-.1-.4-.5m-140-2c-1-1 .5-3.4 2.2-3.4q2.1-.1-.2 1-1.6 1.2-1.2 2 .9 1.7-.8.4m118.4.3 2.4-1.7q2.7-2.2.6.3c-.7 1-1.8 1.7-2.4 1.7q-.9 0-.6-.3m-70.2-1.4v-1.5q0-.7-1.5-.1c-1.6.6-6.4-3.6-6.4-5.7q0-1-.9-.6t-1.5-1-2.6-1.1c-1.1.3-2.3 0-2.7-.5q-.4-1 .5-.4c.6.3 1.8-.4 2.6-1.6q2.8-4-1.1-2-2.1 1.4-2-.3 0-1.3.9-.9.7.3.8-.5 0-1 2.6 0c2.7 1 6.6-.2 4.5-1.5-.6-.4-1.1-1.6-1.1-2.6q-.1-1.7-1.2-2.3-1-.4 1.7-.4c2.5.2 3-.2 2.9-2q0-2.1.8-2.3.8.1.7 1.3c-.3 2.4.1 5 .7 4.4q.8-.4 2.5.3 2 1.3 1.6-1c-.1-2.2-1.3-2.7-2-.7q-.4 1.2-1.2-.7-.7-1.7.6-2.7 1.3-.8.4-1-.7 0 1-1.2c1.1-.7 2-1.8 2-2.4q0-1.2.8-1.3h2.6c1 0 2.1.9 2.4 2.1q.6 2 1.9 1.3 1.4-.8-.2 1c-1.3 1.7-1.5 1.7-2.3-.9q-1-3-1.8-1.4-.8 1.4-1.9 1.5l-2 .3c-.5 0-1 .9-1 1.8Q82 91 83 89q1.3-2 1 1.6 0 .7 1.2 1.5 1.6 1-.2 1-1 .1 1.5.8c1.7.4 4 .2 5.2-.4 2.5-1.1 3.2-3 .8-2.1-2.2.8-1.8-.7.6-2.2q1.9-1.2 1.4-.3-.3 1 .5 1.1 1.1.1.7 1.3-.4 1.3 1 1.4 1.2-.1.9-1.4-.4-1.2.4-1.3c.6 0 1 1 1 2q-.1 1.9-1.2 2c-3.3-.5-6.8.1-6.8 1.1q.2 1 1.5.5 1.5-.5 1.5 1 .1 1.2 1.6 1.4 1.7 0 1.1 2-.4 1.8.4 2t.9 1.1q0 1.1-1.5-.1c-1.3-1-1.8-1-3 .6-.8 1-1.5 2.6-1.5 3.5s-.6 2.1-1.3 3q-.8 1 1.2-.6l2.4-2-1.2 2.3q-1.3 2.4-3.1 1.9t-2.4 1 .8 1 1 .9c-.7 1.6-4.4 2-4.4.4q0-1-2 0-1.8.9-2.1.3M75 104.5c1.9-2.3.8-2.5-1.4-.4q-1.7 1.7-.9 1.9 1-.2 2.3-1.5m4-1.5q-.1-.9-1-1-1 .1-.5 1t1 1q.5-.1.5-1m12.8-5.1q-1.2-.8-2.3-.9-.7.1.8 1c1 .6 1.8 2.3 1.8 3.8l.2 2.7.4-2.9q.5-2.7-.9-3.7M85 101q-.1-.9-1.6-1-1.3.1-.9 1 .6 1 1.6 1 .8-.1.9-1m11-1q0-.9-1-1a1 1 0 0 0-1 1q.1 1 1 1t1-1m-15-3.6q-.2-.3-2 .6-1.8 1-2 1.6.2.3 2-.6 1.8-1 2-1.6M86 85q-.1-.9-1-1-1 .1-.5 1t1 1q.5-.1.5-1m9 30.2q.2-.8 1.5-.9t.9.9a2 2 0 0 1-1.5.8q-.8-.1-.9-.8m20.8-.9q1.2-.4 2 .1.3.5-1.4.5t-.6-.6m61.2.3q.2-.5 1.8-1.7 2.3-2 .3.3-2 2.6-2.1 1.4m-85.2-1.3q1.2-.4 2 .1.3.5-1.4.5t-.6-.6M61.3 112q.5-1.3 1.7-1.5 1.2.2 1.7 1.5.7 2-.6 0c-1-1.3-1.2-1.3-2.2 0q-1.4 2-.6 0m35.2 0q-.4-.9.4-1 1 .1 1.1 1 0 1-.4 1t-1.1-1m-67.7-.7q1.2-.4 2 .1.3.5-1.4.5t-.6-.6m117.4-3.4q0-2.9.9-1.8c.4.7.5 1.7.3 2.1q-.3.7.5.8 1 .1 1.1 1-.1 1-1.4 1-1.4 0-1.4-3M97 109.4c0-.6 1.2-2 2.6-3.3 2.7-2.3 2.7-2.3 2.1-.2-.4 1.8-.2 2.1 1.6 1.7q1.8-.5 1 0-1.1.6-.7 1.6.4.8-1.7-.3c-2.8-1.5-3-1.5-4 .3q-.8 1-.9.2M22 104c-2.2-2.8-3.8-5-3.3-5a15 15 0 0 1 3.8 4c1.7 2.1 3.7 4 4.5 4.2q1.5.3.4 1c-.7.5-2.9-1.3-5.3-4.2m38 3.5q-1.3-1.9-2.1-.3-.7 1.1-1.4.6c-1.2-1.1.5-2.8 2.7-2.8q1.9 0 1.5.7-.6.6.4 2 1 1.2.6 1.3-.5-.2-1.7-1.5m89-.9q.1-.4 1.6-1 1.3-.5.9.4c-.6 1-2.5 1.4-2.5.6m-101-3q-1.2-1.4.1-2.2 1.2-.7.4.6-1 1.5.8.7 1.6-.5 1.7.3c0 1.6-1.8 2-3 .6m4-.1q.1-1.3 1-1.5 1 .2 1 1.5t-1 1.5q-.9-.2-1-1.5m102 0q-1.6-1.8.4-1 1.5.7 1.6 1.6 0 2-2-.6m7.5.5q-.4-.9.4-1 1 .1 1.1 1 0 1-.4 1-.6 0-1.1-1m12.5.6q.2-.5 1.8-1.7 2.3-2 .3.3-2 2.6-2.1 1.4M58.5 103q-.5-.9.2-1 .5-.2-1.7-1.2c-1.4-.6-3.2-1-4-.9q-1.3.3-.8-.4c.3-.3 1.4-.8 2.5-1 1-.1 1.7-1 1.7-1.8q-.1-1.5 1.4-1 1.5.7.8-.8-.5-1.2.7.4c1.5 1.8 4.6 2 5.8.3.4-.4 2.1-1 4-1.2s3-.1 2.6.3c-.4.3-.2 1.2.4 1.9q1 1.2-.2 2-1.1.6-.6-.3.3-.9-3.9-.9c-2.4 0-4.4.4-4.4.8s-1.2.3-2.6-.2c-2.3-1-2.5-.8-2 .7 1.6 4 1.6 6.8.1 4.3m95.1-3.5q.7-1.3 1-1.5.4.2.4 1.5t-1 1.5q-.8-.2-.4-1.5m7.4-1.4c1.1-2.2 3-2.9 3-1.1 0 .5-1 1.4-2 2-2 1-2 1-1-1M96 97q-2-1.1.2-1 1.7.1 2.3 1c.8 1.3-.5 1.3-2.5 0m4 0q.1-.9 1-1 1 .1.5 1t-1 1q-.5-.1-.5-1m68 .1c0-.5.5-1.3 1-1.6q1-.5 1 .4c0 .5-.4 1.3-1 1.6q-.9.5-1-.4m17.6 0q-.4-.7.9-.8 1.3 0 .9.9-.5.7-.9.8-.4-.1-.9-.8m-138.2-1q.4-1-.6-1.4-1.2-.6-.2-.6c.6 0 1.7.6 2.4 1.4q1.6 1.7-.4 1.5-1.6 0-1.2-1m132.4.2q1.2-.4 2 .1.4.5-1.4.5t-.6-.6m-59.2-2c2.1-1.5 4.8-1.8 3.9-.3q-.7 1-1.6.5-.8-.5-.9.3t-1.6.9c-1.4 0-1.4-.2.2-1.4m-106-.8q-.4-1.3.4-1.5 1 .2 1 1.5t-.4 1.5q-.3-.2-1-1.5M106 93c0-.5-1.3-1-3-1s-3-.5-3-1 1.7-1 3.8-.9c2.9.2 3.8.7 3.8 2 0 1-.4 1.9-.8 1.9q-.7-.1-.8-1m8.3-1.4q1.2-2.3 2-1.6.8.9-.6 2.4-3.3 3.4-1.4-.8M155 93q.1-.9 1-1 1 .1 1 1t-1 1a1 1 0 0 1-1-1m20.6 0q-.4-.7 1.4-.3c2.3.6 2.6 1.3.6 1.3q-1.4 0-2-1m-3.5-.9q-1.3-.7-.3-1.5.9-.5 1.6 1c.6 1.6.6 1.7-1.3.5m-105-2.7q0-1.7.6-.6.4 1.2-.1 2-.5.3-.5-1.4m41.9.6q.1-.9 1-1 1 .1 1 1t-1 1a1 1 0 0 1-1-1m86 .6q.1-.5 1.5-1.6 1.8-1.6 1 .4c-.6 1.4-2.5 2.3-2.5 1.2m-21.6-2.2q-2.8-2.1.3-.5c3.1 1.6 4.1 1.3 1.9-.4q-1.7-1.4-1-1.5c1.5 0 3.5 2.5 2.7 3.3-1 1-1.7.9-3.9-.9m-76.3-1c1.4-1.7 3.2-1.9 2.7-.2q-.5 1-2.2 1.4-2 .5-.5-1.2m33.7.6q2.4-3-.2-3-1.4-.1-2.2-1.1-.8-1.2 1.8-.6c2 .5 2.7.2 3.6-1.6l1-2.2-.1 2.3c0 1.2-.5 2.2-1 2.2q-.6.1-.7 1.4c0 .7-.8 2-1.7 2.7q-2.2 1.6-.6-.1m8.7 0q-.6-1.2-.1-1.7t.6.6 1.2.5.4.4c-.9 1.5-1.3 1.5-2.1.1m4 .2c.3-.3 1.3-.7 2.1-.8q1.4-.2 1 .4c-.4.3-1.4.7-2.2.8q-1.4.2-1-.4m37 0q-.2-1 1.3-2.3 2.2-1.9.5.2c-.7.9-1 1.9-.6 2.2q.5.7 0 .7t-1.1-.9M59 86.1q-2-2.2.4-.3 1.6 1.2 1.7 1.7 0 1.2-2.1-1.3m68.6.8q.6-.9 1-1 .5.1.5 1-.1 1-1 1t-.5-1m56.8-.5q0-1.3.9-.9.8.6.3 1.5-1.3 2-1.2-.6m-67.3.1q.2-.4 2-.9t1.4.4c-.5.9-3.4 1.3-3.4.5m5.2-.9q-.9-1.2-10.7-1.1c-5.3 0-9.8-.3-10-.8q-.5-.6.8-.2c.8.3 1.8 0 2.1-.5q.8-.9 2.9-.3c2 .7 4.2.8 5 .2 1-.8 4.7-.5 4.7.4q0 1 .8.1c.9-1.2 7.2-1.5 7.2-.3q.1.8 1 .3t-.2 1.4c-1.5 2.4-2.2 2.6-3.6.8M90 84.2c0-1.3 2.6-2.3 3.5-1.4 1 1 2.9 1 3.6-.1q.6-.7 1.2.5c.4 1-.6 1.5-3.9 1.7-2.4 0-4.4-.2-4.4-.7m95.5-.2q-.8-1-2.8-.5t-1.2-.2l1.6-1.6c.3-.4 1.4.2 2.4 1.3q1.6 1.8 1.2 2-.6-.1-1.2-1m11.5 0q.1-1 1-.5t1 1-1 .5q-.9-.1-1-1M10.7 82q-.7-2.4.5-1.2c.5.5.8 1.6.6 2.3q-.5 1-1-1M145 83.7q.2-.6 2-1.6t2-.6q-.2.6-2 1.6t-2 .6m8.7-1.7q1.2-1.1 1.8-.7.4.6-1.2 1.2-2 1-.6-.5m11.3.2c0-1 2.6-.9 3.6.2q.5.7-1.4.7c-1.2 0-2.2-.4-2.2-1m-85.4-1q-.6-1.2-.2-1.8c.9-1 1.9.4 1.4 1.8q-.4 1.5-1.2 0m19.9-.1q-.4-.9.4-1 1 .1 1.1 1 0 1-.4 1-.6-.1-1.1-1M91 80q.2-.7 1.5-.6c2.3.3 2.6 1.2.5 1.3q-1.8.1-2-.7m12.4-.5c1.1-.8 2.4-1.5 3-1.5q.7.2-1 1.5c-1 .8-2.4 1.4-2.9 1.4q-.7-.1 1-1.4m9.4.8q1.2-.4 2 .1.3.5-1.4.5t-.6-.6m15.7-.3q.6-.9 1-1 .5.1.5 1-.1 1-1 1t-.5-1M45 79.1q.1-.9 1.6-1.5 2-.9.4.9-2 2.5-2 .6m71.6 0c-.2-.3 1-.8 2.7-1 1.7 0 2.8.2 2.4.6-1.1 1-4.5 1.4-5 .5m14.7-.6q-.5-1.5 0-2t1 1.5q.7 3.6-1 .5m29.7.4q.1-.8 1-.4 1 .6 1 1t-1 .5-1-1m-51-1.3q0-1.4 1-2 .7-.4.3 1.4c-.6 2.3-1.3 2.6-1.3.6m24.7 0q-.6-1.5.8-1 1.3.7 1 1.5-1 1.8-1.8-.5M114 76.4q0-1.7.6-.6.4 1.2-.1 2-.5.4-.5-1.4m8.9 1.2c0-.7 4-1.4 4.4-.7q.3.7-2 .9c-1.3 0-2.4 0-2.4-.2m78-1q.1-1.3 1.5-2 1.9-.8.5 1.4-2 3.5-2 .6m-60.5-.7c-1-1.4-.2-2 1.4-1q1.3.8.3 1.5-1 .4-1.7-.5M6.3 74.5q0-1.3.9-1.5.7 0 .8 1a2 2 0 0 1-.8 1.4q-.8.4-.9-1m116.8-2q0-1.9.6-.7.4 1.2-.1 2-.5.4-.5-1.4m4.5 0q.8-1.6-1.2-.8-1.6.6-1.1-.4c.3-.5 2.1-1 4-1q2.7 0 1.4.4-1.6.5-1.7 1.4t1.2.3q1-.6.4.4c-1 1.8-3.6 1.5-3-.3m72.4.5q-2-1.1.3-1 1.6.1 1.7 1c0 1.2-.1 1.2-2 0m6.2-.5c0-1.1.4-3.1.8-4.5q.9-2.9.8-.5a18 18 0 0 1-.8 4.5q-.9 2.9-.8.5M2.7 70.2a59 59 0 0 1 14.6-53.6A51 51 0 0 1 40 3.5q3.8-.6-2 1.3A53 53 0 0 0 3 63.6c.7 4.7 1 8.7.7 9-.2.3-.7-.8-1-2.4M36.6 72q-.4-.8.7-1.4 1.3-.4 1.4.9c0 1.6-1.3 1.9-2.1.5m5-1q-.6-.9.2-1.5.8-.4.9 1 0 2.4-1.2.5m91.9-.1q.6-.9 1-1 .5.1.5 1-.1 1-1 1t-.5-1m13-1q-.5-.9 1-.4 2.6 1.2.6 1.4-1 0-1.6-1M66 69.7q.1-.5 1.4-1.6 1.5-1.5 2.2.1.6 1.1-.1.6-.8-.6-2.2.3-1.2 1-1.3.6M5.6 67.2l-1-4q-.6-2 .2-2.2.8.1 1 1.3c0 .6.3 2.4.7 4 .4 1.5.5 2.7.2 2.7q-.6-.2-1-1.7M96 68.7q.2-.4 2-.9t1.4.4c-.5.9-3.4 1.3-3.4.5m91-1c0-.2.7-1 1.5-1.6q1.8-1.6 1 .4c-.6 1.4-2.5 2.3-2.5 1.2m-42.4-2.1q.7-1.3 1-1.5.4.2.4 1.5t-1 1.5q-.8-.2-.4-1.5M93 65q.1-.9 1-1 1 .1.5 1t-1 1q-.5-.1-.5-1m48 0c0-1.3 1.8-2.2 2.4-1.1q.5.8-1 1.5-1.2.4-1.4-.4m67-8c0-4.3-.5-10.3-1.1-13.2-1.3-6.2-8-20.9-8.6-19q-.6 1-2.1 1.2-2.2.2.3-1.6c2-1.5 1.8-1.7-5-8.3C181.3 6.4 174.5 3.8 158 3l-12.5-.6 11-.2c9-.2 12.4.2 17 1.8 21.7 7.5 34.1 25.2 35.3 50.3.2 5.9.2 10.7-.2 10.7-.3 0-.6-3.6-.6-8M21.5 63q-.4-.9.4-1 1 .1 1.1 1 0 .9-.4 1-.6-.1-1.1-1M32 62q.1-1 1-.5t1 1q-.1.5-1 .5-.9-.1-1-1m25.5-1-3-.8h2.7c1.5-.1 3 .3 3.3.8q.5 1 .3.9zM183 61q.1-.9 1-1 1 .1 1 1t-1 1a1 1 0 0 1-1-1m5.8-.9c-1.6-1.6-1.6-1.7 0-1.8q1.7 0 2 1.8c.1 2.3.2 2.2-2 0M83 60q.1-.9 1-1 1 .1.5 1t-1 1q-.5-.1-.5-1m-38-1q0-.9 1-1.5t.4 1Q45.2 61 45 59m54.9-1.7q-2-2.4.3-.4 2.6 2 1.4 2.1-.5-.2-1.7-1.7M81.6 56q-.4-.9.7-1.4 1.3-.4 1.4.9c0 1.6-1.3 1.9-2.1.5m-9.2-1.6q-1.7-1.3-.9-1.5c1.5 0 4 1.8 3.4 2.4-.3.3-1.4 0-2.5-.9m52.2.7q-.4-.8 1-.9 1.2 0 1.4.9 0 .7-1 .8a2 2 0 0 1-1.4-.8M191 55q-1.4-1-.3-1c.6 0 1.5.4 1.8 1q1.3 1.8-1.5 0M59.5 54q.6-.9 1-1 .5.1.5 1-.1.9-1 1-1-.1-.5-1m4.5-1q.1-1 1-.5t1 1q-.1.5-1 .5-.9-.1-1-1m4.5 0q.6-.9 1-1 .5.1.5 1-.1.9-1 1-1-.1-.5-1m80 0q-.4-.8.3-1.4.8-.4.9 1 0 2.4-1.2.5m12.5 0q.1-1 1-.5t1 1-1 .5q-.9-.1-1-1m5.2-1.2c.7-1.3 1.1-2.7 1-3.1q-.1-.7.7-.3c1 .7-.9 5.6-2.2 5.6q-.6-.2.5-2.3m11.4-.1c-1.6-1.2-1.6-1.4-.3-1.4q1.5.1 2.1 1.4.5 1.2.3 1.3-.4-.1-2.1-1.3m3.4 1q.2-.5 1.8-1.8 2.3-2 .3.4-2 2.5-2.1 1.3m4.4-2c.1-.6 1.2-1.3 2.4-1.3q2 0 1.6.8-.6.8-2 .4-1.2-.3-1.8.5-.3.8-.2-.3m-181-1c.3-1 .6-2.6.6-3.5q0-2 .9-.4.8 1.2 1.5 1.3.5 0 .6.4t-.5.3-2 1.7q-2 2.6-1 .2M194 49q.1-.9 1-1 1 .1.5 1t-1 1q-.5-.1-.5-1m-35-.4q.2-.5 1.8-1.7 2.3-2 .3.4-2 2.5-2.1 1.3m-99.3-2.2q.3-1.2-1.8-1.6c-1.2-.2-2.4-1-2.6-1.8q-.6-1.8.5-.1 1 1.2 2.6.8 1.5-.6 1.6.4 0 1 1 .4.8-.3.7 1.3t-1.3 1.9q-1.1-.1-.7-1.3m3.3.5q.1-.8 1-.4 1 .6 1 1-.1.5-1 .5-.9-.1-1-1m4.4-.1q1.8-1 2.8 0t-1.8 1q-3.3.1-1-1m108.3-.5q.6-1.4-1.2-1.1c-1 .2-2-.2-2.2-.9q-.5-1.2 2.4-.8l4.8.5q1.7.1.7.7t-.6 1.4q.4.9-.3 1l-2.5.4q-1.7.3-1-1.2m-10.7-.5q0-1.6.7-1.9c.5 0 1.9-.2 3.1-.5q2.3-.4 2 .8-.6 1.2-2.4 1.3c-1 0-2.2.4-2.6 1q-.8.9-.8-.8m39.2-.3q-1.6-1.6.3-1.5 1.4.2 1.5 1.5c0 1.8-.2 1.8-1.8 0M96.5 45q.6-.9 1-1 .5.1.5 1-.1.9-1 1-1-.1-.5-1m8.5 0q-.2-.8-1.7-.4-2 .8-.4-.4c1.6-1.1 5.3-.4 4.5 1-.7 1.1-2.4 1-2.4-.2m11.5 0q.6-.9 1-1 .5.1.5 1-.1 1-1 1t-.5-1m67.5 0q-1.9-1.1 1.3-1c1.6 0 2.6.4 2.2 1-.8 1.2-1.6 1.2-3.5 0m-30-1.4q.2-.6 2-1.6t2-.6q-.2.6-2 1.6t-2 .6M6 41.5q0-1.3.4-1.5.4.2 1 1.5.4 1.3-.4 1.5-1-.2-1-1.5m145.6-.2q-1-2 .5-.6 1.1 1.2.7 1.8-.6.4-1.2-1.2M163 41c0-.5 1-1.1 2-1.4q2.4-.7 1 .9c-1.4 1.6-3 1.9-3 .5m9.5-1.1c-1-1.2-2.5-1.8-3.2-1.6q-1.2.4-1.7-.3c-.5-.7 2.1-.8 4.4-.2.6.1 3.2 4.1 2.7 4.1-.2 0-1.2-1-2.2-2m5.5 1q0-1-1-.5-.9.3-1-.5.1-1.1 1.6-.6 1.7.7.9-1.4-.6-1.9.5-2 1 0 .4 1.2-.8 1.2 1 .5c2-.8 2-.5-.4 2.3q-1.8 2-2 1m4 .5c0-.5.5-1.7 1-2.5q.9-1.3 1-.6t1.3-.3c1-.8 1.8-.6 3.3 1q1.8 2.1.4 1.4c-2.2-1.3-4-1.5-4-.4q0 1-1 .5-.7-.4-1.3.6-.5 1-.6.3m-133-2q.1-1.5 1-1 1 .7.5 1.6-1.4 2-1.5-.7m47.3.7q-1.5-.7.7-2.5c2.6-2.2 3-2.1 2.7.5q-.7 3.7-3.4 2m104.2-.2q-.4-.9.4-1 1 .1 1.1 1 0 1-.4 1-.6 0-1.1-1m-41.2-2.4q-.4-.8.5-.2 1.1.6 1.3-1 0-1.8.6-.6.4 1 1.3.7.7-.4 1.3.8c.5 1.4-4.2 1.7-5 .3m33.7.4q.1-1 1.5-1t1.5.4q-.1.4-1.5 1-1.4.4-1.5-.4M50.5 37q-.2-.7 1.5-1.3 1.8-.4 2 .3c0 1.2-2.8 2-3.5 1M200 37q1.4-1 .5-1.7-.8-1-1.1-2c-.4-4.8-.4-4.8-1.3-3.4-.8 1.2-5.1 2.4-5.1 1.5 0-.4 5.7-3.4 6.3-3.4s1.8 2.8 2.7 6.8c.7 2.9.6 3.2-1.4 3.2q-2.5.1-.6-1M8 34.7c0-.2.7-1.9 1.6-3.7q1.7-3.5 2.5-1.9c1.2 2 1.1 4.2-.1 3.4q-1-.5-1.6 1C9.9 34.7 8 35.6 8 34.6m93-1.2q0-1.3.4-1.5.3.2 1 1.5.4 1.3-.4 1.5-1-.2-1-1.5m67.9.3q-1.5-1 1.8-.4 3.2.4 3.3-.5t1-.4q1 .8.6 1.2c-1 1-5.3 1-6.7.1m9.6.1q-.6-1-.2-1.5.4-.3 1 1c.7 1.8.1 2.1-.8.5m-86.8-2.6q.5-1.2.8-1.3.3.1.8 1.3.4 1.3-.8 1.4-1-.1-.8-1.4m17.3-3.9c3.5-6 13.1-15.4 18-17.8q3.1-1.3 1.6-.4c-8.8 6-11.1 8.4-20.9 21-1 1.3-.4 0 1.3-2.8m-9.5-2.3A59 59 0 0 0 71.2 4.8Q65.5 3 69 3.5c10.2 1.6 24.9 11.8 32.9 23 4.7 6.6 3 5.5-2.4-1.4m89.5 2.6c0-.7.5-1.8 1.2-2.5q1.5-1.4-.9-1.2c-3 0-2.7-4.7.3-5.3q1.9-.2 2 .9 0 1.1-1.3.7t-.7 1c.6 1.7 3.4 1.2 3.4-.5q0-.9 1.5.2c2 1.7 1.9 3-.4 3s-4.5 2.5-3.6 4q.4.9-.4 1-1-.1-1.1-1.3m4-.6q.1-3.7 1.3-.6.5 1.4-.3 2-1 .4-1-1.4m-180.3.3c-.7-.7 5.2-8.7 7.6-10.3q1.8-1.2 1.5 0-.2 1.2 1.6 1.7 1.7.3 1.2-.7t1-1.1q1.8 0 1-2.1-.5-2.3.6-1.1c.6.6.8 1.9.4 2.9s-.6 2-.4 2.1q.2.4-1.5 1.4-1.9 1-3-.1-2.6-2.7-2.3 1.4.3 2.1-.5 2-.7-.4-1.4.5t-1.4.6-2.1.5c-1.3.8-1.3 1 0 1.9q2 1.1 0 1-1.7 0-2.3-.6m16.5-2q-1-.6-.5-1.7.6-1-1-.4-2.2 1-.7-1.3c.6-1.1.8-2.5.5-3-1-1.5 1.1-1.2 2.4.4q1.3 1.5.1 2-1 .7 0 2.7c.6 1 1 1.9.8 1.8zM114 25c0-.5.5-1.3 1-1.6q1-.5 1 .4c0 .5-.4 1.3-1 1.6q-.9.5-1-.4m-22-3q0-1 1-1.6.9-.5.4 1-1.2 2.6-1.4.6m27-.8q0-1.3-1.2-.7-1.5.8-.1-.6c1-1 1.5-1 2.7.3 2 2 2 2.4.1 2.4q-1.3-.2-1.5-1.4m-89-3.8c-.6-.8-1-2.2-.8-3.1.3-1.6.4-1.6 1.8.1q1.3 1.7.3 1.1Q30 15 30 16q.2.9 1.8 1.3t.6 1q-1.2.6-2.4-.7m41.6-.4c-.3-.5-1.5-.7-2.6-.4q-2 .6-2-1c0-.8-1-1.7-2.1-2q-2-.6-1.3-1.8.8-1.5 1.1-.2.5 1.1 1.9.6 1.3-.4 1.4 1c0 1.8 3.3 1.5 5.8-.5q2-1.8-.1 1.3c-1 1.4-1.4 2.9-1 3.2q.5.6 0 .7t-1.1-1m50.4-1c1.4-1.2 3.5-2 4.8-2q2-.1 1.7-1t.4-1.5q.8-.4.6 1.1L129 15c0 .3-1.3.7-2.8.8s-3 .5-3.2 1-1.3.8-2.1 1q-1.2 0 1-1.8m64.6.4a1.6 1.6 0 0 0-2-.9c-1.6.6-2.3-1.6-1-2.9.8-.8 6.4 3 6.4 4.4s-2.7 1-3.4-.6M85.3 15.3q0-1.4 1.4-.2 1.2 1 1.3 1.4-.1.1-1.3.2-1.3-.1-1.4-1.4m-47.7-1.8q.6-1.4 1-1.5.3.1.4 1.5 0 1.4-1 1.5-.8-.1-.4-1.5m38 0a6 6 0 0 1 1.8-2.7q.8-.7-1.4-.9l-4.7-.3q-2.1-.3-2.3.5-.2.7-2 .6c-2-.1-2.8-1.6-1-1.8 2-.3 2.5-.4 3.6-1.1C71.4 6.6 84 11.3 84 13c0 1.3-3.2 2-4.8 1s-1.5-1 .3-1q2.4 0 .5-1-1.5-1.3-3.3 1.2-2.2 3-1 .2M51 10.9q.1-.8 1-.4 1 .6 1 1-.1.5-1 .5-.9-.1-1-1m6 .1q.1-.9 1-1 1 .1.5 1t-1 1-.5-1m4-1.5c0-2.2.4-2.6 2-2.2q1.8.4 2.2-.9.3-1.3 1.7-.5 1.6.9-1.2 2.2C64.3 9 63 10 63 10.5q0 .9-1 1.3-1 .1-1.1-2.3m120 1.4q.1-.8 1-.4 1 .6 1 1t-1 .5-1-1M47.3 9.5q0-1.4.9-1.5.7 0 .8 1a2 2 0 0 1-.8 1.4q-.8.4-.9-1m130.2.6a1 1 0 0 1 .4-1.5q.8-.5 1.5 1c.6 1.5-1 2-1.9.5m-4.3-1.3c.5-1.5 2.8-2.3 2.8-1q-.1 1-1.6 1.6-1.5.5-1.2-.6M39 7q-2-1.1.3-1 1.6.1 1.7 1c0 1.2-.1 1.2-2 0m95.7-1c2.3-1.1 5.7-2.3 7.5-2.5q3.1-.5-2.2 1.3c-9 3.2-9.7 3.3-5.3 1.2m-91.1.2q-.4-.8.9-.9t.9.9q-.5.7-.9.8-.4-.1-.9-.8m98.9-.2q.6-.9 1-1 .5.1.5 1-.1.9-1 1-1-.1-.5-1M55 5c1.6-1 6.7-1.4 5.8-.4-.3.3-2.1.7-4 1q-3.5.3-1.8-.6m-4.2-.7q1.2-.4 2 .1.4.5-1.4.5t-.6-.6m-6.3-1.8c2.5-.9 10.4-1.2 10-.4-.4.5-3 .9-5.8.8-2.9 0-4.7-.2-4.2-.4m13.8-.2c1.5-.2 3.7-.2 5 0s0 .4-2.8.4-3.8-.2-2.2-.4" style="fill:#de1d26"/><path d="M103.5 193.8c-1.6-3.3-1.6-3.3.2-1l2 2.3 2.3-4.6a23 23 0 0 1 3.3-5.2c.4-.3-.6 2.2-2.3 5.6a32 32 0 0 1-3.5 6.1c-.2 0-1.2-1.5-2-3.3m-7.7-12c-11.1-16.3-19.3-24.7-45.3-46.3a183 183 0 0 1-34.4-35.6C10.8 92 4 78 4.1 75c0-.8 1.4 2.3 3.3 7 7.8 19.2 18.9 32 49.6 57.7a201 201 0 0 1 37.8 39.2c6.6 9.7 7.5 11.2 7 11.2-.3 0-3-3.7-6-8.2m17.3.2c2.2-4.7 13.6-18.5 21.5-26 4.4-4.2 13.3-12 19.9-17.5 26.7-22.2 42.6-41.3 49-58.8 1-2.6 2-4.6 2.2-4.3 1 1-5.9 15.1-11.2 23.1-7.6 11.5-19.8 24-38.5 40-23.2 19.6-30.1 26.7-42.3 43.5l-1.8 2.5Zm93.1-109.5c0-1.1.4-3.1.8-4.5q.9-2.9.8-.5a18 18 0 0 1-.8 4.5q-.9 2.9-.8.5M2.7 70.2a59 59 0 0 1 14.6-53.6A51 51 0 0 1 40 3.5q3.8-.6-2 1.3A53 53 0 0 0 3 63.6c.7 4.7 1 8.7.7 9-.2.3-.7-.8-1-2.4M208 57c0-10.6-1.4-17-6-26.6a50 50 0 0 0-24.6-24C171.5 4 168.6 3.6 158 3l-12.5-.6 11-.2c9-.2 12.4.2 17 1.8 21.7 7.5 34.1 25.2 35.3 50.3.2 5.9.2 10.7-.2 10.7-.3 0-.6-3.6-.6-8m-99-29.6c3.5-6 13.1-15.4 18-17.8q3.1-1.3 1.6-.4c-8.8 6-11.1 8.4-20.9 21-1 1.3-.4 0 1.3-2.8m-9.5-2.3A59 59 0 0 0 71.2 4.8Q65.5 3 69 3.5c10.2 1.6 24.9 11.8 32.9 23 4.7 6.6 3 5.5-2.4-1.4M134.7 6c2.3-1.1 5.7-2.3 7.5-2.5q3.1-.5-2.2 1.3c-9 3.2-9.7 3.3-5.3 1.2M44.5 2.5c2.5-.9 10.4-1.2 10-.4-.4.5-3 .9-5.8.8-2.9 0-4.7-.2-4.2-.4m13.8-.2c1.5-.2 3.7-.2 5 0s0 .4-2.8.4-3.8-.2-2.2-.4" style="fill:#af272e"/></svg>